%TF.GenerationSoftware,KiCad,Pcbnew,4.0.4-stable*%
%TF.CreationDate,2016-12-05T23:01:44+00:00*%
%TF.ProjectId,mightyduino,6D69676874796475696E6F2E6B696361,rev?*%
%TF.FileFunction,Soldermask,Bot*%
%FSLAX46Y46*%
G04 Gerber Fmt 4.6, Leading zero omitted, Abs format (unit mm)*
G04 Created by KiCad (PCBNEW 4.0.4-stable) date Monday, 05 '05e' December '05e' 2016, 23:01:44*
%MOMM*%
%LPD*%
G01*
G04 APERTURE LIST*
%ADD10C,0.100000*%
%ADD11C,0.010000*%
%ADD12R,2.127200X2.432000*%
%ADD13O,2.127200X2.432000*%
%ADD14R,2.432000X2.127200*%
%ADD15O,2.432000X2.127200*%
G04 APERTURE END LIST*
D10*
D11*
G36*
X172300900Y-114820700D02*
X172300900Y-105968800D01*
X171126150Y-105968800D01*
X171126150Y-107284545D01*
X171259876Y-107291522D01*
X171374866Y-107311803D01*
X171474710Y-107346581D01*
X171562999Y-107397049D01*
X171630555Y-107452156D01*
X171703038Y-107533398D01*
X171752755Y-107621570D01*
X171780941Y-107719835D01*
X171788827Y-107831354D01*
X171788049Y-107856130D01*
X171781464Y-107927962D01*
X171767521Y-107987554D01*
X171747996Y-108037632D01*
X171699254Y-108119364D01*
X171643855Y-108179126D01*
X171574953Y-108242100D01*
X171780200Y-108242100D01*
X171780200Y-108534200D01*
X170459400Y-108534200D01*
X170459400Y-108813600D01*
X170939694Y-108813600D01*
X171073839Y-108813763D01*
X171185293Y-108814444D01*
X171276766Y-108815928D01*
X171350966Y-108818501D01*
X171410601Y-108822449D01*
X171458380Y-108828057D01*
X171497013Y-108835611D01*
X171529206Y-108845396D01*
X171557670Y-108857699D01*
X171585113Y-108872805D01*
X171602491Y-108883508D01*
X171669905Y-108939280D01*
X171726497Y-109011834D01*
X171765958Y-109092954D01*
X171767968Y-109098900D01*
X171782028Y-109162387D01*
X171788725Y-109238437D01*
X171788216Y-109318350D01*
X171780655Y-109393423D01*
X171766201Y-109454956D01*
X171761338Y-109467650D01*
X171712914Y-109552553D01*
X171647638Y-109619076D01*
X171617298Y-109640435D01*
X171559327Y-109677200D01*
X171780200Y-109677200D01*
X171780200Y-109969300D01*
X170459400Y-109969300D01*
X170459400Y-110248700D01*
X171780200Y-110248700D01*
X171780200Y-110553500D01*
X170459400Y-110553500D01*
X170459400Y-110820200D01*
X171780200Y-110820200D01*
X171780200Y-111137700D01*
X171365748Y-111137700D01*
X171242324Y-111137872D01*
X171141462Y-111138618D01*
X171060324Y-111140281D01*
X170996072Y-111143206D01*
X170945869Y-111147735D01*
X170906876Y-111154212D01*
X170876258Y-111162981D01*
X170851175Y-111174386D01*
X170828791Y-111188769D01*
X170807724Y-111205272D01*
X170758644Y-111261312D01*
X170726727Y-111330882D01*
X170713318Y-111407642D01*
X170719760Y-111485251D01*
X170737285Y-111537750D01*
X170765502Y-111586990D01*
X170801704Y-111622457D01*
X170854158Y-111652030D01*
X170859914Y-111654652D01*
X170876017Y-111660839D01*
X170895851Y-111665872D01*
X170922197Y-111669905D01*
X170957833Y-111673091D01*
X171005541Y-111675583D01*
X171068100Y-111677535D01*
X171148291Y-111679101D01*
X171248892Y-111680433D01*
X171345225Y-111681427D01*
X171780200Y-111685581D01*
X171780200Y-111990214D01*
X171288075Y-111985752D01*
X171163856Y-111984525D01*
X171163856Y-112195001D01*
X171240815Y-112199433D01*
X171300259Y-112206156D01*
X171350051Y-112216439D01*
X171398056Y-112231550D01*
X171404016Y-112233728D01*
X171519025Y-112287955D01*
X171614419Y-112358296D01*
X171690160Y-112444713D01*
X171746212Y-112547166D01*
X171773209Y-112626522D01*
X171784457Y-112688898D01*
X171790442Y-112766646D01*
X171791144Y-112850283D01*
X171786547Y-112930329D01*
X171776631Y-112997302D01*
X171773955Y-113008495D01*
X171731798Y-113124137D01*
X171670062Y-113223790D01*
X171589408Y-113306813D01*
X171490496Y-113372561D01*
X171373990Y-113420393D01*
X171340385Y-113429949D01*
X171278114Y-113440949D01*
X171199385Y-113447285D01*
X171112701Y-113448976D01*
X171026571Y-113446040D01*
X170949498Y-113438497D01*
X170899383Y-113428980D01*
X170779033Y-113386320D01*
X170676000Y-113325419D01*
X170591058Y-113247316D01*
X170524983Y-113153045D01*
X170478551Y-113043645D01*
X170452537Y-112920150D01*
X170446887Y-112824250D01*
X170455885Y-112694270D01*
X170483918Y-112579801D01*
X170531745Y-112478713D01*
X170600126Y-112388876D01*
X170603562Y-112385209D01*
X170689151Y-112309814D01*
X170786112Y-112253759D01*
X170896389Y-112216384D01*
X171021925Y-112197029D01*
X171163856Y-112195001D01*
X171163856Y-111984525D01*
X171160965Y-111984496D01*
X171056589Y-111983166D01*
X170972276Y-111981631D01*
X170905360Y-111979757D01*
X170853172Y-111977413D01*
X170813046Y-111974465D01*
X170782312Y-111970782D01*
X170758304Y-111966231D01*
X170738353Y-111960680D01*
X170730741Y-111958089D01*
X170637954Y-111912977D01*
X170562751Y-111849645D01*
X170504319Y-111767383D01*
X170497847Y-111755134D01*
X170477566Y-111713743D01*
X170464664Y-111680316D01*
X170457460Y-111646706D01*
X170454271Y-111604762D01*
X170453417Y-111546337D01*
X170453397Y-111539712D01*
X170456407Y-111447421D01*
X170467455Y-111373685D01*
X170488730Y-111312341D01*
X170522420Y-111257226D01*
X170570715Y-111202178D01*
X170574717Y-111198150D01*
X170647867Y-111125000D01*
X170459400Y-111125000D01*
X170459400Y-110820200D01*
X170459400Y-110553500D01*
X170459400Y-110248700D01*
X170459400Y-109969300D01*
X170459400Y-109665770D01*
X170881675Y-109661960D01*
X170996887Y-109660852D01*
X171089626Y-109659701D01*
X171162818Y-109658315D01*
X171219389Y-109656501D01*
X171262267Y-109654068D01*
X171294376Y-109650824D01*
X171318644Y-109646578D01*
X171337996Y-109641137D01*
X171355360Y-109634310D01*
X171364181Y-109630330D01*
X171436653Y-109585578D01*
X171487391Y-109527891D01*
X171516951Y-109456387D01*
X171525921Y-109374024D01*
X171515897Y-109290263D01*
X171486390Y-109222731D01*
X171437172Y-109171092D01*
X171368013Y-109135008D01*
X171362379Y-109133042D01*
X171335666Y-109128316D01*
X171285859Y-109124526D01*
X171212474Y-109121658D01*
X171115025Y-109119697D01*
X170993027Y-109118626D01*
X170889304Y-109118400D01*
X170459400Y-109118400D01*
X170459400Y-108813600D01*
X170459400Y-108534200D01*
X170141900Y-108534200D01*
X170141900Y-110229650D01*
X170186363Y-110230744D01*
X170215057Y-110236528D01*
X170237597Y-110250752D01*
X170263525Y-110277088D01*
X170289241Y-110308241D01*
X170302221Y-110336287D01*
X170306665Y-110372721D01*
X170307000Y-110396057D01*
X170305408Y-110439262D01*
X170297559Y-110468427D01*
X170278836Y-110494862D01*
X170257694Y-110516894D01*
X170225914Y-110546083D01*
X170199089Y-110560753D01*
X170165771Y-110565779D01*
X170141900Y-110566200D01*
X170100617Y-110564278D01*
X170071821Y-110555265D01*
X170044063Y-110534284D01*
X170026105Y-110516894D01*
X169997421Y-110485901D01*
X169982728Y-110459820D01*
X169977413Y-110427343D01*
X169976800Y-110396057D01*
X169978679Y-110351695D01*
X169987117Y-110321131D01*
X170006313Y-110292873D01*
X170020274Y-110277088D01*
X170046253Y-110250708D01*
X170068796Y-110236507D01*
X170097515Y-110230738D01*
X170141900Y-110229650D01*
X170141900Y-108534200D01*
X169964100Y-108534200D01*
X169964100Y-108229400D01*
X170315255Y-108229400D01*
X170666410Y-108229399D01*
X170613950Y-108191397D01*
X170549575Y-108129713D01*
X170500589Y-108051586D01*
X170467829Y-107961391D01*
X170452132Y-107863505D01*
X170454334Y-107762303D01*
X170475274Y-107662160D01*
X170500339Y-107597545D01*
X170549539Y-107518522D01*
X170617573Y-107445674D01*
X170697877Y-107385398D01*
X170743470Y-107360595D01*
X170819455Y-107327878D01*
X170890160Y-107305530D01*
X170963601Y-107291957D01*
X171047795Y-107285567D01*
X171126150Y-107284545D01*
X171126150Y-105968800D01*
X166878000Y-105968800D01*
X166878000Y-106299000D01*
X169608500Y-106299000D01*
X169608500Y-114490500D01*
X166878000Y-114490500D01*
X166878000Y-106299000D01*
X166878000Y-105968800D01*
X166547800Y-105968800D01*
X166547800Y-114820700D01*
X172300900Y-114820700D01*
X172300900Y-114820700D01*
G37*
X172300900Y-114820700D02*
X172300900Y-105968800D01*
X171126150Y-105968800D01*
X171126150Y-107284545D01*
X171259876Y-107291522D01*
X171374866Y-107311803D01*
X171474710Y-107346581D01*
X171562999Y-107397049D01*
X171630555Y-107452156D01*
X171703038Y-107533398D01*
X171752755Y-107621570D01*
X171780941Y-107719835D01*
X171788827Y-107831354D01*
X171788049Y-107856130D01*
X171781464Y-107927962D01*
X171767521Y-107987554D01*
X171747996Y-108037632D01*
X171699254Y-108119364D01*
X171643855Y-108179126D01*
X171574953Y-108242100D01*
X171780200Y-108242100D01*
X171780200Y-108534200D01*
X170459400Y-108534200D01*
X170459400Y-108813600D01*
X170939694Y-108813600D01*
X171073839Y-108813763D01*
X171185293Y-108814444D01*
X171276766Y-108815928D01*
X171350966Y-108818501D01*
X171410601Y-108822449D01*
X171458380Y-108828057D01*
X171497013Y-108835611D01*
X171529206Y-108845396D01*
X171557670Y-108857699D01*
X171585113Y-108872805D01*
X171602491Y-108883508D01*
X171669905Y-108939280D01*
X171726497Y-109011834D01*
X171765958Y-109092954D01*
X171767968Y-109098900D01*
X171782028Y-109162387D01*
X171788725Y-109238437D01*
X171788216Y-109318350D01*
X171780655Y-109393423D01*
X171766201Y-109454956D01*
X171761338Y-109467650D01*
X171712914Y-109552553D01*
X171647638Y-109619076D01*
X171617298Y-109640435D01*
X171559327Y-109677200D01*
X171780200Y-109677200D01*
X171780200Y-109969300D01*
X170459400Y-109969300D01*
X170459400Y-110248700D01*
X171780200Y-110248700D01*
X171780200Y-110553500D01*
X170459400Y-110553500D01*
X170459400Y-110820200D01*
X171780200Y-110820200D01*
X171780200Y-111137700D01*
X171365748Y-111137700D01*
X171242324Y-111137872D01*
X171141462Y-111138618D01*
X171060324Y-111140281D01*
X170996072Y-111143206D01*
X170945869Y-111147735D01*
X170906876Y-111154212D01*
X170876258Y-111162981D01*
X170851175Y-111174386D01*
X170828791Y-111188769D01*
X170807724Y-111205272D01*
X170758644Y-111261312D01*
X170726727Y-111330882D01*
X170713318Y-111407642D01*
X170719760Y-111485251D01*
X170737285Y-111537750D01*
X170765502Y-111586990D01*
X170801704Y-111622457D01*
X170854158Y-111652030D01*
X170859914Y-111654652D01*
X170876017Y-111660839D01*
X170895851Y-111665872D01*
X170922197Y-111669905D01*
X170957833Y-111673091D01*
X171005541Y-111675583D01*
X171068100Y-111677535D01*
X171148291Y-111679101D01*
X171248892Y-111680433D01*
X171345225Y-111681427D01*
X171780200Y-111685581D01*
X171780200Y-111990214D01*
X171288075Y-111985752D01*
X171163856Y-111984525D01*
X171163856Y-112195001D01*
X171240815Y-112199433D01*
X171300259Y-112206156D01*
X171350051Y-112216439D01*
X171398056Y-112231550D01*
X171404016Y-112233728D01*
X171519025Y-112287955D01*
X171614419Y-112358296D01*
X171690160Y-112444713D01*
X171746212Y-112547166D01*
X171773209Y-112626522D01*
X171784457Y-112688898D01*
X171790442Y-112766646D01*
X171791144Y-112850283D01*
X171786547Y-112930329D01*
X171776631Y-112997302D01*
X171773955Y-113008495D01*
X171731798Y-113124137D01*
X171670062Y-113223790D01*
X171589408Y-113306813D01*
X171490496Y-113372561D01*
X171373990Y-113420393D01*
X171340385Y-113429949D01*
X171278114Y-113440949D01*
X171199385Y-113447285D01*
X171112701Y-113448976D01*
X171026571Y-113446040D01*
X170949498Y-113438497D01*
X170899383Y-113428980D01*
X170779033Y-113386320D01*
X170676000Y-113325419D01*
X170591058Y-113247316D01*
X170524983Y-113153045D01*
X170478551Y-113043645D01*
X170452537Y-112920150D01*
X170446887Y-112824250D01*
X170455885Y-112694270D01*
X170483918Y-112579801D01*
X170531745Y-112478713D01*
X170600126Y-112388876D01*
X170603562Y-112385209D01*
X170689151Y-112309814D01*
X170786112Y-112253759D01*
X170896389Y-112216384D01*
X171021925Y-112197029D01*
X171163856Y-112195001D01*
X171163856Y-111984525D01*
X171160965Y-111984496D01*
X171056589Y-111983166D01*
X170972276Y-111981631D01*
X170905360Y-111979757D01*
X170853172Y-111977413D01*
X170813046Y-111974465D01*
X170782312Y-111970782D01*
X170758304Y-111966231D01*
X170738353Y-111960680D01*
X170730741Y-111958089D01*
X170637954Y-111912977D01*
X170562751Y-111849645D01*
X170504319Y-111767383D01*
X170497847Y-111755134D01*
X170477566Y-111713743D01*
X170464664Y-111680316D01*
X170457460Y-111646706D01*
X170454271Y-111604762D01*
X170453417Y-111546337D01*
X170453397Y-111539712D01*
X170456407Y-111447421D01*
X170467455Y-111373685D01*
X170488730Y-111312341D01*
X170522420Y-111257226D01*
X170570715Y-111202178D01*
X170574717Y-111198150D01*
X170647867Y-111125000D01*
X170459400Y-111125000D01*
X170459400Y-110820200D01*
X170459400Y-110553500D01*
X170459400Y-110248700D01*
X170459400Y-109969300D01*
X170459400Y-109665770D01*
X170881675Y-109661960D01*
X170996887Y-109660852D01*
X171089626Y-109659701D01*
X171162818Y-109658315D01*
X171219389Y-109656501D01*
X171262267Y-109654068D01*
X171294376Y-109650824D01*
X171318644Y-109646578D01*
X171337996Y-109641137D01*
X171355360Y-109634310D01*
X171364181Y-109630330D01*
X171436653Y-109585578D01*
X171487391Y-109527891D01*
X171516951Y-109456387D01*
X171525921Y-109374024D01*
X171515897Y-109290263D01*
X171486390Y-109222731D01*
X171437172Y-109171092D01*
X171368013Y-109135008D01*
X171362379Y-109133042D01*
X171335666Y-109128316D01*
X171285859Y-109124526D01*
X171212474Y-109121658D01*
X171115025Y-109119697D01*
X170993027Y-109118626D01*
X170889304Y-109118400D01*
X170459400Y-109118400D01*
X170459400Y-108813600D01*
X170459400Y-108534200D01*
X170141900Y-108534200D01*
X170141900Y-110229650D01*
X170186363Y-110230744D01*
X170215057Y-110236528D01*
X170237597Y-110250752D01*
X170263525Y-110277088D01*
X170289241Y-110308241D01*
X170302221Y-110336287D01*
X170306665Y-110372721D01*
X170307000Y-110396057D01*
X170305408Y-110439262D01*
X170297559Y-110468427D01*
X170278836Y-110494862D01*
X170257694Y-110516894D01*
X170225914Y-110546083D01*
X170199089Y-110560753D01*
X170165771Y-110565779D01*
X170141900Y-110566200D01*
X170100617Y-110564278D01*
X170071821Y-110555265D01*
X170044063Y-110534284D01*
X170026105Y-110516894D01*
X169997421Y-110485901D01*
X169982728Y-110459820D01*
X169977413Y-110427343D01*
X169976800Y-110396057D01*
X169978679Y-110351695D01*
X169987117Y-110321131D01*
X170006313Y-110292873D01*
X170020274Y-110277088D01*
X170046253Y-110250708D01*
X170068796Y-110236507D01*
X170097515Y-110230738D01*
X170141900Y-110229650D01*
X170141900Y-108534200D01*
X169964100Y-108534200D01*
X169964100Y-108229400D01*
X170315255Y-108229400D01*
X170666410Y-108229399D01*
X170613950Y-108191397D01*
X170549575Y-108129713D01*
X170500589Y-108051586D01*
X170467829Y-107961391D01*
X170452132Y-107863505D01*
X170454334Y-107762303D01*
X170475274Y-107662160D01*
X170500339Y-107597545D01*
X170549539Y-107518522D01*
X170617573Y-107445674D01*
X170697877Y-107385398D01*
X170743470Y-107360595D01*
X170819455Y-107327878D01*
X170890160Y-107305530D01*
X170963601Y-107291957D01*
X171047795Y-107285567D01*
X171126150Y-107284545D01*
X171126150Y-105968800D01*
X166878000Y-105968800D01*
X166878000Y-106299000D01*
X169608500Y-106299000D01*
X169608500Y-114490500D01*
X166878000Y-114490500D01*
X166878000Y-106299000D01*
X166878000Y-105968800D01*
X166547800Y-105968800D01*
X166547800Y-114820700D01*
X172300900Y-114820700D01*
G36*
X170724642Y-107993161D02*
X170758871Y-108067495D01*
X170814798Y-108131635D01*
X170891261Y-108183311D01*
X170915793Y-108195060D01*
X170974579Y-108213060D01*
X171048778Y-108224282D01*
X171129201Y-108228277D01*
X171206662Y-108224600D01*
X171271976Y-108212803D01*
X171273206Y-108212449D01*
X171364462Y-108175692D01*
X171436510Y-108124775D01*
X171488134Y-108061124D01*
X171518119Y-107986163D01*
X171525702Y-107916531D01*
X171522016Y-107866507D01*
X171513115Y-107819375D01*
X171505952Y-107797600D01*
X171462829Y-107729510D01*
X171398638Y-107674118D01*
X171314828Y-107632366D01*
X171212848Y-107605195D01*
X171209217Y-107604563D01*
X171112476Y-107596976D01*
X171018353Y-107606249D01*
X170930678Y-107630651D01*
X170853285Y-107668448D01*
X170790006Y-107717909D01*
X170744674Y-107777303D01*
X170725909Y-107823000D01*
X170713268Y-107910905D01*
X170724642Y-107993161D01*
X170724642Y-107993161D01*
G37*
X170724642Y-107993161D02*
X170758871Y-108067495D01*
X170814798Y-108131635D01*
X170891261Y-108183311D01*
X170915793Y-108195060D01*
X170974579Y-108213060D01*
X171048778Y-108224282D01*
X171129201Y-108228277D01*
X171206662Y-108224600D01*
X171271976Y-108212803D01*
X171273206Y-108212449D01*
X171364462Y-108175692D01*
X171436510Y-108124775D01*
X171488134Y-108061124D01*
X171518119Y-107986163D01*
X171525702Y-107916531D01*
X171522016Y-107866507D01*
X171513115Y-107819375D01*
X171505952Y-107797600D01*
X171462829Y-107729510D01*
X171398638Y-107674118D01*
X171314828Y-107632366D01*
X171212848Y-107605195D01*
X171209217Y-107604563D01*
X171112476Y-107596976D01*
X171018353Y-107606249D01*
X170930678Y-107630651D01*
X170853285Y-107668448D01*
X170790006Y-107717909D01*
X170744674Y-107777303D01*
X170725909Y-107823000D01*
X170713268Y-107910905D01*
X170724642Y-107993161D01*
G36*
X170711694Y-112907196D02*
X170743303Y-112980485D01*
X170796533Y-113040927D01*
X170871833Y-113089128D01*
X170912384Y-113106736D01*
X170983434Y-113125725D01*
X171069043Y-113135830D01*
X171159916Y-113136895D01*
X171246757Y-113128764D01*
X171313765Y-113113462D01*
X171373944Y-113086769D01*
X171432278Y-113048302D01*
X171481759Y-113003669D01*
X171515380Y-112958482D01*
X171520379Y-112948015D01*
X171536128Y-112894447D01*
X171544362Y-112833584D01*
X171543804Y-112777741D01*
X171540197Y-112756950D01*
X171507331Y-112675486D01*
X171454496Y-112609639D01*
X171381840Y-112559519D01*
X171289511Y-112525237D01*
X171209476Y-112510238D01*
X171124646Y-112505346D01*
X171036655Y-112510146D01*
X170954687Y-112523642D01*
X170887925Y-112544840D01*
X170887248Y-112545140D01*
X170807949Y-112591225D01*
X170750867Y-112649435D01*
X170715552Y-112720439D01*
X170701550Y-112804905D01*
X170701257Y-112820450D01*
X170711694Y-112907196D01*
X170711694Y-112907196D01*
G37*
X170711694Y-112907196D02*
X170743303Y-112980485D01*
X170796533Y-113040927D01*
X170871833Y-113089128D01*
X170912384Y-113106736D01*
X170983434Y-113125725D01*
X171069043Y-113135830D01*
X171159916Y-113136895D01*
X171246757Y-113128764D01*
X171313765Y-113113462D01*
X171373944Y-113086769D01*
X171432278Y-113048302D01*
X171481759Y-113003669D01*
X171515380Y-112958482D01*
X171520379Y-112948015D01*
X171536128Y-112894447D01*
X171544362Y-112833584D01*
X171543804Y-112777741D01*
X171540197Y-112756950D01*
X171507331Y-112675486D01*
X171454496Y-112609639D01*
X171381840Y-112559519D01*
X171289511Y-112525237D01*
X171209476Y-112510238D01*
X171124646Y-112505346D01*
X171036655Y-112510146D01*
X170954687Y-112523642D01*
X170887925Y-112544840D01*
X170887248Y-112545140D01*
X170807949Y-112591225D01*
X170750867Y-112649435D01*
X170715552Y-112720439D01*
X170701550Y-112804905D01*
X170701257Y-112820450D01*
X170711694Y-112907196D01*
G36*
X167825460Y-113739982D02*
X167829906Y-113790132D01*
X167838037Y-113824142D01*
X167850816Y-113845093D01*
X167869203Y-113856070D01*
X167894159Y-113860154D01*
X167911595Y-113860580D01*
X167957331Y-113853025D01*
X167985999Y-113828834D01*
X167999591Y-113785716D01*
X168001348Y-113757462D01*
X168001950Y-113697229D01*
X168148000Y-113643656D01*
X168202475Y-113623758D01*
X168275304Y-113597281D01*
X168360939Y-113566236D01*
X168453831Y-113532631D01*
X168548429Y-113498479D01*
X168598850Y-113480307D01*
X168729155Y-113432638D01*
X168837867Y-113391081D01*
X168927700Y-113354377D01*
X169001367Y-113321267D01*
X169061582Y-113290492D01*
X169111059Y-113260793D01*
X169152511Y-113230911D01*
X169172734Y-113214063D01*
X169235950Y-113143960D01*
X169281662Y-113062101D01*
X169308041Y-112973840D01*
X169313260Y-112884527D01*
X169304419Y-112828365D01*
X169279555Y-112769414D01*
X169238579Y-112711651D01*
X169189180Y-112665123D01*
X169169821Y-112652491D01*
X169108424Y-112629135D01*
X169047915Y-112626025D01*
X168992770Y-112641057D01*
X168947463Y-112672125D01*
X168916469Y-112717122D01*
X168904264Y-112773945D01*
X168904227Y-112777460D01*
X168915290Y-112828276D01*
X168944715Y-112867353D01*
X168986860Y-112891247D01*
X169036079Y-112896515D01*
X169078836Y-112883989D01*
X169105923Y-112871060D01*
X169120986Y-112864969D01*
X169121501Y-112864900D01*
X169124212Y-112876209D01*
X169125760Y-112904581D01*
X169125900Y-112917759D01*
X169113989Y-112984157D01*
X169081305Y-113044418D01*
X169032415Y-113094100D01*
X168971889Y-113128764D01*
X168904295Y-113143969D01*
X168892804Y-113144300D01*
X168866543Y-113141428D01*
X168826499Y-113132444D01*
X168770862Y-113116792D01*
X168697822Y-113093919D01*
X168605570Y-113063269D01*
X168492295Y-113024288D01*
X168430370Y-113002612D01*
X168333909Y-112968510D01*
X168244801Y-112936643D01*
X168165962Y-112908083D01*
X168100308Y-112883901D01*
X168050753Y-112865167D01*
X168020215Y-112852952D01*
X168011691Y-112848837D01*
X168002116Y-112827681D01*
X167998606Y-112786508D01*
X167998991Y-112767263D01*
X167998943Y-112723698D01*
X167992857Y-112697477D01*
X167978820Y-112680881D01*
X167977297Y-112679738D01*
X167941552Y-112665153D01*
X167899249Y-112663025D01*
X167862210Y-112673177D01*
X167850457Y-112681657D01*
X167842782Y-112688797D01*
X167837048Y-112695038D01*
X167832943Y-112703858D01*
X167830152Y-112718737D01*
X167828361Y-112743154D01*
X167827257Y-112780589D01*
X167826525Y-112834520D01*
X167825852Y-112908427D01*
X167825386Y-112959622D01*
X167824787Y-113044503D01*
X167825027Y-113107659D01*
X167826390Y-113152757D01*
X167829161Y-113183466D01*
X167833626Y-113203452D01*
X167840068Y-113216386D01*
X167845847Y-113223147D01*
X167875340Y-113238931D01*
X167915323Y-113245646D01*
X167952570Y-113241845D01*
X167965123Y-113236180D01*
X167990868Y-113205296D01*
X168003594Y-113160892D01*
X168002217Y-113122210D01*
X167998692Y-113092469D01*
X168004148Y-113082481D01*
X168010580Y-113083554D01*
X168027054Y-113088774D01*
X168064296Y-113100120D01*
X168118718Y-113116513D01*
X168186730Y-113136874D01*
X168264744Y-113160126D01*
X168319450Y-113176378D01*
X168413553Y-113204319D01*
X168486010Y-113225965D01*
X168539526Y-113242243D01*
X168576807Y-113254079D01*
X168600557Y-113262401D01*
X168613483Y-113268135D01*
X168618289Y-113272209D01*
X168617682Y-113275550D01*
X168615580Y-113277852D01*
X168600686Y-113284917D01*
X168565714Y-113298248D01*
X168514808Y-113316469D01*
X168452112Y-113338203D01*
X168381771Y-113362074D01*
X168307930Y-113386705D01*
X168234733Y-113410720D01*
X168166324Y-113432743D01*
X168106848Y-113451396D01*
X168060449Y-113465305D01*
X168031273Y-113473091D01*
X168024173Y-113474266D01*
X168007430Y-113472140D01*
X167999416Y-113461171D01*
X167997600Y-113435009D01*
X167998416Y-113409715D01*
X167995066Y-113358831D01*
X167977574Y-113327462D01*
X167942836Y-113312244D01*
X167905827Y-113309400D01*
X167879162Y-113310597D01*
X167859106Y-113316301D01*
X167844696Y-113329684D01*
X167834967Y-113353914D01*
X167828952Y-113392163D01*
X167825688Y-113447600D01*
X167824210Y-113523396D01*
X167823784Y-113578933D01*
X167823740Y-113670610D01*
X167825460Y-113739982D01*
X167825460Y-113739982D01*
G37*
X167825460Y-113739982D02*
X167829906Y-113790132D01*
X167838037Y-113824142D01*
X167850816Y-113845093D01*
X167869203Y-113856070D01*
X167894159Y-113860154D01*
X167911595Y-113860580D01*
X167957331Y-113853025D01*
X167985999Y-113828834D01*
X167999591Y-113785716D01*
X168001348Y-113757462D01*
X168001950Y-113697229D01*
X168148000Y-113643656D01*
X168202475Y-113623758D01*
X168275304Y-113597281D01*
X168360939Y-113566236D01*
X168453831Y-113532631D01*
X168548429Y-113498479D01*
X168598850Y-113480307D01*
X168729155Y-113432638D01*
X168837867Y-113391081D01*
X168927700Y-113354377D01*
X169001367Y-113321267D01*
X169061582Y-113290492D01*
X169111059Y-113260793D01*
X169152511Y-113230911D01*
X169172734Y-113214063D01*
X169235950Y-113143960D01*
X169281662Y-113062101D01*
X169308041Y-112973840D01*
X169313260Y-112884527D01*
X169304419Y-112828365D01*
X169279555Y-112769414D01*
X169238579Y-112711651D01*
X169189180Y-112665123D01*
X169169821Y-112652491D01*
X169108424Y-112629135D01*
X169047915Y-112626025D01*
X168992770Y-112641057D01*
X168947463Y-112672125D01*
X168916469Y-112717122D01*
X168904264Y-112773945D01*
X168904227Y-112777460D01*
X168915290Y-112828276D01*
X168944715Y-112867353D01*
X168986860Y-112891247D01*
X169036079Y-112896515D01*
X169078836Y-112883989D01*
X169105923Y-112871060D01*
X169120986Y-112864969D01*
X169121501Y-112864900D01*
X169124212Y-112876209D01*
X169125760Y-112904581D01*
X169125900Y-112917759D01*
X169113989Y-112984157D01*
X169081305Y-113044418D01*
X169032415Y-113094100D01*
X168971889Y-113128764D01*
X168904295Y-113143969D01*
X168892804Y-113144300D01*
X168866543Y-113141428D01*
X168826499Y-113132444D01*
X168770862Y-113116792D01*
X168697822Y-113093919D01*
X168605570Y-113063269D01*
X168492295Y-113024288D01*
X168430370Y-113002612D01*
X168333909Y-112968510D01*
X168244801Y-112936643D01*
X168165962Y-112908083D01*
X168100308Y-112883901D01*
X168050753Y-112865167D01*
X168020215Y-112852952D01*
X168011691Y-112848837D01*
X168002116Y-112827681D01*
X167998606Y-112786508D01*
X167998991Y-112767263D01*
X167998943Y-112723698D01*
X167992857Y-112697477D01*
X167978820Y-112680881D01*
X167977297Y-112679738D01*
X167941552Y-112665153D01*
X167899249Y-112663025D01*
X167862210Y-112673177D01*
X167850457Y-112681657D01*
X167842782Y-112688797D01*
X167837048Y-112695038D01*
X167832943Y-112703858D01*
X167830152Y-112718737D01*
X167828361Y-112743154D01*
X167827257Y-112780589D01*
X167826525Y-112834520D01*
X167825852Y-112908427D01*
X167825386Y-112959622D01*
X167824787Y-113044503D01*
X167825027Y-113107659D01*
X167826390Y-113152757D01*
X167829161Y-113183466D01*
X167833626Y-113203452D01*
X167840068Y-113216386D01*
X167845847Y-113223147D01*
X167875340Y-113238931D01*
X167915323Y-113245646D01*
X167952570Y-113241845D01*
X167965123Y-113236180D01*
X167990868Y-113205296D01*
X168003594Y-113160892D01*
X168002217Y-113122210D01*
X167998692Y-113092469D01*
X168004148Y-113082481D01*
X168010580Y-113083554D01*
X168027054Y-113088774D01*
X168064296Y-113100120D01*
X168118718Y-113116513D01*
X168186730Y-113136874D01*
X168264744Y-113160126D01*
X168319450Y-113176378D01*
X168413553Y-113204319D01*
X168486010Y-113225965D01*
X168539526Y-113242243D01*
X168576807Y-113254079D01*
X168600557Y-113262401D01*
X168613483Y-113268135D01*
X168618289Y-113272209D01*
X168617682Y-113275550D01*
X168615580Y-113277852D01*
X168600686Y-113284917D01*
X168565714Y-113298248D01*
X168514808Y-113316469D01*
X168452112Y-113338203D01*
X168381771Y-113362074D01*
X168307930Y-113386705D01*
X168234733Y-113410720D01*
X168166324Y-113432743D01*
X168106848Y-113451396D01*
X168060449Y-113465305D01*
X168031273Y-113473091D01*
X168024173Y-113474266D01*
X168007430Y-113472140D01*
X167999416Y-113461171D01*
X167997600Y-113435009D01*
X167998416Y-113409715D01*
X167995066Y-113358831D01*
X167977574Y-113327462D01*
X167942836Y-113312244D01*
X167905827Y-113309400D01*
X167879162Y-113310597D01*
X167859106Y-113316301D01*
X167844696Y-113329684D01*
X167834967Y-113353914D01*
X167828952Y-113392163D01*
X167825688Y-113447600D01*
X167824210Y-113523396D01*
X167823784Y-113578933D01*
X167823740Y-113670610D01*
X167825460Y-113739982D01*
G36*
X167610386Y-110443232D02*
X167630200Y-110502106D01*
X167640693Y-110520158D01*
X167685972Y-110569908D01*
X167740134Y-110597087D01*
X167798804Y-110604300D01*
X167840164Y-110601235D01*
X167870371Y-110588371D01*
X167901619Y-110561120D01*
X167935125Y-110516612D01*
X167943522Y-110474750D01*
X167926875Y-110434786D01*
X167913627Y-110419572D01*
X167879793Y-110397940D01*
X167839241Y-110388198D01*
X167801978Y-110391670D01*
X167783501Y-110402378D01*
X167770500Y-110406842D01*
X167760862Y-110389068D01*
X167761938Y-110355131D01*
X167785941Y-110326207D01*
X167815157Y-110310790D01*
X167836914Y-110306791D01*
X167859577Y-110314946D01*
X167890772Y-110338282D01*
X167896391Y-110343050D01*
X167956524Y-110388213D01*
X168015320Y-110416617D01*
X168082366Y-110431977D01*
X168138747Y-110436927D01*
X168193162Y-110438467D01*
X168232536Y-110435316D01*
X168267053Y-110425721D01*
X168306695Y-110408033D01*
X168382732Y-110357826D01*
X168443232Y-110291055D01*
X168483818Y-110212631D01*
X168485663Y-110207246D01*
X168499500Y-110137249D01*
X168501102Y-110055301D01*
X168491093Y-109971355D01*
X168470098Y-109895364D01*
X168465367Y-109883685D01*
X168448817Y-109833426D01*
X168450243Y-109800162D01*
X168470049Y-109782549D01*
X168496836Y-109778800D01*
X168523058Y-109782269D01*
X168542893Y-109794770D01*
X168557455Y-109819443D01*
X168567857Y-109859427D01*
X168575213Y-109917863D01*
X168580639Y-109997890D01*
X168581641Y-110017818D01*
X168589215Y-110128535D01*
X168600870Y-110218154D01*
X168617744Y-110290807D01*
X168640975Y-110350625D01*
X168671701Y-110401741D01*
X168695582Y-110431519D01*
X168751355Y-110486505D01*
X168806483Y-110520565D01*
X168868314Y-110536882D01*
X168942965Y-110538704D01*
X168996870Y-110534290D01*
X169035418Y-110525655D01*
X169068617Y-110509879D01*
X169090174Y-110495741D01*
X169158080Y-110433798D01*
X169209111Y-110354416D01*
X169243509Y-110256969D01*
X169261521Y-110140833D01*
X169264519Y-110049239D01*
X169262362Y-109986810D01*
X169257515Y-109925952D01*
X169250860Y-109876490D01*
X169247705Y-109861350D01*
X169213871Y-109764420D01*
X169165734Y-109686164D01*
X169104656Y-109627845D01*
X169032002Y-109590724D01*
X168949136Y-109576066D01*
X168939401Y-109575878D01*
X168906151Y-109578208D01*
X168906151Y-109781476D01*
X168956057Y-109782217D01*
X168996146Y-109798620D01*
X169034151Y-109839633D01*
X169062128Y-109899866D01*
X169079053Y-109974790D01*
X169083899Y-110059875D01*
X169075728Y-110150050D01*
X169056047Y-110231804D01*
X169027618Y-110291646D01*
X168990980Y-110328491D01*
X168985118Y-110331809D01*
X168932726Y-110348718D01*
X168884993Y-110341280D01*
X168847509Y-110317450D01*
X168812740Y-110273419D01*
X168788408Y-110212453D01*
X168774358Y-110140172D01*
X168770435Y-110062193D01*
X168776483Y-109984136D01*
X168792347Y-109911618D01*
X168817872Y-109850260D01*
X168852902Y-109805678D01*
X168861855Y-109798689D01*
X168906151Y-109781476D01*
X168906151Y-109578208D01*
X168874335Y-109580438D01*
X168822547Y-109597501D01*
X168773945Y-109631194D01*
X168750050Y-109653243D01*
X168698050Y-109704010D01*
X168654033Y-109659993D01*
X168595088Y-109617172D01*
X168529529Y-109596369D01*
X168462306Y-109597112D01*
X168398369Y-109618927D01*
X168342668Y-109661339D01*
X168318090Y-109692139D01*
X168294160Y-109717565D01*
X168275000Y-109720035D01*
X168192776Y-109697997D01*
X168135972Y-109697517D01*
X168135972Y-109895044D01*
X168192685Y-109899840D01*
X168245082Y-109920789D01*
X168287819Y-109957372D01*
X168315546Y-110009068D01*
X168317077Y-110014279D01*
X168320564Y-110054829D01*
X168315043Y-110104618D01*
X168302575Y-110150251D01*
X168293231Y-110169148D01*
X168250716Y-110212541D01*
X168195528Y-110238275D01*
X168134912Y-110244450D01*
X168076116Y-110229167D01*
X168072053Y-110227140D01*
X168018953Y-110186934D01*
X167984992Y-110134088D01*
X167971825Y-110073746D01*
X167981109Y-110011054D01*
X167993406Y-109982783D01*
X168030986Y-109935995D01*
X168080290Y-109906923D01*
X168135972Y-109895044D01*
X168135972Y-109697517D01*
X168106296Y-109697266D01*
X168021197Y-109716255D01*
X167943115Y-109753376D01*
X167877685Y-109807043D01*
X167851727Y-109839222D01*
X167824238Y-109890873D01*
X167802141Y-109954465D01*
X167787953Y-110020165D01*
X167784189Y-110078142D01*
X167785997Y-110095989D01*
X167789866Y-110127822D01*
X167783783Y-110143436D01*
X167762922Y-110151487D01*
X167753918Y-110153533D01*
X167711126Y-110173042D01*
X167667748Y-110208778D01*
X167631322Y-110252904D01*
X167609388Y-110297582D01*
X167607411Y-110305855D01*
X167602279Y-110374525D01*
X167610386Y-110443232D01*
X167610386Y-110443232D01*
G37*
X167610386Y-110443232D02*
X167630200Y-110502106D01*
X167640693Y-110520158D01*
X167685972Y-110569908D01*
X167740134Y-110597087D01*
X167798804Y-110604300D01*
X167840164Y-110601235D01*
X167870371Y-110588371D01*
X167901619Y-110561120D01*
X167935125Y-110516612D01*
X167943522Y-110474750D01*
X167926875Y-110434786D01*
X167913627Y-110419572D01*
X167879793Y-110397940D01*
X167839241Y-110388198D01*
X167801978Y-110391670D01*
X167783501Y-110402378D01*
X167770500Y-110406842D01*
X167760862Y-110389068D01*
X167761938Y-110355131D01*
X167785941Y-110326207D01*
X167815157Y-110310790D01*
X167836914Y-110306791D01*
X167859577Y-110314946D01*
X167890772Y-110338282D01*
X167896391Y-110343050D01*
X167956524Y-110388213D01*
X168015320Y-110416617D01*
X168082366Y-110431977D01*
X168138747Y-110436927D01*
X168193162Y-110438467D01*
X168232536Y-110435316D01*
X168267053Y-110425721D01*
X168306695Y-110408033D01*
X168382732Y-110357826D01*
X168443232Y-110291055D01*
X168483818Y-110212631D01*
X168485663Y-110207246D01*
X168499500Y-110137249D01*
X168501102Y-110055301D01*
X168491093Y-109971355D01*
X168470098Y-109895364D01*
X168465367Y-109883685D01*
X168448817Y-109833426D01*
X168450243Y-109800162D01*
X168470049Y-109782549D01*
X168496836Y-109778800D01*
X168523058Y-109782269D01*
X168542893Y-109794770D01*
X168557455Y-109819443D01*
X168567857Y-109859427D01*
X168575213Y-109917863D01*
X168580639Y-109997890D01*
X168581641Y-110017818D01*
X168589215Y-110128535D01*
X168600870Y-110218154D01*
X168617744Y-110290807D01*
X168640975Y-110350625D01*
X168671701Y-110401741D01*
X168695582Y-110431519D01*
X168751355Y-110486505D01*
X168806483Y-110520565D01*
X168868314Y-110536882D01*
X168942965Y-110538704D01*
X168996870Y-110534290D01*
X169035418Y-110525655D01*
X169068617Y-110509879D01*
X169090174Y-110495741D01*
X169158080Y-110433798D01*
X169209111Y-110354416D01*
X169243509Y-110256969D01*
X169261521Y-110140833D01*
X169264519Y-110049239D01*
X169262362Y-109986810D01*
X169257515Y-109925952D01*
X169250860Y-109876490D01*
X169247705Y-109861350D01*
X169213871Y-109764420D01*
X169165734Y-109686164D01*
X169104656Y-109627845D01*
X169032002Y-109590724D01*
X168949136Y-109576066D01*
X168939401Y-109575878D01*
X168906151Y-109578208D01*
X168906151Y-109781476D01*
X168956057Y-109782217D01*
X168996146Y-109798620D01*
X169034151Y-109839633D01*
X169062128Y-109899866D01*
X169079053Y-109974790D01*
X169083899Y-110059875D01*
X169075728Y-110150050D01*
X169056047Y-110231804D01*
X169027618Y-110291646D01*
X168990980Y-110328491D01*
X168985118Y-110331809D01*
X168932726Y-110348718D01*
X168884993Y-110341280D01*
X168847509Y-110317450D01*
X168812740Y-110273419D01*
X168788408Y-110212453D01*
X168774358Y-110140172D01*
X168770435Y-110062193D01*
X168776483Y-109984136D01*
X168792347Y-109911618D01*
X168817872Y-109850260D01*
X168852902Y-109805678D01*
X168861855Y-109798689D01*
X168906151Y-109781476D01*
X168906151Y-109578208D01*
X168874335Y-109580438D01*
X168822547Y-109597501D01*
X168773945Y-109631194D01*
X168750050Y-109653243D01*
X168698050Y-109704010D01*
X168654033Y-109659993D01*
X168595088Y-109617172D01*
X168529529Y-109596369D01*
X168462306Y-109597112D01*
X168398369Y-109618927D01*
X168342668Y-109661339D01*
X168318090Y-109692139D01*
X168294160Y-109717565D01*
X168275000Y-109720035D01*
X168192776Y-109697997D01*
X168135972Y-109697517D01*
X168135972Y-109895044D01*
X168192685Y-109899840D01*
X168245082Y-109920789D01*
X168287819Y-109957372D01*
X168315546Y-110009068D01*
X168317077Y-110014279D01*
X168320564Y-110054829D01*
X168315043Y-110104618D01*
X168302575Y-110150251D01*
X168293231Y-110169148D01*
X168250716Y-110212541D01*
X168195528Y-110238275D01*
X168134912Y-110244450D01*
X168076116Y-110229167D01*
X168072053Y-110227140D01*
X168018953Y-110186934D01*
X167984992Y-110134088D01*
X167971825Y-110073746D01*
X167981109Y-110011054D01*
X167993406Y-109982783D01*
X168030986Y-109935995D01*
X168080290Y-109906923D01*
X168135972Y-109895044D01*
X168135972Y-109697517D01*
X168106296Y-109697266D01*
X168021197Y-109716255D01*
X167943115Y-109753376D01*
X167877685Y-109807043D01*
X167851727Y-109839222D01*
X167824238Y-109890873D01*
X167802141Y-109954465D01*
X167787953Y-110020165D01*
X167784189Y-110078142D01*
X167785997Y-110095989D01*
X167789866Y-110127822D01*
X167783783Y-110143436D01*
X167762922Y-110151487D01*
X167753918Y-110153533D01*
X167711126Y-110173042D01*
X167667748Y-110208778D01*
X167631322Y-110252904D01*
X167609388Y-110297582D01*
X167607411Y-110305855D01*
X167602279Y-110374525D01*
X167610386Y-110443232D01*
G36*
X167453484Y-108390528D02*
X167458152Y-108430004D01*
X167464090Y-108499770D01*
X167464985Y-108565597D01*
X167461572Y-108610400D01*
X167452664Y-108690430D01*
X167453455Y-108749227D01*
X167465049Y-108789456D01*
X167488546Y-108813783D01*
X167525050Y-108824874D01*
X167550807Y-108826300D01*
X167593892Y-108819324D01*
X167621688Y-108796742D01*
X167635794Y-108756074D01*
X167637807Y-108694838D01*
X167637633Y-108691452D01*
X167636367Y-108649296D01*
X167639944Y-108624860D01*
X167650703Y-108610587D01*
X167665400Y-108601744D01*
X167686262Y-108597512D01*
X167729014Y-108593846D01*
X167790152Y-108590756D01*
X167866170Y-108588250D01*
X167953566Y-108586339D01*
X168048835Y-108585032D01*
X168148472Y-108584340D01*
X168248973Y-108584271D01*
X168346834Y-108584835D01*
X168438551Y-108586043D01*
X168520620Y-108587903D01*
X168589536Y-108590426D01*
X168641795Y-108593621D01*
X168673893Y-108597497D01*
X168679504Y-108598942D01*
X168700702Y-108607426D01*
X168712664Y-108618654D01*
X168718032Y-108639207D01*
X168719448Y-108675667D01*
X168719500Y-108698574D01*
X168721217Y-108749462D01*
X168727325Y-108781703D01*
X168739255Y-108801879D01*
X168742725Y-108805281D01*
X168778832Y-108822861D01*
X168823820Y-108825357D01*
X168866495Y-108813245D01*
X168886351Y-108799148D01*
X168898802Y-108784952D01*
X168906057Y-108769005D01*
X168908761Y-108745482D01*
X168907562Y-108708557D01*
X168903104Y-108652402D01*
X168902888Y-108649923D01*
X168895855Y-108558122D01*
X168892642Y-108482912D01*
X168893230Y-108415777D01*
X168897599Y-108348199D01*
X168902098Y-108303261D01*
X168907076Y-108253562D01*
X168907776Y-108221989D01*
X168903009Y-108201458D01*
X168891586Y-108184882D01*
X168880240Y-108173086D01*
X168839177Y-108146114D01*
X168796725Y-108144004D01*
X168755816Y-108166788D01*
X168750672Y-108171672D01*
X168731489Y-108196034D01*
X168722103Y-108225458D01*
X168719505Y-108269710D01*
X168719500Y-108272825D01*
X168717871Y-108315258D01*
X168711276Y-108340156D01*
X168697147Y-108355268D01*
X168690925Y-108359128D01*
X168675943Y-108363871D01*
X168647801Y-108367793D01*
X168604496Y-108370976D01*
X168544027Y-108373501D01*
X168464390Y-108375449D01*
X168363585Y-108376900D01*
X168239608Y-108377937D01*
X168224200Y-108378030D01*
X168122242Y-108378488D01*
X168029408Y-108378628D01*
X167948481Y-108378469D01*
X167882245Y-108378027D01*
X167833483Y-108377320D01*
X167804980Y-108376366D01*
X167798750Y-108375377D01*
X167813307Y-108370843D01*
X167849672Y-108360042D01*
X167905246Y-108343732D01*
X167977428Y-108322671D01*
X168063618Y-108297617D01*
X168161214Y-108269327D01*
X168267616Y-108238561D01*
X168325800Y-108221766D01*
X168436464Y-108189617D01*
X168540217Y-108159041D01*
X168634363Y-108130865D01*
X168716202Y-108105917D01*
X168783039Y-108085024D01*
X168832176Y-108069010D01*
X168860914Y-108058705D01*
X168866767Y-108055967D01*
X168900118Y-108020122D01*
X168918575Y-107970582D01*
X168920096Y-107915563D01*
X168910615Y-107879709D01*
X168893421Y-107851079D01*
X168881631Y-107838506D01*
X168865793Y-107831847D01*
X168828133Y-107819122D01*
X168771283Y-107801133D01*
X168697874Y-107778678D01*
X168610539Y-107752557D01*
X168511911Y-107723570D01*
X168404620Y-107692516D01*
X168343635Y-107675062D01*
X168233090Y-107643395D01*
X168130048Y-107613577D01*
X168037094Y-107586378D01*
X167956813Y-107562569D01*
X167891788Y-107542919D01*
X167844603Y-107528197D01*
X167817842Y-107519174D01*
X167812750Y-107516906D01*
X167821748Y-107514546D01*
X167852699Y-107512947D01*
X167902168Y-107512050D01*
X167966723Y-107511793D01*
X168042928Y-107512117D01*
X168127350Y-107512961D01*
X168216554Y-107514267D01*
X168307108Y-107515973D01*
X168395576Y-107518020D01*
X168478526Y-107520348D01*
X168552522Y-107522896D01*
X168614131Y-107525605D01*
X168659919Y-107528415D01*
X168686452Y-107531265D01*
X168690531Y-107532252D01*
X168707134Y-107541699D01*
X168715215Y-107558871D01*
X168717263Y-107591078D01*
X168716952Y-107609810D01*
X168720131Y-107669748D01*
X168734708Y-107709661D01*
X168762648Y-107733107D01*
X168789560Y-107741327D01*
X168838296Y-107740099D01*
X168878159Y-107719654D01*
X168902774Y-107683582D01*
X168904933Y-107676356D01*
X168906828Y-107648827D01*
X168904580Y-107604867D01*
X168898692Y-107553018D01*
X168897050Y-107541997D01*
X168887440Y-107399588D01*
X168891043Y-107336055D01*
X168898302Y-107253275D01*
X168901827Y-107191999D01*
X168901436Y-107148582D01*
X168896948Y-107119378D01*
X168888182Y-107100740D01*
X168878874Y-107091636D01*
X168838634Y-107075727D01*
X168792560Y-107076435D01*
X168752256Y-107093024D01*
X168743798Y-107100201D01*
X168727080Y-107123503D01*
X168720119Y-107154812D01*
X168719973Y-107192276D01*
X168721225Y-107232657D01*
X168721456Y-107263202D01*
X168721075Y-107272482D01*
X168716719Y-107283017D01*
X168704714Y-107291710D01*
X168682937Y-107298729D01*
X168649264Y-107304239D01*
X168601574Y-107308406D01*
X168537741Y-107311397D01*
X168455643Y-107313377D01*
X168353158Y-107314512D01*
X168228161Y-107314969D01*
X168177446Y-107315000D01*
X168052176Y-107314840D01*
X167949780Y-107314300D01*
X167867737Y-107313284D01*
X167803523Y-107311697D01*
X167754614Y-107309446D01*
X167718489Y-107306435D01*
X167692624Y-107302571D01*
X167674496Y-107297758D01*
X167669874Y-107295984D01*
X167624364Y-107276969D01*
X167633183Y-107206383D01*
X167635262Y-107145191D01*
X167622887Y-107103838D01*
X167595015Y-107080592D01*
X167553234Y-107073700D01*
X167521510Y-107074482D01*
X167497587Y-107078928D01*
X167480339Y-107090188D01*
X167468637Y-107111410D01*
X167461356Y-107145744D01*
X167457369Y-107196340D01*
X167455549Y-107266347D01*
X167454832Y-107348733D01*
X167454934Y-107425399D01*
X167456108Y-107494272D01*
X167458192Y-107550942D01*
X167461025Y-107591000D01*
X167464418Y-107609983D01*
X167484427Y-107633709D01*
X167501748Y-107645975D01*
X167519307Y-107652247D01*
X167558695Y-107664396D01*
X167617222Y-107681652D01*
X167692203Y-107703244D01*
X167780949Y-107728402D01*
X167880773Y-107756356D01*
X167988989Y-107786336D01*
X168049609Y-107802997D01*
X168159509Y-107833347D01*
X168261000Y-107861814D01*
X168351642Y-107887680D01*
X168428991Y-107910228D01*
X168490603Y-107928740D01*
X168534036Y-107942498D01*
X168556847Y-107950786D01*
X168559627Y-107952829D01*
X168545270Y-107957628D01*
X168509066Y-107968490D01*
X168453636Y-107984662D01*
X168381601Y-108005391D01*
X168295583Y-108029924D01*
X168198204Y-108057509D01*
X168092085Y-108087394D01*
X168040682Y-108101811D01*
X167931007Y-108132650D01*
X167828531Y-108161693D01*
X167735934Y-108188164D01*
X167655892Y-108211287D01*
X167591086Y-108230285D01*
X167544193Y-108244384D01*
X167517891Y-108252807D01*
X167513490Y-108254537D01*
X167490212Y-108271776D01*
X167469089Y-108292303D01*
X167457445Y-108307391D01*
X167451292Y-108324639D01*
X167450137Y-108350276D01*
X167453484Y-108390528D01*
X167453484Y-108390528D01*
G37*
X167453484Y-108390528D02*
X167458152Y-108430004D01*
X167464090Y-108499770D01*
X167464985Y-108565597D01*
X167461572Y-108610400D01*
X167452664Y-108690430D01*
X167453455Y-108749227D01*
X167465049Y-108789456D01*
X167488546Y-108813783D01*
X167525050Y-108824874D01*
X167550807Y-108826300D01*
X167593892Y-108819324D01*
X167621688Y-108796742D01*
X167635794Y-108756074D01*
X167637807Y-108694838D01*
X167637633Y-108691452D01*
X167636367Y-108649296D01*
X167639944Y-108624860D01*
X167650703Y-108610587D01*
X167665400Y-108601744D01*
X167686262Y-108597512D01*
X167729014Y-108593846D01*
X167790152Y-108590756D01*
X167866170Y-108588250D01*
X167953566Y-108586339D01*
X168048835Y-108585032D01*
X168148472Y-108584340D01*
X168248973Y-108584271D01*
X168346834Y-108584835D01*
X168438551Y-108586043D01*
X168520620Y-108587903D01*
X168589536Y-108590426D01*
X168641795Y-108593621D01*
X168673893Y-108597497D01*
X168679504Y-108598942D01*
X168700702Y-108607426D01*
X168712664Y-108618654D01*
X168718032Y-108639207D01*
X168719448Y-108675667D01*
X168719500Y-108698574D01*
X168721217Y-108749462D01*
X168727325Y-108781703D01*
X168739255Y-108801879D01*
X168742725Y-108805281D01*
X168778832Y-108822861D01*
X168823820Y-108825357D01*
X168866495Y-108813245D01*
X168886351Y-108799148D01*
X168898802Y-108784952D01*
X168906057Y-108769005D01*
X168908761Y-108745482D01*
X168907562Y-108708557D01*
X168903104Y-108652402D01*
X168902888Y-108649923D01*
X168895855Y-108558122D01*
X168892642Y-108482912D01*
X168893230Y-108415777D01*
X168897599Y-108348199D01*
X168902098Y-108303261D01*
X168907076Y-108253562D01*
X168907776Y-108221989D01*
X168903009Y-108201458D01*
X168891586Y-108184882D01*
X168880240Y-108173086D01*
X168839177Y-108146114D01*
X168796725Y-108144004D01*
X168755816Y-108166788D01*
X168750672Y-108171672D01*
X168731489Y-108196034D01*
X168722103Y-108225458D01*
X168719505Y-108269710D01*
X168719500Y-108272825D01*
X168717871Y-108315258D01*
X168711276Y-108340156D01*
X168697147Y-108355268D01*
X168690925Y-108359128D01*
X168675943Y-108363871D01*
X168647801Y-108367793D01*
X168604496Y-108370976D01*
X168544027Y-108373501D01*
X168464390Y-108375449D01*
X168363585Y-108376900D01*
X168239608Y-108377937D01*
X168224200Y-108378030D01*
X168122242Y-108378488D01*
X168029408Y-108378628D01*
X167948481Y-108378469D01*
X167882245Y-108378027D01*
X167833483Y-108377320D01*
X167804980Y-108376366D01*
X167798750Y-108375377D01*
X167813307Y-108370843D01*
X167849672Y-108360042D01*
X167905246Y-108343732D01*
X167977428Y-108322671D01*
X168063618Y-108297617D01*
X168161214Y-108269327D01*
X168267616Y-108238561D01*
X168325800Y-108221766D01*
X168436464Y-108189617D01*
X168540217Y-108159041D01*
X168634363Y-108130865D01*
X168716202Y-108105917D01*
X168783039Y-108085024D01*
X168832176Y-108069010D01*
X168860914Y-108058705D01*
X168866767Y-108055967D01*
X168900118Y-108020122D01*
X168918575Y-107970582D01*
X168920096Y-107915563D01*
X168910615Y-107879709D01*
X168893421Y-107851079D01*
X168881631Y-107838506D01*
X168865793Y-107831847D01*
X168828133Y-107819122D01*
X168771283Y-107801133D01*
X168697874Y-107778678D01*
X168610539Y-107752557D01*
X168511911Y-107723570D01*
X168404620Y-107692516D01*
X168343635Y-107675062D01*
X168233090Y-107643395D01*
X168130048Y-107613577D01*
X168037094Y-107586378D01*
X167956813Y-107562569D01*
X167891788Y-107542919D01*
X167844603Y-107528197D01*
X167817842Y-107519174D01*
X167812750Y-107516906D01*
X167821748Y-107514546D01*
X167852699Y-107512947D01*
X167902168Y-107512050D01*
X167966723Y-107511793D01*
X168042928Y-107512117D01*
X168127350Y-107512961D01*
X168216554Y-107514267D01*
X168307108Y-107515973D01*
X168395576Y-107518020D01*
X168478526Y-107520348D01*
X168552522Y-107522896D01*
X168614131Y-107525605D01*
X168659919Y-107528415D01*
X168686452Y-107531265D01*
X168690531Y-107532252D01*
X168707134Y-107541699D01*
X168715215Y-107558871D01*
X168717263Y-107591078D01*
X168716952Y-107609810D01*
X168720131Y-107669748D01*
X168734708Y-107709661D01*
X168762648Y-107733107D01*
X168789560Y-107741327D01*
X168838296Y-107740099D01*
X168878159Y-107719654D01*
X168902774Y-107683582D01*
X168904933Y-107676356D01*
X168906828Y-107648827D01*
X168904580Y-107604867D01*
X168898692Y-107553018D01*
X168897050Y-107541997D01*
X168887440Y-107399588D01*
X168891043Y-107336055D01*
X168898302Y-107253275D01*
X168901827Y-107191999D01*
X168901436Y-107148582D01*
X168896948Y-107119378D01*
X168888182Y-107100740D01*
X168878874Y-107091636D01*
X168838634Y-107075727D01*
X168792560Y-107076435D01*
X168752256Y-107093024D01*
X168743798Y-107100201D01*
X168727080Y-107123503D01*
X168720119Y-107154812D01*
X168719973Y-107192276D01*
X168721225Y-107232657D01*
X168721456Y-107263202D01*
X168721075Y-107272482D01*
X168716719Y-107283017D01*
X168704714Y-107291710D01*
X168682937Y-107298729D01*
X168649264Y-107304239D01*
X168601574Y-107308406D01*
X168537741Y-107311397D01*
X168455643Y-107313377D01*
X168353158Y-107314512D01*
X168228161Y-107314969D01*
X168177446Y-107315000D01*
X168052176Y-107314840D01*
X167949780Y-107314300D01*
X167867737Y-107313284D01*
X167803523Y-107311697D01*
X167754614Y-107309446D01*
X167718489Y-107306435D01*
X167692624Y-107302571D01*
X167674496Y-107297758D01*
X167669874Y-107295984D01*
X167624364Y-107276969D01*
X167633183Y-107206383D01*
X167635262Y-107145191D01*
X167622887Y-107103838D01*
X167595015Y-107080592D01*
X167553234Y-107073700D01*
X167521510Y-107074482D01*
X167497587Y-107078928D01*
X167480339Y-107090188D01*
X167468637Y-107111410D01*
X167461356Y-107145744D01*
X167457369Y-107196340D01*
X167455549Y-107266347D01*
X167454832Y-107348733D01*
X167454934Y-107425399D01*
X167456108Y-107494272D01*
X167458192Y-107550942D01*
X167461025Y-107591000D01*
X167464418Y-107609983D01*
X167484427Y-107633709D01*
X167501748Y-107645975D01*
X167519307Y-107652247D01*
X167558695Y-107664396D01*
X167617222Y-107681652D01*
X167692203Y-107703244D01*
X167780949Y-107728402D01*
X167880773Y-107756356D01*
X167988989Y-107786336D01*
X168049609Y-107802997D01*
X168159509Y-107833347D01*
X168261000Y-107861814D01*
X168351642Y-107887680D01*
X168428991Y-107910228D01*
X168490603Y-107928740D01*
X168534036Y-107942498D01*
X168556847Y-107950786D01*
X168559627Y-107952829D01*
X168545270Y-107957628D01*
X168509066Y-107968490D01*
X168453636Y-107984662D01*
X168381601Y-108005391D01*
X168295583Y-108029924D01*
X168198204Y-108057509D01*
X168092085Y-108087394D01*
X168040682Y-108101811D01*
X167931007Y-108132650D01*
X167828531Y-108161693D01*
X167735934Y-108188164D01*
X167655892Y-108211287D01*
X167591086Y-108230285D01*
X167544193Y-108244384D01*
X167517891Y-108252807D01*
X167513490Y-108254537D01*
X167490212Y-108271776D01*
X167469089Y-108292303D01*
X167457445Y-108307391D01*
X167451292Y-108324639D01*
X167450137Y-108350276D01*
X167453484Y-108390528D01*
G36*
X167502382Y-112177766D02*
X167511155Y-112204018D01*
X167530409Y-112221366D01*
X167563931Y-112231879D01*
X167615512Y-112237626D01*
X167683401Y-112240517D01*
X167830500Y-112244785D01*
X167830500Y-112368265D01*
X167831912Y-112436209D01*
X167837401Y-112483139D01*
X167848843Y-112513344D01*
X167868118Y-112531115D01*
X167897101Y-112540742D01*
X167906745Y-112542487D01*
X167947991Y-112542521D01*
X167983670Y-112524091D01*
X167986078Y-112522225D01*
X168002024Y-112508505D01*
X168012187Y-112493848D01*
X168017868Y-112472537D01*
X168020368Y-112438855D01*
X168020986Y-112387082D01*
X168021000Y-112368678D01*
X168021000Y-112242600D01*
X168326207Y-112242600D01*
X168435965Y-112243045D01*
X168523150Y-112244702D01*
X168590581Y-112248052D01*
X168641075Y-112253574D01*
X168677449Y-112261751D01*
X168702521Y-112273062D01*
X168719108Y-112287988D01*
X168730028Y-112307011D01*
X168731966Y-112311835D01*
X168736545Y-112356871D01*
X168719270Y-112399964D01*
X168700546Y-112420319D01*
X168674774Y-112430601D01*
X168625197Y-112439115D01*
X168553364Y-112445608D01*
X168540466Y-112446410D01*
X168473673Y-112451298D01*
X168427529Y-112457285D01*
X168397286Y-112465271D01*
X168378195Y-112476161D01*
X168376593Y-112477556D01*
X168355681Y-112511916D01*
X168352037Y-112554754D01*
X168365535Y-112596041D01*
X168378317Y-112612617D01*
X168392226Y-112624647D01*
X168408485Y-112632083D01*
X168432566Y-112635615D01*
X168469939Y-112635933D01*
X168526075Y-112633726D01*
X168540242Y-112633032D01*
X168654752Y-112621330D01*
X168747311Y-112598134D01*
X168819058Y-112562539D01*
X168871129Y-112513637D01*
X168904664Y-112450520D01*
X168920800Y-112372283D01*
X168922700Y-112328248D01*
X168917621Y-112260986D01*
X168900713Y-112205353D01*
X168894125Y-112191418D01*
X168849163Y-112130104D01*
X168784500Y-112083922D01*
X168733693Y-112062951D01*
X168705527Y-112057977D01*
X168654475Y-112053391D01*
X168583052Y-112049327D01*
X168493773Y-112045919D01*
X168389149Y-112043302D01*
X168354375Y-112042678D01*
X168021000Y-112037219D01*
X168021000Y-111993024D01*
X168014181Y-111941278D01*
X167992136Y-111907406D01*
X167960051Y-111889792D01*
X167916905Y-111884459D01*
X167885484Y-111893394D01*
X167852956Y-111913190D01*
X167835929Y-111942345D01*
X167830546Y-111987939D01*
X167830500Y-111994357D01*
X167830500Y-112036137D01*
X167691097Y-112041880D01*
X167616653Y-112046515D01*
X167564018Y-112054510D01*
X167529645Y-112067700D01*
X167509989Y-112087917D01*
X167501505Y-112116996D01*
X167500300Y-112140540D01*
X167502382Y-112177766D01*
X167502382Y-112177766D01*
G37*
X167502382Y-112177766D02*
X167511155Y-112204018D01*
X167530409Y-112221366D01*
X167563931Y-112231879D01*
X167615512Y-112237626D01*
X167683401Y-112240517D01*
X167830500Y-112244785D01*
X167830500Y-112368265D01*
X167831912Y-112436209D01*
X167837401Y-112483139D01*
X167848843Y-112513344D01*
X167868118Y-112531115D01*
X167897101Y-112540742D01*
X167906745Y-112542487D01*
X167947991Y-112542521D01*
X167983670Y-112524091D01*
X167986078Y-112522225D01*
X168002024Y-112508505D01*
X168012187Y-112493848D01*
X168017868Y-112472537D01*
X168020368Y-112438855D01*
X168020986Y-112387082D01*
X168021000Y-112368678D01*
X168021000Y-112242600D01*
X168326207Y-112242600D01*
X168435965Y-112243045D01*
X168523150Y-112244702D01*
X168590581Y-112248052D01*
X168641075Y-112253574D01*
X168677449Y-112261751D01*
X168702521Y-112273062D01*
X168719108Y-112287988D01*
X168730028Y-112307011D01*
X168731966Y-112311835D01*
X168736545Y-112356871D01*
X168719270Y-112399964D01*
X168700546Y-112420319D01*
X168674774Y-112430601D01*
X168625197Y-112439115D01*
X168553364Y-112445608D01*
X168540466Y-112446410D01*
X168473673Y-112451298D01*
X168427529Y-112457285D01*
X168397286Y-112465271D01*
X168378195Y-112476161D01*
X168376593Y-112477556D01*
X168355681Y-112511916D01*
X168352037Y-112554754D01*
X168365535Y-112596041D01*
X168378317Y-112612617D01*
X168392226Y-112624647D01*
X168408485Y-112632083D01*
X168432566Y-112635615D01*
X168469939Y-112635933D01*
X168526075Y-112633726D01*
X168540242Y-112633032D01*
X168654752Y-112621330D01*
X168747311Y-112598134D01*
X168819058Y-112562539D01*
X168871129Y-112513637D01*
X168904664Y-112450520D01*
X168920800Y-112372283D01*
X168922700Y-112328248D01*
X168917621Y-112260986D01*
X168900713Y-112205353D01*
X168894125Y-112191418D01*
X168849163Y-112130104D01*
X168784500Y-112083922D01*
X168733693Y-112062951D01*
X168705527Y-112057977D01*
X168654475Y-112053391D01*
X168583052Y-112049327D01*
X168493773Y-112045919D01*
X168389149Y-112043302D01*
X168354375Y-112042678D01*
X168021000Y-112037219D01*
X168021000Y-111993024D01*
X168014181Y-111941278D01*
X167992136Y-111907406D01*
X167960051Y-111889792D01*
X167916905Y-111884459D01*
X167885484Y-111893394D01*
X167852956Y-111913190D01*
X167835929Y-111942345D01*
X167830546Y-111987939D01*
X167830500Y-111994357D01*
X167830500Y-112036137D01*
X167691097Y-112041880D01*
X167616653Y-112046515D01*
X167564018Y-112054510D01*
X167529645Y-112067700D01*
X167509989Y-112087917D01*
X167501505Y-112116996D01*
X167500300Y-112140540D01*
X167502382Y-112177766D01*
G36*
X167824622Y-109157766D02*
X167828485Y-109214567D01*
X167834280Y-109262618D01*
X167841754Y-109295541D01*
X167846986Y-109305429D01*
X167855617Y-109310643D01*
X167871623Y-109314774D01*
X167897541Y-109317920D01*
X167935910Y-109320181D01*
X167989268Y-109321658D01*
X168060152Y-109322449D01*
X168151100Y-109322654D01*
X168264651Y-109322372D01*
X168277523Y-109322321D01*
X168378072Y-109322145D01*
X168471012Y-109322441D01*
X168553155Y-109323163D01*
X168621314Y-109324264D01*
X168672300Y-109325700D01*
X168702926Y-109327424D01*
X168710106Y-109328539D01*
X168722432Y-109338680D01*
X168726328Y-109360555D01*
X168723542Y-109397298D01*
X168720974Y-109437816D01*
X168726904Y-109463816D01*
X168743318Y-109485118D01*
X168782128Y-109507574D01*
X168827382Y-109509297D01*
X168870614Y-109490118D01*
X168873668Y-109487727D01*
X168888728Y-109473397D01*
X168897230Y-109456529D01*
X168900523Y-109430487D01*
X168899958Y-109388632D01*
X168898854Y-109363902D01*
X168895503Y-109291064D01*
X168893636Y-109236894D01*
X168893315Y-109194698D01*
X168894605Y-109157784D01*
X168897571Y-109119460D01*
X168901582Y-109079585D01*
X168906110Y-109028858D01*
X168906042Y-108996049D01*
X168900555Y-108973959D01*
X168888820Y-108955387D01*
X168887089Y-108953220D01*
X168858039Y-108929981D01*
X168817066Y-108922832D01*
X168814750Y-108922820D01*
X168767228Y-108931918D01*
X168736531Y-108959548D01*
X168722287Y-109006206D01*
X168721736Y-109047941D01*
X168725850Y-109112050D01*
X168001950Y-109112050D01*
X168005729Y-109052020D01*
X168002973Y-108992515D01*
X167985251Y-108951953D01*
X167951557Y-108928057D01*
X167950852Y-108927787D01*
X167909938Y-108923346D01*
X167869056Y-108935912D01*
X167838736Y-108961637D01*
X167833598Y-108970620D01*
X167827180Y-108998641D01*
X167823714Y-109043424D01*
X167822947Y-109098592D01*
X167824622Y-109157766D01*
X167824622Y-109157766D01*
G37*
X167824622Y-109157766D02*
X167828485Y-109214567D01*
X167834280Y-109262618D01*
X167841754Y-109295541D01*
X167846986Y-109305429D01*
X167855617Y-109310643D01*
X167871623Y-109314774D01*
X167897541Y-109317920D01*
X167935910Y-109320181D01*
X167989268Y-109321658D01*
X168060152Y-109322449D01*
X168151100Y-109322654D01*
X168264651Y-109322372D01*
X168277523Y-109322321D01*
X168378072Y-109322145D01*
X168471012Y-109322441D01*
X168553155Y-109323163D01*
X168621314Y-109324264D01*
X168672300Y-109325700D01*
X168702926Y-109327424D01*
X168710106Y-109328539D01*
X168722432Y-109338680D01*
X168726328Y-109360555D01*
X168723542Y-109397298D01*
X168720974Y-109437816D01*
X168726904Y-109463816D01*
X168743318Y-109485118D01*
X168782128Y-109507574D01*
X168827382Y-109509297D01*
X168870614Y-109490118D01*
X168873668Y-109487727D01*
X168888728Y-109473397D01*
X168897230Y-109456529D01*
X168900523Y-109430487D01*
X168899958Y-109388632D01*
X168898854Y-109363902D01*
X168895503Y-109291064D01*
X168893636Y-109236894D01*
X168893315Y-109194698D01*
X168894605Y-109157784D01*
X168897571Y-109119460D01*
X168901582Y-109079585D01*
X168906110Y-109028858D01*
X168906042Y-108996049D01*
X168900555Y-108973959D01*
X168888820Y-108955387D01*
X168887089Y-108953220D01*
X168858039Y-108929981D01*
X168817066Y-108922832D01*
X168814750Y-108922820D01*
X168767228Y-108931918D01*
X168736531Y-108959548D01*
X168722287Y-109006206D01*
X168721736Y-109047941D01*
X168725850Y-109112050D01*
X168001950Y-109112050D01*
X168005729Y-109052020D01*
X168002973Y-108992515D01*
X167985251Y-108951953D01*
X167951557Y-108928057D01*
X167950852Y-108927787D01*
X167909938Y-108923346D01*
X167869056Y-108935912D01*
X167838736Y-108961637D01*
X167833598Y-108970620D01*
X167827180Y-108998641D01*
X167823714Y-109043424D01*
X167822947Y-109098592D01*
X167824622Y-109157766D01*
G36*
X167453738Y-110831370D02*
X167453965Y-110846637D01*
X167455756Y-110915323D01*
X167458903Y-110962489D01*
X167463904Y-110991998D01*
X167471258Y-111007716D01*
X167475166Y-111011133D01*
X167494049Y-111015356D01*
X167533292Y-111018944D01*
X167587857Y-111021604D01*
X167652706Y-111023039D01*
X167681275Y-111023205D01*
X167746979Y-111023643D01*
X167802613Y-111024718D01*
X167843748Y-111026289D01*
X167865957Y-111028214D01*
X167868600Y-111029186D01*
X167862114Y-111042274D01*
X167845803Y-111068357D01*
X167837617Y-111080627D01*
X167803631Y-111151689D01*
X167787183Y-111234317D01*
X167788229Y-111321745D01*
X167806725Y-111407209D01*
X167840235Y-111480123D01*
X167884103Y-111533650D01*
X167943532Y-111582600D01*
X168008827Y-111619721D01*
X168044148Y-111632587D01*
X168070511Y-111636494D01*
X168117796Y-111640078D01*
X168181524Y-111643138D01*
X168257218Y-111645476D01*
X168340400Y-111646892D01*
X168370250Y-111647131D01*
X168454310Y-111647969D01*
X168531808Y-111649423D01*
X168598429Y-111651359D01*
X168649859Y-111653641D01*
X168681784Y-111656136D01*
X168687750Y-111657076D01*
X168711486Y-111664296D01*
X168721690Y-111677343D01*
X168722777Y-111704375D01*
X168721729Y-111719860D01*
X168725089Y-111776871D01*
X168745135Y-111814918D01*
X168781725Y-111833804D01*
X168805517Y-111836005D01*
X168837416Y-111834388D01*
X168861702Y-111827826D01*
X168879365Y-111813311D01*
X168891391Y-111787835D01*
X168898768Y-111748388D01*
X168902483Y-111691963D01*
X168903524Y-111615550D01*
X168903100Y-111538674D01*
X168900974Y-111310999D01*
X168866678Y-111281499D01*
X168828432Y-111257073D01*
X168793057Y-111255827D01*
X168753850Y-111277645D01*
X168751461Y-111279502D01*
X168731220Y-111297731D01*
X168722084Y-111316580D01*
X168721427Y-111345224D01*
X168724390Y-111374169D01*
X168732284Y-111441333D01*
X168689398Y-111449378D01*
X168664041Y-111451586D01*
X168617783Y-111453143D01*
X168555115Y-111453996D01*
X168480526Y-111454095D01*
X168398509Y-111453386D01*
X168375030Y-111453039D01*
X168275839Y-111451058D01*
X168198512Y-111448202D01*
X168139512Y-111443705D01*
X168095303Y-111436801D01*
X168062349Y-111426727D01*
X168037113Y-111412717D01*
X168016059Y-111394006D01*
X167996721Y-111371191D01*
X167980345Y-111342881D01*
X167972193Y-111305990D01*
X167970200Y-111258515D01*
X167978340Y-111184929D01*
X168003780Y-111127388D01*
X168048053Y-111084369D01*
X168112689Y-111054347D01*
X168193099Y-111036657D01*
X168236301Y-111032252D01*
X168295550Y-111028724D01*
X168365474Y-111026125D01*
X168440696Y-111024507D01*
X168515845Y-111023924D01*
X168585545Y-111024427D01*
X168644424Y-111026069D01*
X168687106Y-111028903D01*
X168704578Y-111031654D01*
X168722222Y-111038771D01*
X168729343Y-111052459D01*
X168728342Y-111080257D01*
X168725950Y-111098869D01*
X168726122Y-111155098D01*
X168744237Y-111193737D01*
X168779926Y-111214293D01*
X168814639Y-111217677D01*
X168842769Y-111215957D01*
X168864085Y-111210517D01*
X168879551Y-111198231D01*
X168890134Y-111175968D01*
X168896801Y-111140602D01*
X168900518Y-111089004D01*
X168902250Y-111018046D01*
X168902929Y-110931861D01*
X168903249Y-110847072D01*
X168902967Y-110783939D01*
X168901713Y-110738716D01*
X168899118Y-110707661D01*
X168894812Y-110687029D01*
X168888426Y-110673076D01*
X168879590Y-110662058D01*
X168875921Y-110658275D01*
X168836704Y-110634908D01*
X168791114Y-110631425D01*
X168750502Y-110647727D01*
X168735657Y-110664491D01*
X168728060Y-110691627D01*
X168725777Y-110736321D01*
X168725767Y-110739802D01*
X168725685Y-110813850D01*
X168630517Y-110821715D01*
X168587368Y-110824124D01*
X168524219Y-110826100D01*
X168445231Y-110827642D01*
X168354562Y-110828748D01*
X168256371Y-110829418D01*
X168154820Y-110829649D01*
X168054065Y-110829442D01*
X167958269Y-110828793D01*
X167871589Y-110827703D01*
X167798185Y-110826170D01*
X167742216Y-110824193D01*
X167709850Y-110821996D01*
X167633650Y-110813850D01*
X167632464Y-110763050D01*
X167631207Y-110724737D01*
X167629613Y-110694869D01*
X167629289Y-110690932D01*
X167615401Y-110657856D01*
X167585883Y-110636923D01*
X167548128Y-110629542D01*
X167509527Y-110637123D01*
X167477471Y-110661075D01*
X167476846Y-110661859D01*
X167466000Y-110678330D01*
X167458911Y-110698312D01*
X167454934Y-110727011D01*
X167453424Y-110769629D01*
X167453738Y-110831370D01*
X167453738Y-110831370D01*
G37*
X167453738Y-110831370D02*
X167453965Y-110846637D01*
X167455756Y-110915323D01*
X167458903Y-110962489D01*
X167463904Y-110991998D01*
X167471258Y-111007716D01*
X167475166Y-111011133D01*
X167494049Y-111015356D01*
X167533292Y-111018944D01*
X167587857Y-111021604D01*
X167652706Y-111023039D01*
X167681275Y-111023205D01*
X167746979Y-111023643D01*
X167802613Y-111024718D01*
X167843748Y-111026289D01*
X167865957Y-111028214D01*
X167868600Y-111029186D01*
X167862114Y-111042274D01*
X167845803Y-111068357D01*
X167837617Y-111080627D01*
X167803631Y-111151689D01*
X167787183Y-111234317D01*
X167788229Y-111321745D01*
X167806725Y-111407209D01*
X167840235Y-111480123D01*
X167884103Y-111533650D01*
X167943532Y-111582600D01*
X168008827Y-111619721D01*
X168044148Y-111632587D01*
X168070511Y-111636494D01*
X168117796Y-111640078D01*
X168181524Y-111643138D01*
X168257218Y-111645476D01*
X168340400Y-111646892D01*
X168370250Y-111647131D01*
X168454310Y-111647969D01*
X168531808Y-111649423D01*
X168598429Y-111651359D01*
X168649859Y-111653641D01*
X168681784Y-111656136D01*
X168687750Y-111657076D01*
X168711486Y-111664296D01*
X168721690Y-111677343D01*
X168722777Y-111704375D01*
X168721729Y-111719860D01*
X168725089Y-111776871D01*
X168745135Y-111814918D01*
X168781725Y-111833804D01*
X168805517Y-111836005D01*
X168837416Y-111834388D01*
X168861702Y-111827826D01*
X168879365Y-111813311D01*
X168891391Y-111787835D01*
X168898768Y-111748388D01*
X168902483Y-111691963D01*
X168903524Y-111615550D01*
X168903100Y-111538674D01*
X168900974Y-111310999D01*
X168866678Y-111281499D01*
X168828432Y-111257073D01*
X168793057Y-111255827D01*
X168753850Y-111277645D01*
X168751461Y-111279502D01*
X168731220Y-111297731D01*
X168722084Y-111316580D01*
X168721427Y-111345224D01*
X168724390Y-111374169D01*
X168732284Y-111441333D01*
X168689398Y-111449378D01*
X168664041Y-111451586D01*
X168617783Y-111453143D01*
X168555115Y-111453996D01*
X168480526Y-111454095D01*
X168398509Y-111453386D01*
X168375030Y-111453039D01*
X168275839Y-111451058D01*
X168198512Y-111448202D01*
X168139512Y-111443705D01*
X168095303Y-111436801D01*
X168062349Y-111426727D01*
X168037113Y-111412717D01*
X168016059Y-111394006D01*
X167996721Y-111371191D01*
X167980345Y-111342881D01*
X167972193Y-111305990D01*
X167970200Y-111258515D01*
X167978340Y-111184929D01*
X168003780Y-111127388D01*
X168048053Y-111084369D01*
X168112689Y-111054347D01*
X168193099Y-111036657D01*
X168236301Y-111032252D01*
X168295550Y-111028724D01*
X168365474Y-111026125D01*
X168440696Y-111024507D01*
X168515845Y-111023924D01*
X168585545Y-111024427D01*
X168644424Y-111026069D01*
X168687106Y-111028903D01*
X168704578Y-111031654D01*
X168722222Y-111038771D01*
X168729343Y-111052459D01*
X168728342Y-111080257D01*
X168725950Y-111098869D01*
X168726122Y-111155098D01*
X168744237Y-111193737D01*
X168779926Y-111214293D01*
X168814639Y-111217677D01*
X168842769Y-111215957D01*
X168864085Y-111210517D01*
X168879551Y-111198231D01*
X168890134Y-111175968D01*
X168896801Y-111140602D01*
X168900518Y-111089004D01*
X168902250Y-111018046D01*
X168902929Y-110931861D01*
X168903249Y-110847072D01*
X168902967Y-110783939D01*
X168901713Y-110738716D01*
X168899118Y-110707661D01*
X168894812Y-110687029D01*
X168888426Y-110673076D01*
X168879590Y-110662058D01*
X168875921Y-110658275D01*
X168836704Y-110634908D01*
X168791114Y-110631425D01*
X168750502Y-110647727D01*
X168735657Y-110664491D01*
X168728060Y-110691627D01*
X168725777Y-110736321D01*
X168725767Y-110739802D01*
X168725685Y-110813850D01*
X168630517Y-110821715D01*
X168587368Y-110824124D01*
X168524219Y-110826100D01*
X168445231Y-110827642D01*
X168354562Y-110828748D01*
X168256371Y-110829418D01*
X168154820Y-110829649D01*
X168054065Y-110829442D01*
X167958269Y-110828793D01*
X167871589Y-110827703D01*
X167798185Y-110826170D01*
X167742216Y-110824193D01*
X167709850Y-110821996D01*
X167633650Y-110813850D01*
X167632464Y-110763050D01*
X167631207Y-110724737D01*
X167629613Y-110694869D01*
X167629289Y-110690932D01*
X167615401Y-110657856D01*
X167585883Y-110636923D01*
X167548128Y-110629542D01*
X167509527Y-110637123D01*
X167477471Y-110661075D01*
X167476846Y-110661859D01*
X167466000Y-110678330D01*
X167458911Y-110698312D01*
X167454934Y-110727011D01*
X167453424Y-110769629D01*
X167453738Y-110831370D01*
G36*
X167496398Y-109242518D02*
X167522189Y-109282119D01*
X167560835Y-109310969D01*
X167609480Y-109324520D01*
X167659749Y-109319793D01*
X167706767Y-109296303D01*
X167741564Y-109257901D01*
X167760453Y-109211212D01*
X167759742Y-109162859D01*
X167755033Y-109148729D01*
X167724398Y-109105706D01*
X167679540Y-109078062D01*
X167627397Y-109067121D01*
X167574903Y-109074210D01*
X167528994Y-109100654D01*
X167524723Y-109104723D01*
X167494808Y-109149270D01*
X167486318Y-109196719D01*
X167496398Y-109242518D01*
X167496398Y-109242518D01*
G37*
X167496398Y-109242518D02*
X167522189Y-109282119D01*
X167560835Y-109310969D01*
X167609480Y-109324520D01*
X167659749Y-109319793D01*
X167706767Y-109296303D01*
X167741564Y-109257901D01*
X167760453Y-109211212D01*
X167759742Y-109162859D01*
X167755033Y-109148729D01*
X167724398Y-109105706D01*
X167679540Y-109078062D01*
X167627397Y-109067121D01*
X167574903Y-109074210D01*
X167528994Y-109100654D01*
X167524723Y-109104723D01*
X167494808Y-109149270D01*
X167486318Y-109196719D01*
X167496398Y-109242518D01*
G36*
X160706540Y-116311830D02*
X160705785Y-116907236D01*
X161076341Y-116907236D01*
X161076341Y-116837906D01*
X161093523Y-116853658D01*
X161123557Y-116877717D01*
X161155721Y-116897038D01*
X161189376Y-116911419D01*
X161223880Y-116920660D01*
X161258593Y-116924558D01*
X161292875Y-116922913D01*
X161306435Y-116920635D01*
X161334399Y-116913297D01*
X161358863Y-116903062D01*
X161381519Y-116889035D01*
X161404058Y-116870323D01*
X161407145Y-116867426D01*
X161421228Y-116852916D01*
X161431649Y-116839253D01*
X161439497Y-116825382D01*
X161443350Y-116817063D01*
X161446810Y-116808363D01*
X161449894Y-116798941D01*
X161452622Y-116788458D01*
X161455012Y-116776571D01*
X161457083Y-116762939D01*
X161458853Y-116747222D01*
X161460341Y-116729078D01*
X161461565Y-116708167D01*
X161462545Y-116684147D01*
X161463298Y-116656677D01*
X161463843Y-116625417D01*
X161464199Y-116590024D01*
X161464385Y-116550159D01*
X161464419Y-116505480D01*
X161464319Y-116455647D01*
X161464179Y-116419441D01*
X161165855Y-116419441D01*
X161165821Y-116456098D01*
X161165737Y-116492167D01*
X161165605Y-116527100D01*
X161165423Y-116560350D01*
X161165192Y-116591371D01*
X161164912Y-116619616D01*
X161164584Y-116644537D01*
X161164206Y-116665587D01*
X161163779Y-116682220D01*
X161163304Y-116693887D01*
X161162913Y-116699076D01*
X161160250Y-116717150D01*
X161156627Y-116730197D01*
X161151405Y-116739156D01*
X161143946Y-116744968D01*
X161133612Y-116748573D01*
X161128635Y-116749589D01*
X161119522Y-116749576D01*
X161108574Y-116747433D01*
X161098625Y-116743876D01*
X161093498Y-116740689D01*
X161089677Y-116735218D01*
X161085505Y-116726260D01*
X161082995Y-116719198D01*
X161082130Y-116716050D01*
X161081366Y-116712291D01*
X161080698Y-116707549D01*
X161080119Y-116701453D01*
X161079623Y-116693632D01*
X161079204Y-116683717D01*
X161078855Y-116671336D01*
X161078569Y-116656119D01*
X161078342Y-116637694D01*
X161078166Y-116615692D01*
X161078035Y-116589741D01*
X161077943Y-116559470D01*
X161077883Y-116524510D01*
X161077850Y-116484490D01*
X161077836Y-116439037D01*
X161077835Y-116415671D01*
X161077837Y-116366385D01*
X161077853Y-116322718D01*
X161077900Y-116284313D01*
X161077994Y-116250812D01*
X161078153Y-116221858D01*
X161078393Y-116197094D01*
X161078731Y-116176161D01*
X161079182Y-116158704D01*
X161079765Y-116144363D01*
X161080495Y-116132783D01*
X161081389Y-116123605D01*
X161082464Y-116116471D01*
X161083736Y-116111026D01*
X161085222Y-116106911D01*
X161086939Y-116103769D01*
X161088903Y-116101242D01*
X161091132Y-116098973D01*
X161092645Y-116097547D01*
X161101921Y-116092201D01*
X161114568Y-116089228D01*
X161128348Y-116088933D01*
X161139609Y-116091124D01*
X161148660Y-116096095D01*
X161155326Y-116104670D01*
X161160032Y-116117627D01*
X161162966Y-116133843D01*
X161163477Y-116140866D01*
X161163938Y-116153318D01*
X161164349Y-116170653D01*
X161164711Y-116192323D01*
X161165023Y-116217780D01*
X161165285Y-116246479D01*
X161165498Y-116277872D01*
X161165661Y-116311411D01*
X161165775Y-116346551D01*
X161165840Y-116382743D01*
X161165855Y-116419441D01*
X161464179Y-116419441D01*
X161464104Y-116400317D01*
X161463989Y-116376142D01*
X161463728Y-116326434D01*
X161463461Y-116282309D01*
X161463168Y-116243376D01*
X161462830Y-116209241D01*
X161462430Y-116179513D01*
X161461947Y-116153799D01*
X161461363Y-116131706D01*
X161460660Y-116112841D01*
X161459819Y-116096813D01*
X161458820Y-116083228D01*
X161457645Y-116071694D01*
X161456276Y-116061819D01*
X161454692Y-116053209D01*
X161452877Y-116045473D01*
X161450810Y-116038218D01*
X161448473Y-116031052D01*
X161447299Y-116027669D01*
X161436174Y-116004485D01*
X161419914Y-115982544D01*
X161399336Y-115962526D01*
X161375257Y-115945115D01*
X161348492Y-115930993D01*
X161319858Y-115920841D01*
X161319286Y-115920687D01*
X161297508Y-115916526D01*
X161272294Y-115914410D01*
X161245835Y-115914365D01*
X161220319Y-115916418D01*
X161203341Y-115919300D01*
X161179727Y-115926270D01*
X161154438Y-115936807D01*
X161129588Y-115949860D01*
X161107295Y-115964378D01*
X161098036Y-115971631D01*
X161076401Y-115989838D01*
X161074847Y-115716424D01*
X160707294Y-115716424D01*
X160706540Y-116311830D01*
X160706540Y-116311830D01*
G37*
X160706540Y-116311830D02*
X160705785Y-116907236D01*
X161076341Y-116907236D01*
X161076341Y-116837906D01*
X161093523Y-116853658D01*
X161123557Y-116877717D01*
X161155721Y-116897038D01*
X161189376Y-116911419D01*
X161223880Y-116920660D01*
X161258593Y-116924558D01*
X161292875Y-116922913D01*
X161306435Y-116920635D01*
X161334399Y-116913297D01*
X161358863Y-116903062D01*
X161381519Y-116889035D01*
X161404058Y-116870323D01*
X161407145Y-116867426D01*
X161421228Y-116852916D01*
X161431649Y-116839253D01*
X161439497Y-116825382D01*
X161443350Y-116817063D01*
X161446810Y-116808363D01*
X161449894Y-116798941D01*
X161452622Y-116788458D01*
X161455012Y-116776571D01*
X161457083Y-116762939D01*
X161458853Y-116747222D01*
X161460341Y-116729078D01*
X161461565Y-116708167D01*
X161462545Y-116684147D01*
X161463298Y-116656677D01*
X161463843Y-116625417D01*
X161464199Y-116590024D01*
X161464385Y-116550159D01*
X161464419Y-116505480D01*
X161464319Y-116455647D01*
X161464179Y-116419441D01*
X161165855Y-116419441D01*
X161165821Y-116456098D01*
X161165737Y-116492167D01*
X161165605Y-116527100D01*
X161165423Y-116560350D01*
X161165192Y-116591371D01*
X161164912Y-116619616D01*
X161164584Y-116644537D01*
X161164206Y-116665587D01*
X161163779Y-116682220D01*
X161163304Y-116693887D01*
X161162913Y-116699076D01*
X161160250Y-116717150D01*
X161156627Y-116730197D01*
X161151405Y-116739156D01*
X161143946Y-116744968D01*
X161133612Y-116748573D01*
X161128635Y-116749589D01*
X161119522Y-116749576D01*
X161108574Y-116747433D01*
X161098625Y-116743876D01*
X161093498Y-116740689D01*
X161089677Y-116735218D01*
X161085505Y-116726260D01*
X161082995Y-116719198D01*
X161082130Y-116716050D01*
X161081366Y-116712291D01*
X161080698Y-116707549D01*
X161080119Y-116701453D01*
X161079623Y-116693632D01*
X161079204Y-116683717D01*
X161078855Y-116671336D01*
X161078569Y-116656119D01*
X161078342Y-116637694D01*
X161078166Y-116615692D01*
X161078035Y-116589741D01*
X161077943Y-116559470D01*
X161077883Y-116524510D01*
X161077850Y-116484490D01*
X161077836Y-116439037D01*
X161077835Y-116415671D01*
X161077837Y-116366385D01*
X161077853Y-116322718D01*
X161077900Y-116284313D01*
X161077994Y-116250812D01*
X161078153Y-116221858D01*
X161078393Y-116197094D01*
X161078731Y-116176161D01*
X161079182Y-116158704D01*
X161079765Y-116144363D01*
X161080495Y-116132783D01*
X161081389Y-116123605D01*
X161082464Y-116116471D01*
X161083736Y-116111026D01*
X161085222Y-116106911D01*
X161086939Y-116103769D01*
X161088903Y-116101242D01*
X161091132Y-116098973D01*
X161092645Y-116097547D01*
X161101921Y-116092201D01*
X161114568Y-116089228D01*
X161128348Y-116088933D01*
X161139609Y-116091124D01*
X161148660Y-116096095D01*
X161155326Y-116104670D01*
X161160032Y-116117627D01*
X161162966Y-116133843D01*
X161163477Y-116140866D01*
X161163938Y-116153318D01*
X161164349Y-116170653D01*
X161164711Y-116192323D01*
X161165023Y-116217780D01*
X161165285Y-116246479D01*
X161165498Y-116277872D01*
X161165661Y-116311411D01*
X161165775Y-116346551D01*
X161165840Y-116382743D01*
X161165855Y-116419441D01*
X161464179Y-116419441D01*
X161464104Y-116400317D01*
X161463989Y-116376142D01*
X161463728Y-116326434D01*
X161463461Y-116282309D01*
X161463168Y-116243376D01*
X161462830Y-116209241D01*
X161462430Y-116179513D01*
X161461947Y-116153799D01*
X161461363Y-116131706D01*
X161460660Y-116112841D01*
X161459819Y-116096813D01*
X161458820Y-116083228D01*
X161457645Y-116071694D01*
X161456276Y-116061819D01*
X161454692Y-116053209D01*
X161452877Y-116045473D01*
X161450810Y-116038218D01*
X161448473Y-116031052D01*
X161447299Y-116027669D01*
X161436174Y-116004485D01*
X161419914Y-115982544D01*
X161399336Y-115962526D01*
X161375257Y-115945115D01*
X161348492Y-115930993D01*
X161319858Y-115920841D01*
X161319286Y-115920687D01*
X161297508Y-115916526D01*
X161272294Y-115914410D01*
X161245835Y-115914365D01*
X161220319Y-115916418D01*
X161203341Y-115919300D01*
X161179727Y-115926270D01*
X161154438Y-115936807D01*
X161129588Y-115949860D01*
X161107295Y-115964378D01*
X161098036Y-115971631D01*
X161076401Y-115989838D01*
X161074847Y-115716424D01*
X160707294Y-115716424D01*
X160706540Y-116311830D01*
G36*
X160368081Y-115714959D02*
X160330851Y-115715045D01*
X160295889Y-115715183D01*
X160263620Y-115715368D01*
X160234471Y-115715598D01*
X160208866Y-115715866D01*
X160187232Y-115716169D01*
X160169994Y-115716502D01*
X160157577Y-115716863D01*
X160150407Y-115717245D01*
X160148735Y-115717528D01*
X160147933Y-115720981D01*
X160146356Y-115729672D01*
X160144112Y-115742926D01*
X160141313Y-115760071D01*
X160138067Y-115780433D01*
X160134485Y-115803339D01*
X160130677Y-115828116D01*
X160130567Y-115828840D01*
X160126722Y-115854024D01*
X160123098Y-115877675D01*
X160119806Y-115899061D01*
X160116960Y-115917450D01*
X160114673Y-115932110D01*
X160113059Y-115942309D01*
X160112240Y-115947265D01*
X160110476Y-115956977D01*
X160353188Y-115956977D01*
X160353188Y-116178106D01*
X160225441Y-116178450D01*
X160198257Y-116178516D01*
X160172840Y-116178562D01*
X160149833Y-116178588D01*
X160129875Y-116178595D01*
X160113608Y-116178583D01*
X160101672Y-116178551D01*
X160094708Y-116178500D01*
X160093212Y-116178462D01*
X160086816Y-116179592D01*
X160085201Y-116180407D01*
X160083884Y-116183836D01*
X160081798Y-116192558D01*
X160079057Y-116205958D01*
X160075779Y-116223419D01*
X160072081Y-116244326D01*
X160068080Y-116268061D01*
X160064969Y-116287225D01*
X160061027Y-116311836D01*
X160057322Y-116334848D01*
X160053974Y-116355527D01*
X160051102Y-116373138D01*
X160048828Y-116386945D01*
X160047269Y-116396213D01*
X160046595Y-116399983D01*
X160044925Y-116408200D01*
X160353188Y-116408200D01*
X160353188Y-116668177D01*
X160006667Y-116668177D01*
X160005182Y-116674900D01*
X160004394Y-116679726D01*
X160003000Y-116689583D01*
X160001101Y-116703648D01*
X159998804Y-116721096D01*
X159996211Y-116741104D01*
X159993426Y-116762848D01*
X159990553Y-116785503D01*
X159987696Y-116808246D01*
X159984958Y-116830252D01*
X159982445Y-116850698D01*
X159980259Y-116868759D01*
X159978504Y-116883612D01*
X159977285Y-116894433D01*
X159976704Y-116900397D01*
X159976670Y-116901114D01*
X159976670Y-116907236D01*
X160663965Y-116907236D01*
X160663965Y-115714930D01*
X160407153Y-115714930D01*
X160368081Y-115714959D01*
X160368081Y-115714959D01*
G37*
X160368081Y-115714959D02*
X160330851Y-115715045D01*
X160295889Y-115715183D01*
X160263620Y-115715368D01*
X160234471Y-115715598D01*
X160208866Y-115715866D01*
X160187232Y-115716169D01*
X160169994Y-115716502D01*
X160157577Y-115716863D01*
X160150407Y-115717245D01*
X160148735Y-115717528D01*
X160147933Y-115720981D01*
X160146356Y-115729672D01*
X160144112Y-115742926D01*
X160141313Y-115760071D01*
X160138067Y-115780433D01*
X160134485Y-115803339D01*
X160130677Y-115828116D01*
X160130567Y-115828840D01*
X160126722Y-115854024D01*
X160123098Y-115877675D01*
X160119806Y-115899061D01*
X160116960Y-115917450D01*
X160114673Y-115932110D01*
X160113059Y-115942309D01*
X160112240Y-115947265D01*
X160110476Y-115956977D01*
X160353188Y-115956977D01*
X160353188Y-116178106D01*
X160225441Y-116178450D01*
X160198257Y-116178516D01*
X160172840Y-116178562D01*
X160149833Y-116178588D01*
X160129875Y-116178595D01*
X160113608Y-116178583D01*
X160101672Y-116178551D01*
X160094708Y-116178500D01*
X160093212Y-116178462D01*
X160086816Y-116179592D01*
X160085201Y-116180407D01*
X160083884Y-116183836D01*
X160081798Y-116192558D01*
X160079057Y-116205958D01*
X160075779Y-116223419D01*
X160072081Y-116244326D01*
X160068080Y-116268061D01*
X160064969Y-116287225D01*
X160061027Y-116311836D01*
X160057322Y-116334848D01*
X160053974Y-116355527D01*
X160051102Y-116373138D01*
X160048828Y-116386945D01*
X160047269Y-116396213D01*
X160046595Y-116399983D01*
X160044925Y-116408200D01*
X160353188Y-116408200D01*
X160353188Y-116668177D01*
X160006667Y-116668177D01*
X160005182Y-116674900D01*
X160004394Y-116679726D01*
X160003000Y-116689583D01*
X160001101Y-116703648D01*
X159998804Y-116721096D01*
X159996211Y-116741104D01*
X159993426Y-116762848D01*
X159990553Y-116785503D01*
X159987696Y-116808246D01*
X159984958Y-116830252D01*
X159982445Y-116850698D01*
X159980259Y-116868759D01*
X159978504Y-116883612D01*
X159977285Y-116894433D01*
X159976704Y-116900397D01*
X159976670Y-116901114D01*
X159976670Y-116907236D01*
X160663965Y-116907236D01*
X160663965Y-115714930D01*
X160407153Y-115714930D01*
X160368081Y-115714959D01*
G36*
X159945217Y-115714924D02*
X159918271Y-115715015D01*
X159892025Y-115715168D01*
X159867147Y-115715383D01*
X159844304Y-115715658D01*
X159824163Y-115715992D01*
X159807392Y-115716383D01*
X159794659Y-115716831D01*
X159786632Y-115717334D01*
X159783983Y-115717831D01*
X159782928Y-115722011D01*
X159781368Y-115731717D01*
X159779346Y-115746522D01*
X159776907Y-115766000D01*
X159774092Y-115789725D01*
X159770945Y-115817272D01*
X159767509Y-115848214D01*
X159763828Y-115882126D01*
X159759944Y-115918580D01*
X159755902Y-115957153D01*
X159751743Y-115997416D01*
X159747512Y-116038945D01*
X159743251Y-116081314D01*
X159739003Y-116124095D01*
X159734813Y-116166864D01*
X159730723Y-116209195D01*
X159726775Y-116250661D01*
X159723015Y-116290836D01*
X159719484Y-116329295D01*
X159716226Y-116365611D01*
X159713284Y-116399359D01*
X159710701Y-116430112D01*
X159708520Y-116457444D01*
X159707234Y-116474626D01*
X159705985Y-116491045D01*
X159704798Y-116505073D01*
X159703764Y-116515764D01*
X159702973Y-116522168D01*
X159702586Y-116523582D01*
X159702103Y-116520449D01*
X159701265Y-116512135D01*
X159700140Y-116499424D01*
X159698792Y-116483097D01*
X159697289Y-116463937D01*
X159695698Y-116442725D01*
X159695661Y-116442215D01*
X159690936Y-116378996D01*
X159686060Y-116316055D01*
X159681148Y-116254829D01*
X159676316Y-116196753D01*
X159671852Y-116145236D01*
X159669939Y-116123887D01*
X159667697Y-116099267D01*
X159665181Y-116071942D01*
X159662443Y-116042479D01*
X159659540Y-116011442D01*
X159656523Y-115979398D01*
X159653449Y-115946913D01*
X159650370Y-115914552D01*
X159647341Y-115882881D01*
X159644417Y-115852467D01*
X159641651Y-115823875D01*
X159639098Y-115797672D01*
X159636811Y-115774422D01*
X159634845Y-115754691D01*
X159633254Y-115739047D01*
X159632092Y-115728054D01*
X159631414Y-115722279D01*
X159631314Y-115721653D01*
X159629921Y-115714930D01*
X159467119Y-115714930D01*
X159431787Y-115714937D01*
X159401965Y-115714970D01*
X159377187Y-115715043D01*
X159356988Y-115715173D01*
X159340902Y-115715375D01*
X159328464Y-115715665D01*
X159319206Y-115716059D01*
X159312663Y-115716571D01*
X159308369Y-115717218D01*
X159305859Y-115718015D01*
X159304666Y-115718978D01*
X159304325Y-115720122D01*
X159304317Y-115720388D01*
X159304704Y-115723854D01*
X159305839Y-115732960D01*
X159307685Y-115747419D01*
X159310204Y-115766947D01*
X159313359Y-115791259D01*
X159317113Y-115820070D01*
X159321429Y-115853093D01*
X159326268Y-115890044D01*
X159331594Y-115930638D01*
X159337368Y-115974589D01*
X159343555Y-116021612D01*
X159350115Y-116071422D01*
X159357013Y-116123734D01*
X159364210Y-116178262D01*
X159371669Y-116234721D01*
X159379353Y-116292826D01*
X159381996Y-116312806D01*
X159389745Y-116371376D01*
X159397283Y-116428381D01*
X159404571Y-116483537D01*
X159411572Y-116536560D01*
X159418250Y-116587166D01*
X159424567Y-116635071D01*
X159430485Y-116679989D01*
X159435967Y-116721638D01*
X159440975Y-116759734D01*
X159445473Y-116793991D01*
X159449423Y-116824126D01*
X159452788Y-116849854D01*
X159455530Y-116870893D01*
X159457611Y-116886956D01*
X159458995Y-116897761D01*
X159459644Y-116903023D01*
X159459691Y-116903500D01*
X159460817Y-116904209D01*
X159464406Y-116904828D01*
X159470786Y-116905363D01*
X159480283Y-116905818D01*
X159493225Y-116906200D01*
X159509938Y-116906513D01*
X159530749Y-116906762D01*
X159555984Y-116906952D01*
X159585971Y-116907090D01*
X159621037Y-116907179D01*
X159661509Y-116907226D01*
X159695444Y-116907236D01*
X159931182Y-116907236D01*
X159932943Y-116897524D01*
X159933595Y-116893424D01*
X159935080Y-116883770D01*
X159937344Y-116868917D01*
X159940332Y-116849221D01*
X159943992Y-116825039D01*
X159948269Y-116796727D01*
X159953111Y-116764639D01*
X159958462Y-116729133D01*
X159964271Y-116690564D01*
X159970482Y-116649288D01*
X159977042Y-116605661D01*
X159983897Y-116560040D01*
X159990994Y-116512779D01*
X159993236Y-116497847D01*
X160001032Y-116445913D01*
X160009013Y-116392760D01*
X160017087Y-116339005D01*
X160025161Y-116285262D01*
X160033142Y-116232146D01*
X160040938Y-116180273D01*
X160048457Y-116130258D01*
X160055606Y-116082716D01*
X160062292Y-116038263D01*
X160068424Y-115997513D01*
X160073908Y-115961083D01*
X160078652Y-115929586D01*
X160081055Y-115913647D01*
X160086060Y-115880294D01*
X160090757Y-115848683D01*
X160095076Y-115819311D01*
X160098946Y-115792673D01*
X160102296Y-115769264D01*
X160105056Y-115749579D01*
X160107155Y-115734113D01*
X160108522Y-115723362D01*
X160109087Y-115717821D01*
X160109071Y-115717171D01*
X160105868Y-115716633D01*
X160097356Y-115716171D01*
X160084204Y-115715782D01*
X160067078Y-115715466D01*
X160046647Y-115715220D01*
X160023577Y-115715045D01*
X159998538Y-115714938D01*
X159972195Y-115714898D01*
X159945217Y-115714924D01*
X159945217Y-115714924D01*
G37*
X159945217Y-115714924D02*
X159918271Y-115715015D01*
X159892025Y-115715168D01*
X159867147Y-115715383D01*
X159844304Y-115715658D01*
X159824163Y-115715992D01*
X159807392Y-115716383D01*
X159794659Y-115716831D01*
X159786632Y-115717334D01*
X159783983Y-115717831D01*
X159782928Y-115722011D01*
X159781368Y-115731717D01*
X159779346Y-115746522D01*
X159776907Y-115766000D01*
X159774092Y-115789725D01*
X159770945Y-115817272D01*
X159767509Y-115848214D01*
X159763828Y-115882126D01*
X159759944Y-115918580D01*
X159755902Y-115957153D01*
X159751743Y-115997416D01*
X159747512Y-116038945D01*
X159743251Y-116081314D01*
X159739003Y-116124095D01*
X159734813Y-116166864D01*
X159730723Y-116209195D01*
X159726775Y-116250661D01*
X159723015Y-116290836D01*
X159719484Y-116329295D01*
X159716226Y-116365611D01*
X159713284Y-116399359D01*
X159710701Y-116430112D01*
X159708520Y-116457444D01*
X159707234Y-116474626D01*
X159705985Y-116491045D01*
X159704798Y-116505073D01*
X159703764Y-116515764D01*
X159702973Y-116522168D01*
X159702586Y-116523582D01*
X159702103Y-116520449D01*
X159701265Y-116512135D01*
X159700140Y-116499424D01*
X159698792Y-116483097D01*
X159697289Y-116463937D01*
X159695698Y-116442725D01*
X159695661Y-116442215D01*
X159690936Y-116378996D01*
X159686060Y-116316055D01*
X159681148Y-116254829D01*
X159676316Y-116196753D01*
X159671852Y-116145236D01*
X159669939Y-116123887D01*
X159667697Y-116099267D01*
X159665181Y-116071942D01*
X159662443Y-116042479D01*
X159659540Y-116011442D01*
X159656523Y-115979398D01*
X159653449Y-115946913D01*
X159650370Y-115914552D01*
X159647341Y-115882881D01*
X159644417Y-115852467D01*
X159641651Y-115823875D01*
X159639098Y-115797672D01*
X159636811Y-115774422D01*
X159634845Y-115754691D01*
X159633254Y-115739047D01*
X159632092Y-115728054D01*
X159631414Y-115722279D01*
X159631314Y-115721653D01*
X159629921Y-115714930D01*
X159467119Y-115714930D01*
X159431787Y-115714937D01*
X159401965Y-115714970D01*
X159377187Y-115715043D01*
X159356988Y-115715173D01*
X159340902Y-115715375D01*
X159328464Y-115715665D01*
X159319206Y-115716059D01*
X159312663Y-115716571D01*
X159308369Y-115717218D01*
X159305859Y-115718015D01*
X159304666Y-115718978D01*
X159304325Y-115720122D01*
X159304317Y-115720388D01*
X159304704Y-115723854D01*
X159305839Y-115732960D01*
X159307685Y-115747419D01*
X159310204Y-115766947D01*
X159313359Y-115791259D01*
X159317113Y-115820070D01*
X159321429Y-115853093D01*
X159326268Y-115890044D01*
X159331594Y-115930638D01*
X159337368Y-115974589D01*
X159343555Y-116021612D01*
X159350115Y-116071422D01*
X159357013Y-116123734D01*
X159364210Y-116178262D01*
X159371669Y-116234721D01*
X159379353Y-116292826D01*
X159381996Y-116312806D01*
X159389745Y-116371376D01*
X159397283Y-116428381D01*
X159404571Y-116483537D01*
X159411572Y-116536560D01*
X159418250Y-116587166D01*
X159424567Y-116635071D01*
X159430485Y-116679989D01*
X159435967Y-116721638D01*
X159440975Y-116759734D01*
X159445473Y-116793991D01*
X159449423Y-116824126D01*
X159452788Y-116849854D01*
X159455530Y-116870893D01*
X159457611Y-116886956D01*
X159458995Y-116897761D01*
X159459644Y-116903023D01*
X159459691Y-116903500D01*
X159460817Y-116904209D01*
X159464406Y-116904828D01*
X159470786Y-116905363D01*
X159480283Y-116905818D01*
X159493225Y-116906200D01*
X159509938Y-116906513D01*
X159530749Y-116906762D01*
X159555984Y-116906952D01*
X159585971Y-116907090D01*
X159621037Y-116907179D01*
X159661509Y-116907226D01*
X159695444Y-116907236D01*
X159931182Y-116907236D01*
X159932943Y-116897524D01*
X159933595Y-116893424D01*
X159935080Y-116883770D01*
X159937344Y-116868917D01*
X159940332Y-116849221D01*
X159943992Y-116825039D01*
X159948269Y-116796727D01*
X159953111Y-116764639D01*
X159958462Y-116729133D01*
X159964271Y-116690564D01*
X159970482Y-116649288D01*
X159977042Y-116605661D01*
X159983897Y-116560040D01*
X159990994Y-116512779D01*
X159993236Y-116497847D01*
X160001032Y-116445913D01*
X160009013Y-116392760D01*
X160017087Y-116339005D01*
X160025161Y-116285262D01*
X160033142Y-116232146D01*
X160040938Y-116180273D01*
X160048457Y-116130258D01*
X160055606Y-116082716D01*
X160062292Y-116038263D01*
X160068424Y-115997513D01*
X160073908Y-115961083D01*
X160078652Y-115929586D01*
X160081055Y-115913647D01*
X160086060Y-115880294D01*
X160090757Y-115848683D01*
X160095076Y-115819311D01*
X160098946Y-115792673D01*
X160102296Y-115769264D01*
X160105056Y-115749579D01*
X160107155Y-115734113D01*
X160108522Y-115723362D01*
X160109087Y-115717821D01*
X160109071Y-115717171D01*
X160105868Y-115716633D01*
X160097356Y-115716171D01*
X160084204Y-115715782D01*
X160067078Y-115715466D01*
X160046647Y-115715220D01*
X160023577Y-115715045D01*
X159998538Y-115714938D01*
X159972195Y-115714898D01*
X159945217Y-115714924D01*
G36*
X158925965Y-115431794D02*
X158926737Y-115437397D01*
X158928230Y-115448484D01*
X158930402Y-115464748D01*
X158933214Y-115485879D01*
X158936625Y-115511570D01*
X158940595Y-115541512D01*
X158945081Y-115575396D01*
X158950045Y-115612913D01*
X158955445Y-115653755D01*
X158961240Y-115697614D01*
X158967390Y-115744180D01*
X158973855Y-115793146D01*
X158980593Y-115844202D01*
X158987564Y-115897039D01*
X158994727Y-115951351D01*
X159002042Y-116006827D01*
X159009468Y-116063159D01*
X159016964Y-116120039D01*
X159024490Y-116177158D01*
X159032005Y-116234207D01*
X159039468Y-116290878D01*
X159046839Y-116346863D01*
X159054077Y-116401852D01*
X159061141Y-116455537D01*
X159067991Y-116507609D01*
X159074586Y-116557760D01*
X159080886Y-116605682D01*
X159086849Y-116651065D01*
X159092436Y-116693601D01*
X159097605Y-116732982D01*
X159102316Y-116768899D01*
X159106528Y-116801043D01*
X159110200Y-116829105D01*
X159113292Y-116852778D01*
X159115764Y-116871752D01*
X159117574Y-116885719D01*
X159118682Y-116894371D01*
X159119047Y-116897393D01*
X159120076Y-116898294D01*
X159123445Y-116899051D01*
X159129579Y-116899675D01*
X159138903Y-116900178D01*
X159151841Y-116900570D01*
X159168818Y-116900862D01*
X159190259Y-116901066D01*
X159216587Y-116901192D01*
X159248229Y-116901251D01*
X159268516Y-116901259D01*
X159417984Y-116901259D01*
X159416459Y-116894536D01*
X159415833Y-116890645D01*
X159414449Y-116881263D01*
X159412367Y-116866818D01*
X159409649Y-116847737D01*
X159406353Y-116824451D01*
X159402541Y-116797387D01*
X159398274Y-116766973D01*
X159393610Y-116733638D01*
X159388611Y-116697811D01*
X159383336Y-116659920D01*
X159377847Y-116620393D01*
X159377429Y-116617377D01*
X159371091Y-116571688D01*
X159364365Y-116523234D01*
X159357385Y-116472964D01*
X159350282Y-116421828D01*
X159343187Y-116370775D01*
X159336234Y-116320756D01*
X159329554Y-116272721D01*
X159323278Y-116227620D01*
X159317540Y-116186402D01*
X159312471Y-116150017D01*
X159311805Y-116145236D01*
X159306394Y-116106395D01*
X159300714Y-116065584D01*
X159294905Y-116023804D01*
X159289105Y-115982058D01*
X159283455Y-115941348D01*
X159278092Y-115902677D01*
X159273157Y-115867048D01*
X159268788Y-115835463D01*
X159265555Y-115812047D01*
X159261743Y-115784487D01*
X159258135Y-115758587D01*
X159254825Y-115734984D01*
X159251900Y-115714313D01*
X159249452Y-115697212D01*
X159247572Y-115684315D01*
X159246348Y-115676258D01*
X159245932Y-115673841D01*
X159244439Y-115667118D01*
X159624265Y-115667118D01*
X159622583Y-115652924D01*
X159621896Y-115646298D01*
X159620820Y-115634887D01*
X159619426Y-115619514D01*
X159617784Y-115601005D01*
X159615963Y-115580182D01*
X159614034Y-115557871D01*
X159612068Y-115534896D01*
X159610134Y-115512080D01*
X159608302Y-115490248D01*
X159606644Y-115470225D01*
X159605228Y-115452835D01*
X159604126Y-115438901D01*
X159603407Y-115429248D01*
X159603141Y-115424700D01*
X159603141Y-115424653D01*
X159602989Y-115423797D01*
X159602316Y-115423034D01*
X159600801Y-115422358D01*
X159598118Y-115421765D01*
X159593946Y-115421247D01*
X159587961Y-115420802D01*
X159579840Y-115420422D01*
X159569260Y-115420103D01*
X159555897Y-115419840D01*
X159539428Y-115419626D01*
X159519531Y-115419458D01*
X159495881Y-115419330D01*
X159468156Y-115419235D01*
X159436032Y-115419170D01*
X159399187Y-115419129D01*
X159357296Y-115419106D01*
X159310038Y-115419096D01*
X159263637Y-115419094D01*
X158924133Y-115419094D01*
X158925965Y-115431794D01*
X158925965Y-115431794D01*
G37*
X158925965Y-115431794D02*
X158926737Y-115437397D01*
X158928230Y-115448484D01*
X158930402Y-115464748D01*
X158933214Y-115485879D01*
X158936625Y-115511570D01*
X158940595Y-115541512D01*
X158945081Y-115575396D01*
X158950045Y-115612913D01*
X158955445Y-115653755D01*
X158961240Y-115697614D01*
X158967390Y-115744180D01*
X158973855Y-115793146D01*
X158980593Y-115844202D01*
X158987564Y-115897039D01*
X158994727Y-115951351D01*
X159002042Y-116006827D01*
X159009468Y-116063159D01*
X159016964Y-116120039D01*
X159024490Y-116177158D01*
X159032005Y-116234207D01*
X159039468Y-116290878D01*
X159046839Y-116346863D01*
X159054077Y-116401852D01*
X159061141Y-116455537D01*
X159067991Y-116507609D01*
X159074586Y-116557760D01*
X159080886Y-116605682D01*
X159086849Y-116651065D01*
X159092436Y-116693601D01*
X159097605Y-116732982D01*
X159102316Y-116768899D01*
X159106528Y-116801043D01*
X159110200Y-116829105D01*
X159113292Y-116852778D01*
X159115764Y-116871752D01*
X159117574Y-116885719D01*
X159118682Y-116894371D01*
X159119047Y-116897393D01*
X159120076Y-116898294D01*
X159123445Y-116899051D01*
X159129579Y-116899675D01*
X159138903Y-116900178D01*
X159151841Y-116900570D01*
X159168818Y-116900862D01*
X159190259Y-116901066D01*
X159216587Y-116901192D01*
X159248229Y-116901251D01*
X159268516Y-116901259D01*
X159417984Y-116901259D01*
X159416459Y-116894536D01*
X159415833Y-116890645D01*
X159414449Y-116881263D01*
X159412367Y-116866818D01*
X159409649Y-116847737D01*
X159406353Y-116824451D01*
X159402541Y-116797387D01*
X159398274Y-116766973D01*
X159393610Y-116733638D01*
X159388611Y-116697811D01*
X159383336Y-116659920D01*
X159377847Y-116620393D01*
X159377429Y-116617377D01*
X159371091Y-116571688D01*
X159364365Y-116523234D01*
X159357385Y-116472964D01*
X159350282Y-116421828D01*
X159343187Y-116370775D01*
X159336234Y-116320756D01*
X159329554Y-116272721D01*
X159323278Y-116227620D01*
X159317540Y-116186402D01*
X159312471Y-116150017D01*
X159311805Y-116145236D01*
X159306394Y-116106395D01*
X159300714Y-116065584D01*
X159294905Y-116023804D01*
X159289105Y-115982058D01*
X159283455Y-115941348D01*
X159278092Y-115902677D01*
X159273157Y-115867048D01*
X159268788Y-115835463D01*
X159265555Y-115812047D01*
X159261743Y-115784487D01*
X159258135Y-115758587D01*
X159254825Y-115734984D01*
X159251900Y-115714313D01*
X159249452Y-115697212D01*
X159247572Y-115684315D01*
X159246348Y-115676258D01*
X159245932Y-115673841D01*
X159244439Y-115667118D01*
X159624265Y-115667118D01*
X159622583Y-115652924D01*
X159621896Y-115646298D01*
X159620820Y-115634887D01*
X159619426Y-115619514D01*
X159617784Y-115601005D01*
X159615963Y-115580182D01*
X159614034Y-115557871D01*
X159612068Y-115534896D01*
X159610134Y-115512080D01*
X159608302Y-115490248D01*
X159606644Y-115470225D01*
X159605228Y-115452835D01*
X159604126Y-115438901D01*
X159603407Y-115429248D01*
X159603141Y-115424700D01*
X159603141Y-115424653D01*
X159602989Y-115423797D01*
X159602316Y-115423034D01*
X159600801Y-115422358D01*
X159598118Y-115421765D01*
X159593946Y-115421247D01*
X159587961Y-115420802D01*
X159579840Y-115420422D01*
X159569260Y-115420103D01*
X159555897Y-115419840D01*
X159539428Y-115419626D01*
X159519531Y-115419458D01*
X159495881Y-115419330D01*
X159468156Y-115419235D01*
X159436032Y-115419170D01*
X159399187Y-115419129D01*
X159357296Y-115419106D01*
X159310038Y-115419096D01*
X159263637Y-115419094D01*
X158924133Y-115419094D01*
X158925965Y-115431794D01*
G36*
X158748033Y-116170882D02*
X158731441Y-116171322D01*
X158718473Y-116172210D01*
X158707958Y-116173631D01*
X158698723Y-116175668D01*
X158697706Y-116175941D01*
X158668463Y-116186423D01*
X158643778Y-116200599D01*
X158623752Y-116218374D01*
X158608488Y-116239649D01*
X158598088Y-116264327D01*
X158595883Y-116272588D01*
X158594356Y-116282551D01*
X158593247Y-116296506D01*
X158592585Y-116312694D01*
X158592398Y-116329355D01*
X158592714Y-116344732D01*
X158593564Y-116357066D01*
X158594418Y-116362630D01*
X158596581Y-116372341D01*
X158679837Y-116372341D01*
X158701526Y-116372264D01*
X158721201Y-116372046D01*
X158738088Y-116371707D01*
X158751414Y-116371269D01*
X158760406Y-116370751D01*
X158764290Y-116370174D01*
X158764377Y-116370100D01*
X158764520Y-116366379D01*
X158763899Y-116358087D01*
X158762635Y-116346564D01*
X158761359Y-116336759D01*
X158759719Y-116323050D01*
X158758732Y-116310922D01*
X158758505Y-116301991D01*
X158758835Y-116298583D01*
X158763907Y-116288449D01*
X158772239Y-116282146D01*
X158782604Y-116279555D01*
X158793772Y-116280559D01*
X158804519Y-116285039D01*
X158813616Y-116292879D01*
X158819835Y-116303960D01*
X158820003Y-116304457D01*
X158821170Y-116309588D01*
X158823022Y-116319602D01*
X158825397Y-116333465D01*
X158828136Y-116350143D01*
X158831079Y-116368602D01*
X158834065Y-116387808D01*
X158836935Y-116406729D01*
X158839529Y-116424329D01*
X158841687Y-116439575D01*
X158843249Y-116451433D01*
X158844055Y-116458869D01*
X158844129Y-116460360D01*
X158842367Y-116460819D01*
X158837683Y-116457339D01*
X158831796Y-116451463D01*
X158815632Y-116437762D01*
X158795391Y-116426662D01*
X158772688Y-116418959D01*
X158760695Y-116416594D01*
X158733948Y-116415197D01*
X158708353Y-116418797D01*
X158684691Y-116427029D01*
X158663741Y-116439528D01*
X158646281Y-116455928D01*
X158633090Y-116475866D01*
X158632773Y-116476507D01*
X158629524Y-116483415D01*
X158627267Y-116489515D01*
X158625831Y-116496096D01*
X158625044Y-116504444D01*
X158624735Y-116515849D01*
X158624731Y-116531598D01*
X158624760Y-116536694D01*
X158625521Y-116558496D01*
X158627449Y-116583639D01*
X158630380Y-116611132D01*
X158634149Y-116639987D01*
X158638590Y-116669213D01*
X158643540Y-116697820D01*
X158648833Y-116724819D01*
X158654303Y-116749220D01*
X158659788Y-116770033D01*
X158665120Y-116786269D01*
X158667178Y-116791270D01*
X158675377Y-116806086D01*
X158686883Y-116822325D01*
X158700110Y-116837984D01*
X158713471Y-116851057D01*
X158716512Y-116853581D01*
X158732133Y-116864286D01*
X158751459Y-116874931D01*
X158772304Y-116884454D01*
X158792481Y-116891796D01*
X158799306Y-116893739D01*
X158811045Y-116895913D01*
X158827087Y-116897715D01*
X158845826Y-116899081D01*
X158865655Y-116899950D01*
X158884970Y-116900259D01*
X158902164Y-116899946D01*
X158915630Y-116898948D01*
X158919341Y-116898394D01*
X158951537Y-116890692D01*
X158978715Y-116880117D01*
X159001237Y-116866399D01*
X159019468Y-116849262D01*
X159033771Y-116828435D01*
X159044185Y-116804595D01*
X159046955Y-116796082D01*
X159049189Y-116787801D01*
X159050858Y-116779235D01*
X159051931Y-116769867D01*
X159052153Y-116764557D01*
X158884088Y-116764557D01*
X158883723Y-116773185D01*
X158882589Y-116778604D01*
X158880416Y-116782196D01*
X158877416Y-116784957D01*
X158867180Y-116789753D01*
X158855358Y-116790054D01*
X158844359Y-116785813D01*
X158844047Y-116785602D01*
X158838781Y-116781574D01*
X158834320Y-116776964D01*
X158830477Y-116771135D01*
X158827068Y-116763453D01*
X158823907Y-116753279D01*
X158820809Y-116739979D01*
X158817588Y-116722916D01*
X158814060Y-116701453D01*
X158810038Y-116674955D01*
X158808230Y-116662667D01*
X158803653Y-116630563D01*
X158800183Y-116603856D01*
X158797866Y-116582061D01*
X158796748Y-116564693D01*
X158796875Y-116551268D01*
X158798293Y-116541300D01*
X158801047Y-116534305D01*
X158805184Y-116529799D01*
X158810749Y-116527296D01*
X158817788Y-116526312D01*
X158821140Y-116526236D01*
X158833236Y-116527940D01*
X158842591Y-116533601D01*
X158850286Y-116544035D01*
X158853635Y-116550816D01*
X158855874Y-116557928D01*
X158858645Y-116570025D01*
X158861804Y-116586155D01*
X158865206Y-116605364D01*
X158868708Y-116626700D01*
X158872166Y-116649209D01*
X158875435Y-116671939D01*
X158878372Y-116693937D01*
X158880832Y-116714250D01*
X158882672Y-116731925D01*
X158883747Y-116746010D01*
X158883951Y-116751340D01*
X158884088Y-116764557D01*
X159052153Y-116764557D01*
X159052378Y-116759179D01*
X159052170Y-116746654D01*
X159051277Y-116731774D01*
X159049669Y-116714021D01*
X159047316Y-116692879D01*
X159044189Y-116667830D01*
X159040257Y-116638357D01*
X159035491Y-116603941D01*
X159030641Y-116569565D01*
X159024134Y-116523961D01*
X159018309Y-116483857D01*
X159013086Y-116448826D01*
X159008383Y-116418443D01*
X159004117Y-116392279D01*
X159000207Y-116369908D01*
X158996571Y-116350902D01*
X158993126Y-116334836D01*
X158989792Y-116321283D01*
X158986486Y-116309814D01*
X158983127Y-116300004D01*
X158979632Y-116291426D01*
X158975920Y-116283652D01*
X158975736Y-116283294D01*
X158967850Y-116268697D01*
X158960494Y-116257125D01*
X158952150Y-116246511D01*
X158941302Y-116234785D01*
X158936744Y-116230148D01*
X158912625Y-116209900D01*
X158884107Y-116193111D01*
X158851949Y-116180220D01*
X158848612Y-116179177D01*
X158838264Y-116176154D01*
X158829237Y-116173972D01*
X158820204Y-116172492D01*
X158809836Y-116171572D01*
X158796806Y-116171073D01*
X158779789Y-116170855D01*
X158769423Y-116170807D01*
X158748033Y-116170882D01*
X158748033Y-116170882D01*
G37*
X158748033Y-116170882D02*
X158731441Y-116171322D01*
X158718473Y-116172210D01*
X158707958Y-116173631D01*
X158698723Y-116175668D01*
X158697706Y-116175941D01*
X158668463Y-116186423D01*
X158643778Y-116200599D01*
X158623752Y-116218374D01*
X158608488Y-116239649D01*
X158598088Y-116264327D01*
X158595883Y-116272588D01*
X158594356Y-116282551D01*
X158593247Y-116296506D01*
X158592585Y-116312694D01*
X158592398Y-116329355D01*
X158592714Y-116344732D01*
X158593564Y-116357066D01*
X158594418Y-116362630D01*
X158596581Y-116372341D01*
X158679837Y-116372341D01*
X158701526Y-116372264D01*
X158721201Y-116372046D01*
X158738088Y-116371707D01*
X158751414Y-116371269D01*
X158760406Y-116370751D01*
X158764290Y-116370174D01*
X158764377Y-116370100D01*
X158764520Y-116366379D01*
X158763899Y-116358087D01*
X158762635Y-116346564D01*
X158761359Y-116336759D01*
X158759719Y-116323050D01*
X158758732Y-116310922D01*
X158758505Y-116301991D01*
X158758835Y-116298583D01*
X158763907Y-116288449D01*
X158772239Y-116282146D01*
X158782604Y-116279555D01*
X158793772Y-116280559D01*
X158804519Y-116285039D01*
X158813616Y-116292879D01*
X158819835Y-116303960D01*
X158820003Y-116304457D01*
X158821170Y-116309588D01*
X158823022Y-116319602D01*
X158825397Y-116333465D01*
X158828136Y-116350143D01*
X158831079Y-116368602D01*
X158834065Y-116387808D01*
X158836935Y-116406729D01*
X158839529Y-116424329D01*
X158841687Y-116439575D01*
X158843249Y-116451433D01*
X158844055Y-116458869D01*
X158844129Y-116460360D01*
X158842367Y-116460819D01*
X158837683Y-116457339D01*
X158831796Y-116451463D01*
X158815632Y-116437762D01*
X158795391Y-116426662D01*
X158772688Y-116418959D01*
X158760695Y-116416594D01*
X158733948Y-116415197D01*
X158708353Y-116418797D01*
X158684691Y-116427029D01*
X158663741Y-116439528D01*
X158646281Y-116455928D01*
X158633090Y-116475866D01*
X158632773Y-116476507D01*
X158629524Y-116483415D01*
X158627267Y-116489515D01*
X158625831Y-116496096D01*
X158625044Y-116504444D01*
X158624735Y-116515849D01*
X158624731Y-116531598D01*
X158624760Y-116536694D01*
X158625521Y-116558496D01*
X158627449Y-116583639D01*
X158630380Y-116611132D01*
X158634149Y-116639987D01*
X158638590Y-116669213D01*
X158643540Y-116697820D01*
X158648833Y-116724819D01*
X158654303Y-116749220D01*
X158659788Y-116770033D01*
X158665120Y-116786269D01*
X158667178Y-116791270D01*
X158675377Y-116806086D01*
X158686883Y-116822325D01*
X158700110Y-116837984D01*
X158713471Y-116851057D01*
X158716512Y-116853581D01*
X158732133Y-116864286D01*
X158751459Y-116874931D01*
X158772304Y-116884454D01*
X158792481Y-116891796D01*
X158799306Y-116893739D01*
X158811045Y-116895913D01*
X158827087Y-116897715D01*
X158845826Y-116899081D01*
X158865655Y-116899950D01*
X158884970Y-116900259D01*
X158902164Y-116899946D01*
X158915630Y-116898948D01*
X158919341Y-116898394D01*
X158951537Y-116890692D01*
X158978715Y-116880117D01*
X159001237Y-116866399D01*
X159019468Y-116849262D01*
X159033771Y-116828435D01*
X159044185Y-116804595D01*
X159046955Y-116796082D01*
X159049189Y-116787801D01*
X159050858Y-116779235D01*
X159051931Y-116769867D01*
X159052153Y-116764557D01*
X158884088Y-116764557D01*
X158883723Y-116773185D01*
X158882589Y-116778604D01*
X158880416Y-116782196D01*
X158877416Y-116784957D01*
X158867180Y-116789753D01*
X158855358Y-116790054D01*
X158844359Y-116785813D01*
X158844047Y-116785602D01*
X158838781Y-116781574D01*
X158834320Y-116776964D01*
X158830477Y-116771135D01*
X158827068Y-116763453D01*
X158823907Y-116753279D01*
X158820809Y-116739979D01*
X158817588Y-116722916D01*
X158814060Y-116701453D01*
X158810038Y-116674955D01*
X158808230Y-116662667D01*
X158803653Y-116630563D01*
X158800183Y-116603856D01*
X158797866Y-116582061D01*
X158796748Y-116564693D01*
X158796875Y-116551268D01*
X158798293Y-116541300D01*
X158801047Y-116534305D01*
X158805184Y-116529799D01*
X158810749Y-116527296D01*
X158817788Y-116526312D01*
X158821140Y-116526236D01*
X158833236Y-116527940D01*
X158842591Y-116533601D01*
X158850286Y-116544035D01*
X158853635Y-116550816D01*
X158855874Y-116557928D01*
X158858645Y-116570025D01*
X158861804Y-116586155D01*
X158865206Y-116605364D01*
X158868708Y-116626700D01*
X158872166Y-116649209D01*
X158875435Y-116671939D01*
X158878372Y-116693937D01*
X158880832Y-116714250D01*
X158882672Y-116731925D01*
X158883747Y-116746010D01*
X158883951Y-116751340D01*
X158884088Y-116764557D01*
X159052153Y-116764557D01*
X159052378Y-116759179D01*
X159052170Y-116746654D01*
X159051277Y-116731774D01*
X159049669Y-116714021D01*
X159047316Y-116692879D01*
X159044189Y-116667830D01*
X159040257Y-116638357D01*
X159035491Y-116603941D01*
X159030641Y-116569565D01*
X159024134Y-116523961D01*
X159018309Y-116483857D01*
X159013086Y-116448826D01*
X159008383Y-116418443D01*
X159004117Y-116392279D01*
X159000207Y-116369908D01*
X158996571Y-116350902D01*
X158993126Y-116334836D01*
X158989792Y-116321283D01*
X158986486Y-116309814D01*
X158983127Y-116300004D01*
X158979632Y-116291426D01*
X158975920Y-116283652D01*
X158975736Y-116283294D01*
X158967850Y-116268697D01*
X158960494Y-116257125D01*
X158952150Y-116246511D01*
X158941302Y-116234785D01*
X158936744Y-116230148D01*
X158912625Y-116209900D01*
X158884107Y-116193111D01*
X158851949Y-116180220D01*
X158848612Y-116179177D01*
X158838264Y-116176154D01*
X158829237Y-116173972D01*
X158820204Y-116172492D01*
X158809836Y-116171572D01*
X158796806Y-116171073D01*
X158779789Y-116170855D01*
X158769423Y-116170807D01*
X158748033Y-116170882D01*
D12*
X172720000Y-100330000D03*
D13*
X170180000Y-100330000D03*
X167640000Y-100330000D03*
X165100000Y-100330000D03*
X162560000Y-100330000D03*
X160020000Y-100330000D03*
X157480000Y-100330000D03*
X154940000Y-100330000D03*
X152400000Y-100330000D03*
X149860000Y-100330000D03*
X147320000Y-100330000D03*
X144780000Y-100330000D03*
X142240000Y-100330000D03*
X139700000Y-100330000D03*
X137160000Y-100330000D03*
X134620000Y-100330000D03*
X132080000Y-100330000D03*
X129540000Y-100330000D03*
D14*
X129540000Y-116840000D03*
D15*
X129540000Y-114300000D03*
X129540000Y-111760000D03*
X129540000Y-109220000D03*
X129540000Y-106680000D03*
X129540000Y-104140000D03*
D12*
X129540000Y-120650000D03*
D13*
X132080000Y-120650000D03*
X134620000Y-120650000D03*
X137160000Y-120650000D03*
X139700000Y-120650000D03*
X142240000Y-120650000D03*
X144780000Y-120650000D03*
X147320000Y-120650000D03*
X149860000Y-120650000D03*
X152400000Y-120650000D03*
X154940000Y-120650000D03*
X157480000Y-120650000D03*
X160020000Y-120650000D03*
X162560000Y-120650000D03*
X165100000Y-120650000D03*
X167640000Y-120650000D03*
X170180000Y-120650000D03*
X172720000Y-120650000D03*
M02*
