%TF.GenerationSoftware,KiCad,Pcbnew,4.0.4-stable*%
%TF.CreationDate,2016-12-09T18:56:54+00:00*%
%TF.ProjectId,mightyduino,6D69676874796475696E6F2E6B696361,1.2*%
%TF.FileFunction,Soldermask,Top*%
%FSLAX46Y46*%
G04 Gerber Fmt 4.6, Leading zero omitted, Abs format (unit mm)*
G04 Created by KiCad (PCBNEW 4.0.4-stable) date Friday, 09 '09e' December '09e' 2016, 18:56:54*
%MOMM*%
%LPD*%
G01*
G04 APERTURE LIST*
%ADD10C,0.100000*%
%ADD11R,1.650000X1.400000*%
%ADD12R,1.400000X1.650000*%
%ADD13R,1.598880X1.598880*%
%ADD14R,1.650000X1.900000*%
%ADD15R,2.127200X2.432000*%
%ADD16O,2.127200X2.432000*%
%ADD17R,2.432000X2.127200*%
%ADD18O,2.432000X2.127200*%
%ADD19R,1.700000X1.100000*%
%ADD20R,1.100000X1.700000*%
%ADD21R,1.400000X2.100000*%
%ADD22R,1.460000X1.050000*%
G04 APERTURE END LIST*
D10*
D11*
X165100000Y-113030000D03*
X165100000Y-115030000D03*
D12*
X171180000Y-107315000D03*
X169180000Y-107315000D03*
X171180000Y-104140000D03*
X169180000Y-104140000D03*
D10*
G36*
X151781281Y-118625445D02*
X150614555Y-117458719D01*
X151604505Y-116468769D01*
X152771231Y-117635495D01*
X151781281Y-118625445D01*
X151781281Y-118625445D01*
G37*
G36*
X153195495Y-117211231D02*
X152028769Y-116044505D01*
X153018719Y-115054555D01*
X154185445Y-116221281D01*
X153195495Y-117211231D01*
X153195495Y-117211231D01*
G37*
D12*
X167275000Y-116205000D03*
X169275000Y-116205000D03*
D13*
X133350000Y-113858040D03*
X133350000Y-111760000D03*
D14*
X133350000Y-109200000D03*
X133350000Y-106700000D03*
D10*
G36*
X143060334Y-103157302D02*
X143739156Y-102478480D01*
X145153370Y-103892694D01*
X144474548Y-104571516D01*
X143060334Y-103157302D01*
X143060334Y-103157302D01*
G37*
G36*
X142494649Y-103722988D02*
X143173471Y-103044166D01*
X144587685Y-104458380D01*
X143908863Y-105137202D01*
X142494649Y-103722988D01*
X142494649Y-103722988D01*
G37*
G36*
X141928964Y-104288673D02*
X142607786Y-103609851D01*
X144022000Y-105024065D01*
X143343178Y-105702887D01*
X141928964Y-104288673D01*
X141928964Y-104288673D01*
G37*
G36*
X141363278Y-104854358D02*
X142042100Y-104175536D01*
X143456314Y-105589750D01*
X142777492Y-106268572D01*
X141363278Y-104854358D01*
X141363278Y-104854358D01*
G37*
G36*
X140797593Y-105420044D02*
X141476415Y-104741222D01*
X142890629Y-106155436D01*
X142211807Y-106834258D01*
X140797593Y-105420044D01*
X140797593Y-105420044D01*
G37*
G36*
X140231907Y-105985729D02*
X140910729Y-105306907D01*
X142324943Y-106721121D01*
X141646121Y-107399943D01*
X140231907Y-105985729D01*
X140231907Y-105985729D01*
G37*
G36*
X139666222Y-106551415D02*
X140345044Y-105872593D01*
X141759258Y-107286807D01*
X141080436Y-107965629D01*
X139666222Y-106551415D01*
X139666222Y-106551415D01*
G37*
G36*
X139100536Y-107117100D02*
X139779358Y-106438278D01*
X141193572Y-107852492D01*
X140514750Y-108531314D01*
X139100536Y-107117100D01*
X139100536Y-107117100D01*
G37*
G36*
X138534851Y-107682786D02*
X139213673Y-107003964D01*
X140627887Y-108418178D01*
X139949065Y-109097000D01*
X138534851Y-107682786D01*
X138534851Y-107682786D01*
G37*
G36*
X137969166Y-108248471D02*
X138647988Y-107569649D01*
X140062202Y-108983863D01*
X139383380Y-109662685D01*
X137969166Y-108248471D01*
X137969166Y-108248471D01*
G37*
G36*
X137403480Y-108814156D02*
X138082302Y-108135334D01*
X139496516Y-109549548D01*
X138817694Y-110228370D01*
X137403480Y-108814156D01*
X137403480Y-108814156D01*
G37*
G36*
X138082302Y-112844666D02*
X137403480Y-112165844D01*
X138817694Y-110751630D01*
X139496516Y-111430452D01*
X138082302Y-112844666D01*
X138082302Y-112844666D01*
G37*
G36*
X138647988Y-113410351D02*
X137969166Y-112731529D01*
X139383380Y-111317315D01*
X140062202Y-111996137D01*
X138647988Y-113410351D01*
X138647988Y-113410351D01*
G37*
G36*
X139213673Y-113976036D02*
X138534851Y-113297214D01*
X139949065Y-111883000D01*
X140627887Y-112561822D01*
X139213673Y-113976036D01*
X139213673Y-113976036D01*
G37*
G36*
X139779358Y-114541722D02*
X139100536Y-113862900D01*
X140514750Y-112448686D01*
X141193572Y-113127508D01*
X139779358Y-114541722D01*
X139779358Y-114541722D01*
G37*
G36*
X140345044Y-115107407D02*
X139666222Y-114428585D01*
X141080436Y-113014371D01*
X141759258Y-113693193D01*
X140345044Y-115107407D01*
X140345044Y-115107407D01*
G37*
G36*
X140910729Y-115673093D02*
X140231907Y-114994271D01*
X141646121Y-113580057D01*
X142324943Y-114258879D01*
X140910729Y-115673093D01*
X140910729Y-115673093D01*
G37*
G36*
X141476415Y-116238778D02*
X140797593Y-115559956D01*
X142211807Y-114145742D01*
X142890629Y-114824564D01*
X141476415Y-116238778D01*
X141476415Y-116238778D01*
G37*
G36*
X142042100Y-116804464D02*
X141363278Y-116125642D01*
X142777492Y-114711428D01*
X143456314Y-115390250D01*
X142042100Y-116804464D01*
X142042100Y-116804464D01*
G37*
G36*
X142607786Y-117370149D02*
X141928964Y-116691327D01*
X143343178Y-115277113D01*
X144022000Y-115955935D01*
X142607786Y-117370149D01*
X142607786Y-117370149D01*
G37*
G36*
X143173471Y-117935834D02*
X142494649Y-117257012D01*
X143908863Y-115842798D01*
X144587685Y-116521620D01*
X143173471Y-117935834D01*
X143173471Y-117935834D01*
G37*
G36*
X143739156Y-118501520D02*
X143060334Y-117822698D01*
X144474548Y-116408484D01*
X145153370Y-117087306D01*
X143739156Y-118501520D01*
X143739156Y-118501520D01*
G37*
G36*
X145676630Y-117087306D02*
X146355452Y-116408484D01*
X147769666Y-117822698D01*
X147090844Y-118501520D01*
X145676630Y-117087306D01*
X145676630Y-117087306D01*
G37*
G36*
X146242315Y-116521620D02*
X146921137Y-115842798D01*
X148335351Y-117257012D01*
X147656529Y-117935834D01*
X146242315Y-116521620D01*
X146242315Y-116521620D01*
G37*
G36*
X146808000Y-115955935D02*
X147486822Y-115277113D01*
X148901036Y-116691327D01*
X148222214Y-117370149D01*
X146808000Y-115955935D01*
X146808000Y-115955935D01*
G37*
G36*
X147373686Y-115390250D02*
X148052508Y-114711428D01*
X149466722Y-116125642D01*
X148787900Y-116804464D01*
X147373686Y-115390250D01*
X147373686Y-115390250D01*
G37*
G36*
X147939371Y-114824564D02*
X148618193Y-114145742D01*
X150032407Y-115559956D01*
X149353585Y-116238778D01*
X147939371Y-114824564D01*
X147939371Y-114824564D01*
G37*
G36*
X148505057Y-114258879D02*
X149183879Y-113580057D01*
X150598093Y-114994271D01*
X149919271Y-115673093D01*
X148505057Y-114258879D01*
X148505057Y-114258879D01*
G37*
G36*
X149070742Y-113693193D02*
X149749564Y-113014371D01*
X151163778Y-114428585D01*
X150484956Y-115107407D01*
X149070742Y-113693193D01*
X149070742Y-113693193D01*
G37*
G36*
X149636428Y-113127508D02*
X150315250Y-112448686D01*
X151729464Y-113862900D01*
X151050642Y-114541722D01*
X149636428Y-113127508D01*
X149636428Y-113127508D01*
G37*
G36*
X150202113Y-112561822D02*
X150880935Y-111883000D01*
X152295149Y-113297214D01*
X151616327Y-113976036D01*
X150202113Y-112561822D01*
X150202113Y-112561822D01*
G37*
G36*
X150767798Y-111996137D02*
X151446620Y-111317315D01*
X152860834Y-112731529D01*
X152182012Y-113410351D01*
X150767798Y-111996137D01*
X150767798Y-111996137D01*
G37*
G36*
X151333484Y-111430452D02*
X152012306Y-110751630D01*
X153426520Y-112165844D01*
X152747698Y-112844666D01*
X151333484Y-111430452D01*
X151333484Y-111430452D01*
G37*
G36*
X152012306Y-110228370D02*
X151333484Y-109549548D01*
X152747698Y-108135334D01*
X153426520Y-108814156D01*
X152012306Y-110228370D01*
X152012306Y-110228370D01*
G37*
G36*
X151446620Y-109662685D02*
X150767798Y-108983863D01*
X152182012Y-107569649D01*
X152860834Y-108248471D01*
X151446620Y-109662685D01*
X151446620Y-109662685D01*
G37*
G36*
X150880935Y-109097000D02*
X150202113Y-108418178D01*
X151616327Y-107003964D01*
X152295149Y-107682786D01*
X150880935Y-109097000D01*
X150880935Y-109097000D01*
G37*
G36*
X150315250Y-108531314D02*
X149636428Y-107852492D01*
X151050642Y-106438278D01*
X151729464Y-107117100D01*
X150315250Y-108531314D01*
X150315250Y-108531314D01*
G37*
G36*
X149749564Y-107965629D02*
X149070742Y-107286807D01*
X150484956Y-105872593D01*
X151163778Y-106551415D01*
X149749564Y-107965629D01*
X149749564Y-107965629D01*
G37*
G36*
X149183879Y-107399943D02*
X148505057Y-106721121D01*
X149919271Y-105306907D01*
X150598093Y-105985729D01*
X149183879Y-107399943D01*
X149183879Y-107399943D01*
G37*
G36*
X148618193Y-106834258D02*
X147939371Y-106155436D01*
X149353585Y-104741222D01*
X150032407Y-105420044D01*
X148618193Y-106834258D01*
X148618193Y-106834258D01*
G37*
G36*
X148052508Y-106268572D02*
X147373686Y-105589750D01*
X148787900Y-104175536D01*
X149466722Y-104854358D01*
X148052508Y-106268572D01*
X148052508Y-106268572D01*
G37*
G36*
X147486822Y-105702887D02*
X146808000Y-105024065D01*
X148222214Y-103609851D01*
X148901036Y-104288673D01*
X147486822Y-105702887D01*
X147486822Y-105702887D01*
G37*
G36*
X146921137Y-105137202D02*
X146242315Y-104458380D01*
X147656529Y-103044166D01*
X148335351Y-103722988D01*
X146921137Y-105137202D01*
X146921137Y-105137202D01*
G37*
G36*
X146355452Y-104571516D02*
X145676630Y-103892694D01*
X147090844Y-102478480D01*
X147769666Y-103157302D01*
X146355452Y-104571516D01*
X146355452Y-104571516D01*
G37*
D15*
X172720000Y-100330000D03*
D16*
X170180000Y-100330000D03*
X167640000Y-100330000D03*
X165100000Y-100330000D03*
X162560000Y-100330000D03*
X160020000Y-100330000D03*
X157480000Y-100330000D03*
X154940000Y-100330000D03*
X152400000Y-100330000D03*
X149860000Y-100330000D03*
X147320000Y-100330000D03*
X144780000Y-100330000D03*
X142240000Y-100330000D03*
X139700000Y-100330000D03*
X137160000Y-100330000D03*
X134620000Y-100330000D03*
X132080000Y-100330000D03*
X129540000Y-100330000D03*
D17*
X129540000Y-116840000D03*
D18*
X129540000Y-114300000D03*
X129540000Y-111760000D03*
X129540000Y-109220000D03*
X129540000Y-106680000D03*
X129540000Y-104140000D03*
D15*
X129540000Y-120650000D03*
D16*
X132080000Y-120650000D03*
X134620000Y-120650000D03*
X137160000Y-120650000D03*
X139700000Y-120650000D03*
X142240000Y-120650000D03*
X144780000Y-120650000D03*
X147320000Y-120650000D03*
X149860000Y-120650000D03*
X152400000Y-120650000D03*
X154940000Y-120650000D03*
X157480000Y-120650000D03*
X160020000Y-120650000D03*
X162560000Y-120650000D03*
X165100000Y-120650000D03*
X167640000Y-120650000D03*
X170180000Y-120650000D03*
X172720000Y-120650000D03*
D19*
X136525000Y-113985000D03*
X136525000Y-115885000D03*
D20*
X171135000Y-116840000D03*
X173035000Y-116840000D03*
X166685000Y-106045000D03*
X164785000Y-106045000D03*
D21*
X161285000Y-107340000D03*
X161285000Y-113640000D03*
X157485000Y-107340000D03*
X157485000Y-113640000D03*
D10*
G36*
X137467256Y-104445860D02*
X138810758Y-105789362D01*
X138174362Y-106425758D01*
X136830860Y-105082256D01*
X137467256Y-104445860D01*
X137467256Y-104445860D01*
G37*
G36*
X136618728Y-105294389D02*
X137962230Y-106637891D01*
X137325834Y-107274287D01*
X135982332Y-105930785D01*
X136618728Y-105294389D01*
X136618728Y-105294389D01*
G37*
G36*
X138315785Y-103597332D02*
X139659287Y-104940834D01*
X139022891Y-105577230D01*
X137679389Y-104233728D01*
X138315785Y-103597332D01*
X138315785Y-103597332D01*
G37*
D11*
X173228000Y-108680000D03*
X173228000Y-106680000D03*
D22*
X168910000Y-109860000D03*
X168910000Y-110810000D03*
X168910000Y-111760000D03*
X171110000Y-111760000D03*
X171110000Y-109860000D03*
D12*
X134350000Y-116840000D03*
X132350000Y-116840000D03*
D13*
X171135040Y-114173000D03*
X169037000Y-114173000D03*
M02*
