%TF.GenerationSoftware,KiCad,Pcbnew,4.0.4-stable*%
%TF.CreationDate,2016-12-07T16:46:42+00:00*%
%TF.ProjectId,mightyduino,6D69676874796475696E6F2E6B696361,1.1*%
%TF.FileFunction,Copper,L1,Top,Signal*%
%FSLAX46Y46*%
G04 Gerber Fmt 4.6, Leading zero omitted, Abs format (unit mm)*
G04 Created by KiCad (PCBNEW 4.0.4-stable) date Wednesday, 07 '07e' December '07e' 2016, 16:46:42*
%MOMM*%
%LPD*%
G01*
G04 APERTURE LIST*
%ADD10C,0.100000*%
%ADD11R,1.250000X1.000000*%
%ADD12R,1.000000X1.250000*%
%ADD13R,1.198880X1.198880*%
%ADD14R,1.250000X1.500000*%
%ADD15R,1.727200X2.032000*%
%ADD16O,1.727200X2.032000*%
%ADD17R,2.032000X1.727200*%
%ADD18O,2.032000X1.727200*%
%ADD19R,1.300000X0.700000*%
%ADD20R,0.700000X1.300000*%
%ADD21R,1.000000X1.700000*%
%ADD22R,1.060000X0.650000*%
%ADD23C,1.000000*%
%ADD24C,0.400000*%
%ADD25C,0.254000*%
G04 APERTURE END LIST*
D10*
D11*
X165100000Y-113030000D03*
X165100000Y-115030000D03*
D12*
X171180000Y-107315000D03*
X169180000Y-107315000D03*
X171180000Y-104140000D03*
X169180000Y-104140000D03*
D10*
G36*
X151781281Y-118342602D02*
X150897398Y-117458719D01*
X151604505Y-116751612D01*
X152488388Y-117635495D01*
X151781281Y-118342602D01*
X151781281Y-118342602D01*
G37*
G36*
X153195495Y-116928388D02*
X152311612Y-116044505D01*
X153018719Y-115337398D01*
X153902602Y-116221281D01*
X153195495Y-116928388D01*
X153195495Y-116928388D01*
G37*
D12*
X167275000Y-116205000D03*
X169275000Y-116205000D03*
D13*
X133350000Y-113858040D03*
X133350000Y-111760000D03*
D14*
X133350000Y-109200000D03*
X133350000Y-106700000D03*
D10*
G36*
X143343177Y-103157302D02*
X143739156Y-102761323D01*
X144870527Y-103892694D01*
X144474548Y-104288673D01*
X143343177Y-103157302D01*
X143343177Y-103157302D01*
G37*
G36*
X142777492Y-103722988D02*
X143173471Y-103327009D01*
X144304842Y-104458380D01*
X143908863Y-104854359D01*
X142777492Y-103722988D01*
X142777492Y-103722988D01*
G37*
G36*
X142211807Y-104288673D02*
X142607786Y-103892694D01*
X143739157Y-105024065D01*
X143343178Y-105420044D01*
X142211807Y-104288673D01*
X142211807Y-104288673D01*
G37*
G36*
X141646121Y-104854358D02*
X142042100Y-104458379D01*
X143173471Y-105589750D01*
X142777492Y-105985729D01*
X141646121Y-104854358D01*
X141646121Y-104854358D01*
G37*
G36*
X141080436Y-105420044D02*
X141476415Y-105024065D01*
X142607786Y-106155436D01*
X142211807Y-106551415D01*
X141080436Y-105420044D01*
X141080436Y-105420044D01*
G37*
G36*
X140514750Y-105985729D02*
X140910729Y-105589750D01*
X142042100Y-106721121D01*
X141646121Y-107117100D01*
X140514750Y-105985729D01*
X140514750Y-105985729D01*
G37*
G36*
X139949065Y-106551415D02*
X140345044Y-106155436D01*
X141476415Y-107286807D01*
X141080436Y-107682786D01*
X139949065Y-106551415D01*
X139949065Y-106551415D01*
G37*
G36*
X139383379Y-107117100D02*
X139779358Y-106721121D01*
X140910729Y-107852492D01*
X140514750Y-108248471D01*
X139383379Y-107117100D01*
X139383379Y-107117100D01*
G37*
G36*
X138817694Y-107682786D02*
X139213673Y-107286807D01*
X140345044Y-108418178D01*
X139949065Y-108814157D01*
X138817694Y-107682786D01*
X138817694Y-107682786D01*
G37*
G36*
X138252009Y-108248471D02*
X138647988Y-107852492D01*
X139779359Y-108983863D01*
X139383380Y-109379842D01*
X138252009Y-108248471D01*
X138252009Y-108248471D01*
G37*
G36*
X137686323Y-108814156D02*
X138082302Y-108418177D01*
X139213673Y-109549548D01*
X138817694Y-109945527D01*
X137686323Y-108814156D01*
X137686323Y-108814156D01*
G37*
G36*
X138082302Y-112561823D02*
X137686323Y-112165844D01*
X138817694Y-111034473D01*
X139213673Y-111430452D01*
X138082302Y-112561823D01*
X138082302Y-112561823D01*
G37*
G36*
X138647988Y-113127508D02*
X138252009Y-112731529D01*
X139383380Y-111600158D01*
X139779359Y-111996137D01*
X138647988Y-113127508D01*
X138647988Y-113127508D01*
G37*
G36*
X139213673Y-113693193D02*
X138817694Y-113297214D01*
X139949065Y-112165843D01*
X140345044Y-112561822D01*
X139213673Y-113693193D01*
X139213673Y-113693193D01*
G37*
G36*
X139779358Y-114258879D02*
X139383379Y-113862900D01*
X140514750Y-112731529D01*
X140910729Y-113127508D01*
X139779358Y-114258879D01*
X139779358Y-114258879D01*
G37*
G36*
X140345044Y-114824564D02*
X139949065Y-114428585D01*
X141080436Y-113297214D01*
X141476415Y-113693193D01*
X140345044Y-114824564D01*
X140345044Y-114824564D01*
G37*
G36*
X140910729Y-115390250D02*
X140514750Y-114994271D01*
X141646121Y-113862900D01*
X142042100Y-114258879D01*
X140910729Y-115390250D01*
X140910729Y-115390250D01*
G37*
G36*
X141476415Y-115955935D02*
X141080436Y-115559956D01*
X142211807Y-114428585D01*
X142607786Y-114824564D01*
X141476415Y-115955935D01*
X141476415Y-115955935D01*
G37*
G36*
X142042100Y-116521621D02*
X141646121Y-116125642D01*
X142777492Y-114994271D01*
X143173471Y-115390250D01*
X142042100Y-116521621D01*
X142042100Y-116521621D01*
G37*
G36*
X142607786Y-117087306D02*
X142211807Y-116691327D01*
X143343178Y-115559956D01*
X143739157Y-115955935D01*
X142607786Y-117087306D01*
X142607786Y-117087306D01*
G37*
G36*
X143173471Y-117652991D02*
X142777492Y-117257012D01*
X143908863Y-116125641D01*
X144304842Y-116521620D01*
X143173471Y-117652991D01*
X143173471Y-117652991D01*
G37*
G36*
X143739156Y-118218677D02*
X143343177Y-117822698D01*
X144474548Y-116691327D01*
X144870527Y-117087306D01*
X143739156Y-118218677D01*
X143739156Y-118218677D01*
G37*
G36*
X145959473Y-117087306D02*
X146355452Y-116691327D01*
X147486823Y-117822698D01*
X147090844Y-118218677D01*
X145959473Y-117087306D01*
X145959473Y-117087306D01*
G37*
G36*
X146525158Y-116521620D02*
X146921137Y-116125641D01*
X148052508Y-117257012D01*
X147656529Y-117652991D01*
X146525158Y-116521620D01*
X146525158Y-116521620D01*
G37*
G36*
X147090843Y-115955935D02*
X147486822Y-115559956D01*
X148618193Y-116691327D01*
X148222214Y-117087306D01*
X147090843Y-115955935D01*
X147090843Y-115955935D01*
G37*
G36*
X147656529Y-115390250D02*
X148052508Y-114994271D01*
X149183879Y-116125642D01*
X148787900Y-116521621D01*
X147656529Y-115390250D01*
X147656529Y-115390250D01*
G37*
G36*
X148222214Y-114824564D02*
X148618193Y-114428585D01*
X149749564Y-115559956D01*
X149353585Y-115955935D01*
X148222214Y-114824564D01*
X148222214Y-114824564D01*
G37*
G36*
X148787900Y-114258879D02*
X149183879Y-113862900D01*
X150315250Y-114994271D01*
X149919271Y-115390250D01*
X148787900Y-114258879D01*
X148787900Y-114258879D01*
G37*
G36*
X149353585Y-113693193D02*
X149749564Y-113297214D01*
X150880935Y-114428585D01*
X150484956Y-114824564D01*
X149353585Y-113693193D01*
X149353585Y-113693193D01*
G37*
G36*
X149919271Y-113127508D02*
X150315250Y-112731529D01*
X151446621Y-113862900D01*
X151050642Y-114258879D01*
X149919271Y-113127508D01*
X149919271Y-113127508D01*
G37*
G36*
X150484956Y-112561822D02*
X150880935Y-112165843D01*
X152012306Y-113297214D01*
X151616327Y-113693193D01*
X150484956Y-112561822D01*
X150484956Y-112561822D01*
G37*
G36*
X151050641Y-111996137D02*
X151446620Y-111600158D01*
X152577991Y-112731529D01*
X152182012Y-113127508D01*
X151050641Y-111996137D01*
X151050641Y-111996137D01*
G37*
G36*
X151616327Y-111430452D02*
X152012306Y-111034473D01*
X153143677Y-112165844D01*
X152747698Y-112561823D01*
X151616327Y-111430452D01*
X151616327Y-111430452D01*
G37*
G36*
X152012306Y-109945527D02*
X151616327Y-109549548D01*
X152747698Y-108418177D01*
X153143677Y-108814156D01*
X152012306Y-109945527D01*
X152012306Y-109945527D01*
G37*
G36*
X151446620Y-109379842D02*
X151050641Y-108983863D01*
X152182012Y-107852492D01*
X152577991Y-108248471D01*
X151446620Y-109379842D01*
X151446620Y-109379842D01*
G37*
G36*
X150880935Y-108814157D02*
X150484956Y-108418178D01*
X151616327Y-107286807D01*
X152012306Y-107682786D01*
X150880935Y-108814157D01*
X150880935Y-108814157D01*
G37*
G36*
X150315250Y-108248471D02*
X149919271Y-107852492D01*
X151050642Y-106721121D01*
X151446621Y-107117100D01*
X150315250Y-108248471D01*
X150315250Y-108248471D01*
G37*
G36*
X149749564Y-107682786D02*
X149353585Y-107286807D01*
X150484956Y-106155436D01*
X150880935Y-106551415D01*
X149749564Y-107682786D01*
X149749564Y-107682786D01*
G37*
G36*
X149183879Y-107117100D02*
X148787900Y-106721121D01*
X149919271Y-105589750D01*
X150315250Y-105985729D01*
X149183879Y-107117100D01*
X149183879Y-107117100D01*
G37*
G36*
X148618193Y-106551415D02*
X148222214Y-106155436D01*
X149353585Y-105024065D01*
X149749564Y-105420044D01*
X148618193Y-106551415D01*
X148618193Y-106551415D01*
G37*
G36*
X148052508Y-105985729D02*
X147656529Y-105589750D01*
X148787900Y-104458379D01*
X149183879Y-104854358D01*
X148052508Y-105985729D01*
X148052508Y-105985729D01*
G37*
G36*
X147486822Y-105420044D02*
X147090843Y-105024065D01*
X148222214Y-103892694D01*
X148618193Y-104288673D01*
X147486822Y-105420044D01*
X147486822Y-105420044D01*
G37*
G36*
X146921137Y-104854359D02*
X146525158Y-104458380D01*
X147656529Y-103327009D01*
X148052508Y-103722988D01*
X146921137Y-104854359D01*
X146921137Y-104854359D01*
G37*
G36*
X146355452Y-104288673D02*
X145959473Y-103892694D01*
X147090844Y-102761323D01*
X147486823Y-103157302D01*
X146355452Y-104288673D01*
X146355452Y-104288673D01*
G37*
D15*
X172720000Y-100330000D03*
D16*
X170180000Y-100330000D03*
X167640000Y-100330000D03*
X165100000Y-100330000D03*
X162560000Y-100330000D03*
X160020000Y-100330000D03*
X157480000Y-100330000D03*
X154940000Y-100330000D03*
X152400000Y-100330000D03*
X149860000Y-100330000D03*
X147320000Y-100330000D03*
X144780000Y-100330000D03*
X142240000Y-100330000D03*
X139700000Y-100330000D03*
X137160000Y-100330000D03*
X134620000Y-100330000D03*
X132080000Y-100330000D03*
X129540000Y-100330000D03*
D17*
X129540000Y-116840000D03*
D18*
X129540000Y-114300000D03*
X129540000Y-111760000D03*
X129540000Y-109220000D03*
X129540000Y-106680000D03*
X129540000Y-104140000D03*
D15*
X129540000Y-120650000D03*
D16*
X132080000Y-120650000D03*
X134620000Y-120650000D03*
X137160000Y-120650000D03*
X139700000Y-120650000D03*
X142240000Y-120650000D03*
X144780000Y-120650000D03*
X147320000Y-120650000D03*
X149860000Y-120650000D03*
X152400000Y-120650000D03*
X154940000Y-120650000D03*
X157480000Y-120650000D03*
X160020000Y-120650000D03*
X162560000Y-120650000D03*
X165100000Y-120650000D03*
X167640000Y-120650000D03*
X170180000Y-120650000D03*
X172720000Y-120650000D03*
D19*
X136525000Y-113985000D03*
X136525000Y-115885000D03*
D20*
X171135000Y-116840000D03*
X173035000Y-116840000D03*
X166685000Y-106045000D03*
X164785000Y-106045000D03*
D21*
X161285000Y-107340000D03*
X161285000Y-113640000D03*
X157485000Y-107340000D03*
X157485000Y-113640000D03*
D10*
G36*
X137467256Y-104728702D02*
X138527916Y-105789362D01*
X138174362Y-106142916D01*
X137113702Y-105082256D01*
X137467256Y-104728702D01*
X137467256Y-104728702D01*
G37*
G36*
X136618728Y-105577231D02*
X137679388Y-106637891D01*
X137325834Y-106991445D01*
X136265174Y-105930785D01*
X136618728Y-105577231D01*
X136618728Y-105577231D01*
G37*
G36*
X138315785Y-103880174D02*
X139376445Y-104940834D01*
X139022891Y-105294388D01*
X137962231Y-104233728D01*
X138315785Y-103880174D01*
X138315785Y-103880174D01*
G37*
D11*
X173228000Y-108680000D03*
X173228000Y-106680000D03*
D22*
X168910000Y-109860000D03*
X168910000Y-110810000D03*
X168910000Y-111760000D03*
X171110000Y-111760000D03*
X171110000Y-109860000D03*
D12*
X134350000Y-116840000D03*
X132350000Y-116840000D03*
D13*
X171135040Y-114173000D03*
X169037000Y-114173000D03*
D23*
X133935385Y-105233385D03*
X163822829Y-107956465D03*
X160020000Y-106934000D03*
X132282054Y-111760000D03*
X146165037Y-109790027D03*
X147706105Y-107945886D03*
X168402000Y-106172000D03*
X173228000Y-105410000D03*
X146860979Y-114562042D03*
X160985044Y-112306288D03*
X132080000Y-104140000D03*
X150447089Y-110959956D03*
X154305000Y-118110000D03*
X135948435Y-117503217D03*
X133052249Y-102169145D03*
X156083000Y-107569000D03*
X156210000Y-113030000D03*
X155702000Y-118364000D03*
X165862000Y-116332000D03*
X146526847Y-107988081D03*
X144984669Y-109788297D03*
X136652568Y-108344166D03*
X140651136Y-109508531D03*
X141796339Y-108775979D03*
X145781169Y-111200508D03*
X144556867Y-111903948D03*
X144147632Y-113010725D03*
X142513334Y-113151649D03*
X154958820Y-105886108D03*
X138607800Y-115011200D03*
D24*
X165710000Y-109860000D02*
X165710000Y-109843636D01*
X165710000Y-109843636D02*
X163822829Y-107956465D01*
X165100000Y-113030000D02*
X165100000Y-110470000D01*
X168910000Y-109860000D02*
X165710000Y-109860000D01*
X165710000Y-109860000D02*
X165100000Y-110470000D01*
X133350000Y-106700000D02*
X133350000Y-105550000D01*
X133666615Y-105233385D02*
X133935385Y-105233385D01*
X133350000Y-105550000D02*
X133666615Y-105233385D01*
X163836364Y-107970000D02*
X163822829Y-107956465D01*
X146104253Y-114611662D02*
X146153873Y-114562042D01*
X141844111Y-115192260D02*
X142424709Y-114611662D01*
X142424709Y-114611662D02*
X146104253Y-114611662D01*
X146153873Y-114562042D02*
X146860979Y-114562042D01*
X160020000Y-106934000D02*
X160879000Y-106934000D01*
X160879000Y-106934000D02*
X161285000Y-107340000D01*
X141278425Y-106353425D02*
X140642030Y-105717030D01*
X140642030Y-105717030D02*
X140642030Y-105669003D01*
X140642030Y-105669003D02*
X138473191Y-103500164D01*
X138473191Y-103500164D02*
X137686960Y-103500164D01*
X137686960Y-103500164D02*
X137219769Y-103967355D01*
X137219769Y-103967355D02*
X137219769Y-104438772D01*
X133350000Y-111760000D02*
X132282054Y-111760000D01*
X137219769Y-104438772D02*
X137134380Y-104353383D01*
X137134380Y-104353383D02*
X132293383Y-104353383D01*
X132293383Y-104353383D02*
X132080000Y-104140000D01*
X143789949Y-107315966D02*
X146165037Y-109691054D01*
X146165037Y-109691054D02*
X146165037Y-109790027D01*
X142240966Y-107315966D02*
X143789949Y-107315966D01*
X141278425Y-106353425D02*
X142240966Y-107315966D01*
X147959114Y-107945886D02*
X147706105Y-107945886D01*
X149551575Y-106353425D02*
X147959114Y-107945886D01*
X168402000Y-106172000D02*
X168402000Y-106537000D01*
X168402000Y-106537000D02*
X169180000Y-107315000D01*
X173228000Y-106680000D02*
X173228000Y-105410000D01*
X165100000Y-115030000D02*
X162325000Y-115030000D01*
X162325000Y-115030000D02*
X161285000Y-113990000D01*
X161285000Y-113990000D02*
X161285000Y-113640000D01*
X161201288Y-112306288D02*
X160985044Y-112306288D01*
X161285000Y-112390000D02*
X161201288Y-112306288D01*
X161285000Y-113640000D02*
X161285000Y-112390000D01*
X164975000Y-115030000D02*
X165100000Y-115030000D01*
X168910000Y-110810000D02*
X169499002Y-110810000D01*
X169820001Y-110489001D02*
X169820001Y-108980001D01*
X169820001Y-108980001D02*
X169180000Y-108340000D01*
X169499002Y-110810000D02*
X169820001Y-110489001D01*
X169180000Y-108340000D02*
X169180000Y-107315000D01*
X169180000Y-107315000D02*
X169180000Y-104140000D01*
X168910000Y-110810000D02*
X168910000Y-111760000D01*
X169130980Y-114300000D02*
X169130980Y-111980980D01*
X169130980Y-111980980D02*
X168910000Y-111760000D01*
X165100000Y-115030000D02*
X168400980Y-115030000D01*
X148929505Y-112477540D02*
X149947090Y-111459955D01*
X149551575Y-114626575D02*
X148929505Y-114004504D01*
X149947090Y-111459955D02*
X150447089Y-110959956D01*
X148929505Y-114004504D02*
X148929505Y-112477540D01*
X153107107Y-116132893D02*
X153107107Y-116912107D01*
X153107107Y-116912107D02*
X154305000Y-118110000D01*
X137219769Y-104438772D02*
X137219769Y-104834769D01*
X137219769Y-104834769D02*
X137820809Y-105435809D01*
X153107107Y-116132893D02*
X151057893Y-116132893D01*
X151057893Y-116132893D02*
X149551575Y-114626575D01*
X168400980Y-115030000D02*
X169130980Y-114300000D01*
X169275000Y-116205000D02*
X169275000Y-114444020D01*
X169275000Y-114444020D02*
X169130980Y-114300000D01*
X150753655Y-106282716D02*
X150117260Y-106919111D01*
X151107896Y-105928475D02*
X150753655Y-106282716D01*
X155381222Y-106766110D02*
X154542034Y-106766110D01*
X153704399Y-105928475D02*
X151107896Y-105928475D01*
X163932742Y-104995000D02*
X162999265Y-105928477D01*
X154542034Y-106766110D02*
X153704399Y-105928475D01*
X156218855Y-105928477D02*
X155381222Y-106766110D01*
X162999265Y-105928477D02*
X156218855Y-105928477D01*
X165935000Y-104995000D02*
X163932742Y-104995000D01*
X166685000Y-105745000D02*
X165935000Y-104995000D01*
X166685000Y-106045000D02*
X166685000Y-105745000D01*
X173035000Y-116840000D02*
X173059835Y-116815165D01*
X173059835Y-116815165D02*
X173059835Y-113486679D01*
X173059835Y-113486679D02*
X172424881Y-112851725D01*
X170319812Y-112851725D02*
X169979546Y-112511459D01*
X172424881Y-112851725D02*
X170319812Y-112851725D01*
X169979546Y-112511459D02*
X169979546Y-111195454D01*
X169979546Y-111195454D02*
X171315000Y-109860000D01*
X171315000Y-109860000D02*
X171110000Y-109860000D01*
X141844111Y-105787740D02*
X138976526Y-102920155D01*
X138976526Y-102920155D02*
X135451252Y-102920155D01*
X135451252Y-102920155D02*
X135165859Y-103205548D01*
X135165859Y-103205548D02*
X130626852Y-103205548D01*
X130626852Y-103205548D02*
X129692400Y-104140000D01*
X129692400Y-104140000D02*
X129540000Y-104140000D01*
X141873349Y-114031651D02*
X141278425Y-114626575D01*
X145045279Y-114031651D02*
X141873349Y-114031651D01*
X146667265Y-112409665D02*
X145045279Y-114031651D01*
X142480506Y-106424135D02*
X143718377Y-106424135D01*
X143718377Y-106424135D02*
X146176750Y-108882508D01*
X146176750Y-108882508D02*
X146732627Y-108882508D01*
X146732627Y-108882508D02*
X147443245Y-109593126D01*
X141844111Y-105787740D02*
X142480506Y-106424135D01*
X148985889Y-115192260D02*
X148985889Y-114994285D01*
X148985889Y-114994285D02*
X148407890Y-114416286D01*
X148407890Y-114416286D02*
X148407890Y-114303148D01*
X148407890Y-114303148D02*
X148335170Y-114230428D01*
X148335170Y-114230428D02*
X148335170Y-113001381D01*
X148335170Y-113001381D02*
X147205360Y-111871570D01*
X147205360Y-111871570D02*
X146667265Y-112409665D01*
X147443245Y-109593126D02*
X147443245Y-111633685D01*
X147443245Y-111633685D02*
X146667265Y-112409665D01*
X171110000Y-109860000D02*
X171110000Y-107385000D01*
X171110000Y-107385000D02*
X171180000Y-107315000D01*
X171180000Y-107315000D02*
X171180000Y-104330998D01*
X171180000Y-104330998D02*
X169984001Y-103134999D01*
X169984001Y-103134999D02*
X168375999Y-103134999D01*
X168375999Y-103134999D02*
X166685000Y-104825998D01*
X166685000Y-104825998D02*
X166685000Y-104995000D01*
X166685000Y-104995000D02*
X166685000Y-106045000D01*
X171180000Y-104265000D02*
X171180000Y-104140000D01*
X171180000Y-107190000D02*
X171180000Y-107315000D01*
X147443245Y-109593126D02*
X149480865Y-107555506D01*
X149480865Y-107555506D02*
X150117260Y-106919111D01*
X151692893Y-117547107D02*
X151340736Y-117547107D01*
X151340736Y-117547107D02*
X148985889Y-115192260D01*
X134438073Y-116805964D02*
X135251182Y-116805964D01*
X135251182Y-116805964D02*
X135448436Y-117003218D01*
X135448436Y-117003218D02*
X135948435Y-117503217D01*
X142409796Y-105222054D02*
X139356887Y-102169145D01*
X133759355Y-102169145D02*
X133052249Y-102169145D01*
X139356887Y-102169145D02*
X133759355Y-102169145D01*
X156083000Y-107569000D02*
X157256000Y-107569000D01*
X157256000Y-107569000D02*
X157485000Y-107340000D01*
X158385000Y-107340000D02*
X157485000Y-107340000D01*
X161162546Y-109496456D02*
X160541456Y-109496456D01*
X160541456Y-109496456D02*
X158385000Y-107340000D01*
X164785000Y-106045000D02*
X164035000Y-106045000D01*
X162531224Y-107548776D02*
X162531224Y-108127778D01*
X162531224Y-108127778D02*
X161162546Y-109496456D01*
X164035000Y-106045000D02*
X162531224Y-107548776D01*
X157485000Y-113640000D02*
X156820000Y-113640000D01*
X156820000Y-113640000D02*
X156210000Y-113030000D01*
X129540000Y-116840000D02*
X132359555Y-116840000D01*
X132359555Y-116840000D02*
X132374421Y-116854866D01*
X132374421Y-116854866D02*
X131750590Y-116854866D01*
X131750590Y-116854866D02*
X131733411Y-116837687D01*
X155202001Y-116983263D02*
X153176126Y-114957388D01*
X155702000Y-118364000D02*
X155202001Y-117864001D01*
X155202001Y-117864001D02*
X155202001Y-116983263D01*
X153176126Y-114957388D02*
X151013759Y-114957388D01*
X150753655Y-114697284D02*
X150117260Y-114060889D01*
X151013759Y-114957388D02*
X150753655Y-114697284D01*
X165989000Y-116205000D02*
X165862000Y-116332000D01*
X167275000Y-116205000D02*
X165989000Y-116205000D01*
X171135000Y-114394020D02*
X171229020Y-114300000D01*
X171135000Y-116840000D02*
X171135000Y-114394020D01*
X133350000Y-113858040D02*
X136398040Y-113858040D01*
X136398040Y-113858040D02*
X136525000Y-113985000D01*
X133350000Y-109200000D02*
X129560000Y-109200000D01*
X129560000Y-109200000D02*
X129540000Y-109220000D01*
X129540000Y-120650000D02*
X129540000Y-120497600D01*
X129387600Y-109220000D02*
X129540000Y-109220000D01*
X145325829Y-102306021D02*
X144375551Y-103256299D01*
X144375551Y-103256299D02*
X144106852Y-103524998D01*
X158196379Y-102306021D02*
X145325829Y-102306021D01*
X160020000Y-100482400D02*
X158196379Y-102306021D01*
X160020000Y-100330000D02*
X160020000Y-100482400D01*
X142904772Y-103454289D02*
X143541167Y-104090684D01*
X156083990Y-101726010D02*
X144237052Y-101726010D01*
X157480000Y-100330000D02*
X156083990Y-101726010D01*
X142904772Y-103058290D02*
X142904772Y-103454289D01*
X144237052Y-101726010D02*
X142904772Y-103058290D01*
X146307194Y-107988081D02*
X146526847Y-107988081D01*
X142975482Y-104656369D02*
X146307194Y-107988081D01*
X138669338Y-104587281D02*
X138691308Y-104587281D01*
X138691308Y-104587281D02*
X139821990Y-105717963D01*
X139821990Y-105717963D02*
X139821990Y-105940311D01*
X139821990Y-105940311D02*
X140712740Y-106831061D01*
X140712740Y-106831061D02*
X140712740Y-106919111D01*
X140147054Y-107484796D02*
X139397249Y-106734991D01*
X139397249Y-106734991D02*
X137448209Y-106734991D01*
X137448209Y-106734991D02*
X136997556Y-106284338D01*
X136997556Y-106284338D02*
X136972281Y-106284338D01*
X139581369Y-108050482D02*
X138944974Y-107414087D01*
X138944974Y-107414087D02*
X135922755Y-107414087D01*
X135922755Y-107414087D02*
X135231213Y-108105629D01*
X135231213Y-108105629D02*
X135231213Y-109377789D01*
X135231213Y-109377789D02*
X134112602Y-110496400D01*
X134112602Y-110496400D02*
X130956000Y-110496400D01*
X130956000Y-110496400D02*
X129692400Y-111760000D01*
X129692400Y-111760000D02*
X129540000Y-111760000D01*
X139581369Y-108050482D02*
X140159368Y-108628481D01*
X140672157Y-108628481D02*
X141404662Y-107895977D01*
X140159368Y-108628481D02*
X140672157Y-108628481D01*
X141404662Y-107895977D02*
X143092349Y-107895977D01*
X143092349Y-107895977D02*
X144484670Y-109288298D01*
X144484670Y-109288298D02*
X144984669Y-109788297D01*
X136652568Y-108344166D02*
X137359674Y-108344166D01*
X137359674Y-108344166D02*
X137665673Y-108038167D01*
X137665673Y-108038167D02*
X138437684Y-108038167D01*
X138437684Y-108038167D02*
X139015684Y-108616167D01*
X129540000Y-114300000D02*
X131025159Y-114300000D01*
X131025159Y-114300000D02*
X132585718Y-112739441D01*
X138393615Y-107994098D02*
X139015684Y-108616167D01*
X132585718Y-112739441D02*
X134253441Y-112739441D01*
X134253441Y-112739441D02*
X135690142Y-111302740D01*
X135690142Y-111302740D02*
X135690142Y-110142785D01*
X135690142Y-110142785D02*
X137838829Y-107994098D01*
X137838829Y-107994098D02*
X138393615Y-107994098D01*
X129540000Y-114300000D02*
X129387600Y-114300000D01*
X149860000Y-100177600D02*
X149860000Y-100330000D01*
X139529612Y-109818247D02*
X139839328Y-109508531D01*
X139944030Y-109508531D02*
X140651136Y-109508531D01*
X139839328Y-109508531D02*
X139944030Y-109508531D01*
X138449998Y-109181852D02*
X139086393Y-109818247D01*
X139086393Y-109818247D02*
X139529612Y-109818247D01*
X141073537Y-110388532D02*
X141796339Y-109665728D01*
X141796339Y-109665728D02*
X141796339Y-109483085D01*
X139859614Y-110388532D02*
X141073537Y-110388532D01*
X138449998Y-111798148D02*
X139859614Y-110388532D01*
X141796339Y-109483085D02*
X141796339Y-108775979D01*
X145549200Y-110968539D02*
X145781169Y-111200508D01*
X140410978Y-110968539D02*
X145549200Y-110968539D01*
X139015684Y-112363833D02*
X140410978Y-110968539D01*
X140962339Y-111548548D02*
X144201467Y-111548548D01*
X144201467Y-111548548D02*
X144556867Y-111903948D01*
X139581369Y-112929518D02*
X140962339Y-111548548D01*
X140147054Y-113495204D02*
X141513701Y-112128557D01*
X141513701Y-112128557D02*
X143265464Y-112128557D01*
X143265464Y-112128557D02*
X143647633Y-112510726D01*
X143647633Y-112510726D02*
X144147632Y-113010725D01*
X141806228Y-113151649D02*
X142513334Y-113151649D01*
X141621980Y-113151649D02*
X141806228Y-113151649D01*
X140712740Y-114060889D02*
X141621980Y-113151649D01*
X134620000Y-120497600D02*
X134620000Y-120650000D01*
X138737585Y-116380015D02*
X134620000Y-120497600D01*
X141787727Y-116380015D02*
X138737585Y-116380015D01*
X142409796Y-115757946D02*
X141787727Y-116380015D01*
X137160000Y-120650000D02*
X137160000Y-120497600D01*
X137160000Y-120497600D02*
X140697574Y-116960026D01*
X140697574Y-116960026D02*
X142339087Y-116960026D01*
X142339087Y-116960026D02*
X142975482Y-116323631D01*
X143541167Y-116889316D02*
X139780483Y-120650000D01*
X139780483Y-120650000D02*
X139700000Y-120650000D01*
X144106852Y-117455002D02*
X144106852Y-118783148D01*
X144106852Y-118783148D02*
X143656000Y-119234000D01*
X143656000Y-119234000D02*
X143503600Y-119234000D01*
X143503600Y-119234000D02*
X142240000Y-120497600D01*
X142240000Y-120497600D02*
X142240000Y-120650000D01*
X144780000Y-120650000D02*
X144780000Y-119398150D01*
X144780000Y-119398150D02*
X146723148Y-117455002D01*
X147320000Y-120650000D02*
X147320000Y-120497600D01*
X147320000Y-120497600D02*
X147955000Y-119862600D01*
X147955000Y-119862600D02*
X147955000Y-117555483D01*
X147955000Y-117555483D02*
X147925228Y-117525711D01*
X147925228Y-117525711D02*
X147288833Y-116889316D01*
X147854518Y-116323631D02*
X149860000Y-118329113D01*
X149860000Y-118329113D02*
X149860000Y-120650000D01*
X148420204Y-115757946D02*
X152400000Y-119737742D01*
X152400000Y-119737742D02*
X152400000Y-120650000D01*
X151319341Y-114131599D02*
X150682946Y-113495204D01*
X154940000Y-120497600D02*
X156582001Y-118855599D01*
X156582001Y-118855599D02*
X156582001Y-117543004D01*
X156582001Y-117543004D02*
X153416374Y-114377377D01*
X154940000Y-120650000D02*
X154940000Y-120497600D01*
X153416374Y-114377377D02*
X151565119Y-114377377D01*
X151565119Y-114377377D02*
X151319341Y-114131599D01*
X157480000Y-120650000D02*
X157480000Y-117620744D01*
X157480000Y-117620744D02*
X153425169Y-113565913D01*
X153425169Y-113565913D02*
X151885026Y-113565913D01*
X151885026Y-113565913D02*
X151248631Y-112929518D01*
X151814316Y-112363833D02*
X152392316Y-112941833D01*
X152392316Y-112941833D02*
X153727833Y-112941833D01*
X153727833Y-112941833D02*
X160020000Y-119234000D01*
X160020000Y-119234000D02*
X160020000Y-120650000D01*
X161144000Y-119234000D02*
X153708148Y-111798148D01*
X153708148Y-111798148D02*
X152380002Y-111798148D01*
X162560000Y-120650000D02*
X162560000Y-120497600D01*
X162560000Y-120497600D02*
X161296400Y-119234000D01*
X161296400Y-119234000D02*
X161144000Y-119234000D01*
X158289001Y-112409999D02*
X157303638Y-112409997D01*
X157303638Y-112409997D02*
X155203686Y-110310038D01*
X155203686Y-110310038D02*
X154902574Y-110310037D01*
X154902574Y-110310037D02*
X153508186Y-110310036D01*
X153508186Y-110310036D02*
X152648701Y-109450551D01*
X152648701Y-109450551D02*
X152380002Y-109181852D01*
X158365001Y-112485999D02*
X158289001Y-112409999D01*
X158365001Y-115214780D02*
X158365001Y-112485999D01*
X162384221Y-119234000D02*
X158365001Y-115214780D01*
X163836400Y-119234000D02*
X162384221Y-119234000D01*
X165100000Y-120497600D02*
X163836400Y-119234000D01*
X165100000Y-120650000D02*
X165100000Y-120497600D01*
X157543888Y-111829987D02*
X158529249Y-111829988D01*
X158529249Y-111829988D02*
X158945012Y-112245751D01*
X158945012Y-112245751D02*
X158945012Y-114974532D01*
X158945012Y-114974532D02*
X162342504Y-118372024D01*
X167640000Y-120497600D02*
X167640000Y-120650000D01*
X165514424Y-118372024D02*
X167640000Y-120497600D01*
X162342504Y-118372024D02*
X165514424Y-118372024D01*
X152392315Y-108038168D02*
X152905108Y-108038168D01*
X155443936Y-109730028D02*
X157543888Y-111829987D01*
X152905108Y-108038168D02*
X154596966Y-109730026D01*
X154596966Y-109730026D02*
X155443936Y-109730028D01*
X151814316Y-108616167D02*
X152392315Y-108038168D01*
X151840956Y-107458157D02*
X151248631Y-108050482D01*
X153145356Y-107458157D02*
X151840956Y-107458157D01*
X154837214Y-109150016D02*
X153145356Y-107458157D01*
X155684178Y-109150017D02*
X154837214Y-109150016D01*
X155684184Y-109150018D02*
X155684178Y-109150017D01*
X157784138Y-111249977D02*
X155684184Y-109150018D01*
X158769497Y-111249978D02*
X157784138Y-111249977D01*
X159525023Y-112005503D02*
X158769497Y-111249978D01*
X159525023Y-114734284D02*
X159525023Y-112005503D01*
X162582752Y-117792013D02*
X159525023Y-114734284D01*
X167474413Y-117792013D02*
X162582752Y-117792013D01*
X170180000Y-120497600D02*
X167474413Y-117792013D01*
X170180000Y-120650000D02*
X170180000Y-120497600D01*
X151319341Y-106848401D02*
X150682946Y-107484796D01*
X160105033Y-111765254D02*
X159009744Y-110669968D01*
X159009744Y-110669968D02*
X158024387Y-110669967D01*
X155924425Y-108570007D02*
X155077462Y-108570006D01*
X155962872Y-108608454D02*
X155924425Y-108570007D01*
X156016516Y-108617395D02*
X155962872Y-108608454D01*
X155077462Y-108570006D02*
X153355857Y-106848401D01*
X160105034Y-114494036D02*
X160105033Y-111765254D01*
X158024387Y-110669967D02*
X156128254Y-108773828D01*
X162823000Y-117212002D02*
X160105034Y-114494036D01*
X153355857Y-106848401D02*
X151319341Y-106848401D01*
X169434402Y-117212002D02*
X162823000Y-117212002D01*
X172720000Y-120497600D02*
X169434402Y-117212002D01*
X156128254Y-108773828D02*
X156016516Y-108617395D01*
X172720000Y-120650000D02*
X172720000Y-120497600D01*
X172720000Y-100330000D02*
X172720000Y-100482400D01*
X154458821Y-105386109D02*
X154958820Y-105886108D01*
X172720000Y-100482400D02*
X170647412Y-102554988D01*
X170647412Y-102554988D02*
X167932351Y-102554988D01*
X167932351Y-102554988D02*
X166165350Y-104321989D01*
X148985889Y-105787740D02*
X149563889Y-105209740D01*
X163785493Y-104321989D02*
X162857820Y-105249662D01*
X166165350Y-104321989D02*
X163785493Y-104321989D01*
X155458819Y-105386109D02*
X154958820Y-105886108D01*
X155595266Y-105249662D02*
X155458819Y-105386109D01*
X154282452Y-105209740D02*
X154458821Y-105386109D01*
X149563889Y-105209740D02*
X154282452Y-105209740D01*
X162857820Y-105249662D02*
X155595266Y-105249662D01*
X136525000Y-115885000D02*
X137734000Y-115885000D01*
X137734000Y-115885000D02*
X138607800Y-115011200D01*
X136525000Y-115885000D02*
X137032892Y-115885000D01*
X149016194Y-104626064D02*
X148420204Y-105222054D01*
X162596854Y-104626064D02*
X149016194Y-104626064D01*
X167148505Y-101974977D02*
X165381504Y-103741978D01*
X170180000Y-100482400D02*
X168687423Y-101974977D01*
X170180000Y-100330000D02*
X170180000Y-100482400D01*
X165381504Y-103741978D02*
X163480940Y-103741978D01*
X163480940Y-103741978D02*
X162596854Y-104626064D01*
X168687423Y-101974977D02*
X167148505Y-101974977D01*
X167640000Y-100330000D02*
X167640000Y-100482400D01*
X148464833Y-104046054D02*
X147854518Y-104656369D01*
X167640000Y-100482400D02*
X165164441Y-102957959D01*
X163444700Y-102957959D02*
X162356606Y-104046053D01*
X165164441Y-102957959D02*
X163444700Y-102957959D01*
X162356606Y-104046053D02*
X148464833Y-104046054D01*
X165100000Y-100482400D02*
X165100000Y-100330000D01*
X162116357Y-103466043D02*
X165100000Y-100482400D01*
X147288833Y-104090684D02*
X147913474Y-103466043D01*
X147913474Y-103466043D02*
X162116357Y-103466043D01*
X147362114Y-102886032D02*
X147359543Y-102888603D01*
X162560000Y-100482400D02*
X160156368Y-102886032D01*
X147359543Y-102888603D02*
X146723148Y-103524998D01*
X162560000Y-100330000D02*
X162560000Y-100482400D01*
X160156368Y-102886032D02*
X147362114Y-102886032D01*
X171110000Y-111760000D02*
X171315000Y-111760000D01*
X171315000Y-111760000D02*
X173228000Y-109847000D01*
X173228000Y-109847000D02*
X173228000Y-109580000D01*
X173228000Y-109580000D02*
X173228000Y-108680000D01*
D25*
G36*
X154367001Y-117329131D02*
X154367001Y-117864001D01*
X154430562Y-118183542D01*
X154566978Y-118387704D01*
X154566803Y-118588775D01*
X154578879Y-118618000D01*
X152461127Y-118618000D01*
X152441314Y-118598187D01*
X152946197Y-118093304D01*
X153081282Y-117895601D01*
X153135766Y-117644439D01*
X153120515Y-117563388D01*
X153321805Y-117563388D01*
X153555194Y-117466715D01*
X153796006Y-117225903D01*
X153796006Y-117001397D01*
X153107107Y-116312498D01*
X153092965Y-116326641D01*
X152913360Y-116147036D01*
X152927502Y-116132893D01*
X152913360Y-116118751D01*
X153034990Y-115997120D01*
X154367001Y-117329131D01*
X154367001Y-117329131D01*
G37*
X154367001Y-117329131D02*
X154367001Y-117864001D01*
X154430562Y-118183542D01*
X154566978Y-118387704D01*
X154566803Y-118588775D01*
X154578879Y-118618000D01*
X152461127Y-118618000D01*
X152441314Y-118598187D01*
X152946197Y-118093304D01*
X153081282Y-117895601D01*
X153135766Y-117644439D01*
X153120515Y-117563388D01*
X153321805Y-117563388D01*
X153555194Y-117466715D01*
X153796006Y-117225903D01*
X153796006Y-117001397D01*
X153107107Y-116312498D01*
X153092965Y-116326641D01*
X152913360Y-116147036D01*
X152927502Y-116132893D01*
X152913360Y-116118751D01*
X153034990Y-115997120D01*
X154367001Y-117329131D01*
G36*
X147500170Y-113347250D02*
X147500170Y-114230428D01*
X147563731Y-114549969D01*
X147570725Y-114560436D01*
X147198720Y-114932441D01*
X147127305Y-115036960D01*
X147029013Y-115102147D01*
X146633034Y-115498126D01*
X146561618Y-115602646D01*
X146463328Y-115667832D01*
X146067349Y-116063811D01*
X145995932Y-116168333D01*
X145897643Y-116233518D01*
X145501664Y-116629497D01*
X145413708Y-116758225D01*
X145328336Y-116629497D01*
X144932357Y-116233518D01*
X144827838Y-116162103D01*
X144762651Y-116063811D01*
X144366672Y-115667832D01*
X144262152Y-115596416D01*
X144196966Y-115498126D01*
X143800987Y-115102147D01*
X143696465Y-115030730D01*
X143631280Y-114932441D01*
X143565490Y-114866651D01*
X145045279Y-114866651D01*
X145364820Y-114803090D01*
X145635713Y-114622085D01*
X147205359Y-113052439D01*
X147500170Y-113347250D01*
X147500170Y-113347250D01*
G37*
X147500170Y-113347250D02*
X147500170Y-114230428D01*
X147563731Y-114549969D01*
X147570725Y-114560436D01*
X147198720Y-114932441D01*
X147127305Y-115036960D01*
X147029013Y-115102147D01*
X146633034Y-115498126D01*
X146561618Y-115602646D01*
X146463328Y-115667832D01*
X146067349Y-116063811D01*
X145995932Y-116168333D01*
X145897643Y-116233518D01*
X145501664Y-116629497D01*
X145413708Y-116758225D01*
X145328336Y-116629497D01*
X144932357Y-116233518D01*
X144827838Y-116162103D01*
X144762651Y-116063811D01*
X144366672Y-115667832D01*
X144262152Y-115596416D01*
X144196966Y-115498126D01*
X143800987Y-115102147D01*
X143696465Y-115030730D01*
X143631280Y-114932441D01*
X143565490Y-114866651D01*
X145045279Y-114866651D01*
X145364820Y-114803090D01*
X145635713Y-114622085D01*
X147205359Y-113052439D01*
X147500170Y-113347250D01*
G36*
X159951022Y-110086890D02*
X160221915Y-110267895D01*
X160541456Y-110331456D01*
X161162546Y-110331456D01*
X161482087Y-110267895D01*
X161752980Y-110086890D01*
X163050524Y-108789346D01*
X163179064Y-108918110D01*
X163596073Y-109091268D01*
X163776922Y-109091426D01*
X164537314Y-109851818D01*
X164509566Y-109879566D01*
X164328561Y-110150459D01*
X164265000Y-110470000D01*
X164265000Y-111922074D01*
X164239683Y-111926838D01*
X164023559Y-112065910D01*
X163878569Y-112278110D01*
X163827560Y-112530000D01*
X163827560Y-113530000D01*
X163871838Y-113765317D01*
X164010910Y-113981441D01*
X164079006Y-114027969D01*
X163936673Y-114170302D01*
X163840000Y-114403691D01*
X163840000Y-114744250D01*
X163998750Y-114903000D01*
X164973000Y-114903000D01*
X164973000Y-114883000D01*
X165227000Y-114883000D01*
X165227000Y-114903000D01*
X166201250Y-114903000D01*
X166360000Y-114744250D01*
X166360000Y-114403691D01*
X166263327Y-114170302D01*
X166122090Y-114029064D01*
X166176441Y-113994090D01*
X166321431Y-113781890D01*
X166372440Y-113530000D01*
X166372440Y-113447250D01*
X167802560Y-113447250D01*
X167802560Y-113887250D01*
X167961310Y-114046000D01*
X168910000Y-114046000D01*
X168910000Y-113097310D01*
X168751250Y-112938560D01*
X168311251Y-112938560D01*
X168077862Y-113035233D01*
X167899233Y-113213861D01*
X167802560Y-113447250D01*
X166372440Y-113447250D01*
X166372440Y-112530000D01*
X166328162Y-112294683D01*
X166189090Y-112078559D01*
X166141073Y-112045750D01*
X167745000Y-112045750D01*
X167745000Y-112211310D01*
X167841673Y-112444699D01*
X168020302Y-112623327D01*
X168253691Y-112720000D01*
X168624250Y-112720000D01*
X168783000Y-112561250D01*
X168783000Y-111887000D01*
X167903750Y-111887000D01*
X167745000Y-112045750D01*
X166141073Y-112045750D01*
X165976890Y-111933569D01*
X165935000Y-111925086D01*
X165935000Y-110815868D01*
X166055868Y-110695000D01*
X168001614Y-110695000D01*
X168128110Y-110781431D01*
X168242565Y-110804609D01*
X168020302Y-110896673D01*
X167979975Y-110937000D01*
X167903750Y-110937000D01*
X167745000Y-111095750D01*
X167745000Y-111261310D01*
X167754813Y-111285000D01*
X167745000Y-111308690D01*
X167745000Y-111474250D01*
X167903750Y-111633000D01*
X167979975Y-111633000D01*
X168020302Y-111673327D01*
X168253691Y-111770000D01*
X168624250Y-111770000D01*
X168761250Y-111633000D01*
X168783000Y-111633000D01*
X168783000Y-111613000D01*
X169037000Y-111613000D01*
X169037000Y-111633000D01*
X169057000Y-111633000D01*
X169057000Y-111887000D01*
X169037000Y-111887000D01*
X169037000Y-112561250D01*
X169183613Y-112707863D01*
X169208107Y-112831000D01*
X169297109Y-112964201D01*
X169164000Y-113097310D01*
X169164000Y-114046000D01*
X169184000Y-114046000D01*
X169184000Y-114300000D01*
X169164000Y-114300000D01*
X169164000Y-114320000D01*
X168910000Y-114320000D01*
X168910000Y-114300000D01*
X167961310Y-114300000D01*
X167802560Y-114458750D01*
X167802560Y-114898750D01*
X167820370Y-114941748D01*
X167775000Y-114932560D01*
X166775000Y-114932560D01*
X166539683Y-114976838D01*
X166323559Y-115115910D01*
X166257232Y-115212982D01*
X166201250Y-115157000D01*
X165227000Y-115157000D01*
X165227000Y-115177000D01*
X164973000Y-115177000D01*
X164973000Y-115157000D01*
X163998750Y-115157000D01*
X163840000Y-115315750D01*
X163840000Y-115656309D01*
X163936673Y-115889698D01*
X164115301Y-116068327D01*
X164348690Y-116165000D01*
X164727145Y-116165000D01*
X164726960Y-116377002D01*
X163168868Y-116377002D01*
X161915239Y-115123373D01*
X162144699Y-115028327D01*
X162323327Y-114849698D01*
X162420000Y-114616309D01*
X162420000Y-113925750D01*
X162261250Y-113767000D01*
X161412000Y-113767000D01*
X161412000Y-113787000D01*
X161158000Y-113787000D01*
X161158000Y-113767000D01*
X161138000Y-113767000D01*
X161138000Y-113513000D01*
X161158000Y-113513000D01*
X161158000Y-112313750D01*
X161412000Y-112313750D01*
X161412000Y-113513000D01*
X162261250Y-113513000D01*
X162420000Y-113354250D01*
X162420000Y-112663691D01*
X162323327Y-112430302D01*
X162144699Y-112251673D01*
X161911310Y-112155000D01*
X161570750Y-112155000D01*
X161412000Y-112313750D01*
X161158000Y-112313750D01*
X160999250Y-112155000D01*
X160940033Y-112155000D01*
X160940033Y-111765254D01*
X160882161Y-111474312D01*
X160876472Y-111445712D01*
X160739980Y-111241439D01*
X160695467Y-111174820D01*
X160695466Y-111174819D01*
X159600177Y-110079533D01*
X159492158Y-110007357D01*
X159329286Y-109898529D01*
X159329284Y-109898529D01*
X159329283Y-109898528D01*
X159168429Y-109866532D01*
X159009745Y-109834968D01*
X158370256Y-109834967D01*
X157372732Y-108837440D01*
X157985000Y-108837440D01*
X158220317Y-108793162D01*
X158436441Y-108654090D01*
X158469637Y-108605505D01*
X159951022Y-110086890D01*
X159951022Y-110086890D01*
G37*
X159951022Y-110086890D02*
X160221915Y-110267895D01*
X160541456Y-110331456D01*
X161162546Y-110331456D01*
X161482087Y-110267895D01*
X161752980Y-110086890D01*
X163050524Y-108789346D01*
X163179064Y-108918110D01*
X163596073Y-109091268D01*
X163776922Y-109091426D01*
X164537314Y-109851818D01*
X164509566Y-109879566D01*
X164328561Y-110150459D01*
X164265000Y-110470000D01*
X164265000Y-111922074D01*
X164239683Y-111926838D01*
X164023559Y-112065910D01*
X163878569Y-112278110D01*
X163827560Y-112530000D01*
X163827560Y-113530000D01*
X163871838Y-113765317D01*
X164010910Y-113981441D01*
X164079006Y-114027969D01*
X163936673Y-114170302D01*
X163840000Y-114403691D01*
X163840000Y-114744250D01*
X163998750Y-114903000D01*
X164973000Y-114903000D01*
X164973000Y-114883000D01*
X165227000Y-114883000D01*
X165227000Y-114903000D01*
X166201250Y-114903000D01*
X166360000Y-114744250D01*
X166360000Y-114403691D01*
X166263327Y-114170302D01*
X166122090Y-114029064D01*
X166176441Y-113994090D01*
X166321431Y-113781890D01*
X166372440Y-113530000D01*
X166372440Y-113447250D01*
X167802560Y-113447250D01*
X167802560Y-113887250D01*
X167961310Y-114046000D01*
X168910000Y-114046000D01*
X168910000Y-113097310D01*
X168751250Y-112938560D01*
X168311251Y-112938560D01*
X168077862Y-113035233D01*
X167899233Y-113213861D01*
X167802560Y-113447250D01*
X166372440Y-113447250D01*
X166372440Y-112530000D01*
X166328162Y-112294683D01*
X166189090Y-112078559D01*
X166141073Y-112045750D01*
X167745000Y-112045750D01*
X167745000Y-112211310D01*
X167841673Y-112444699D01*
X168020302Y-112623327D01*
X168253691Y-112720000D01*
X168624250Y-112720000D01*
X168783000Y-112561250D01*
X168783000Y-111887000D01*
X167903750Y-111887000D01*
X167745000Y-112045750D01*
X166141073Y-112045750D01*
X165976890Y-111933569D01*
X165935000Y-111925086D01*
X165935000Y-110815868D01*
X166055868Y-110695000D01*
X168001614Y-110695000D01*
X168128110Y-110781431D01*
X168242565Y-110804609D01*
X168020302Y-110896673D01*
X167979975Y-110937000D01*
X167903750Y-110937000D01*
X167745000Y-111095750D01*
X167745000Y-111261310D01*
X167754813Y-111285000D01*
X167745000Y-111308690D01*
X167745000Y-111474250D01*
X167903750Y-111633000D01*
X167979975Y-111633000D01*
X168020302Y-111673327D01*
X168253691Y-111770000D01*
X168624250Y-111770000D01*
X168761250Y-111633000D01*
X168783000Y-111633000D01*
X168783000Y-111613000D01*
X169037000Y-111613000D01*
X169037000Y-111633000D01*
X169057000Y-111633000D01*
X169057000Y-111887000D01*
X169037000Y-111887000D01*
X169037000Y-112561250D01*
X169183613Y-112707863D01*
X169208107Y-112831000D01*
X169297109Y-112964201D01*
X169164000Y-113097310D01*
X169164000Y-114046000D01*
X169184000Y-114046000D01*
X169184000Y-114300000D01*
X169164000Y-114300000D01*
X169164000Y-114320000D01*
X168910000Y-114320000D01*
X168910000Y-114300000D01*
X167961310Y-114300000D01*
X167802560Y-114458750D01*
X167802560Y-114898750D01*
X167820370Y-114941748D01*
X167775000Y-114932560D01*
X166775000Y-114932560D01*
X166539683Y-114976838D01*
X166323559Y-115115910D01*
X166257232Y-115212982D01*
X166201250Y-115157000D01*
X165227000Y-115157000D01*
X165227000Y-115177000D01*
X164973000Y-115177000D01*
X164973000Y-115157000D01*
X163998750Y-115157000D01*
X163840000Y-115315750D01*
X163840000Y-115656309D01*
X163936673Y-115889698D01*
X164115301Y-116068327D01*
X164348690Y-116165000D01*
X164727145Y-116165000D01*
X164726960Y-116377002D01*
X163168868Y-116377002D01*
X161915239Y-115123373D01*
X162144699Y-115028327D01*
X162323327Y-114849698D01*
X162420000Y-114616309D01*
X162420000Y-113925750D01*
X162261250Y-113767000D01*
X161412000Y-113767000D01*
X161412000Y-113787000D01*
X161158000Y-113787000D01*
X161158000Y-113767000D01*
X161138000Y-113767000D01*
X161138000Y-113513000D01*
X161158000Y-113513000D01*
X161158000Y-112313750D01*
X161412000Y-112313750D01*
X161412000Y-113513000D01*
X162261250Y-113513000D01*
X162420000Y-113354250D01*
X162420000Y-112663691D01*
X162323327Y-112430302D01*
X162144699Y-112251673D01*
X161911310Y-112155000D01*
X161570750Y-112155000D01*
X161412000Y-112313750D01*
X161158000Y-112313750D01*
X160999250Y-112155000D01*
X160940033Y-112155000D01*
X160940033Y-111765254D01*
X160882161Y-111474312D01*
X160876472Y-111445712D01*
X160739980Y-111241439D01*
X160695467Y-111174820D01*
X160695466Y-111174819D01*
X159600177Y-110079533D01*
X159492158Y-110007357D01*
X159329286Y-109898529D01*
X159329284Y-109898529D01*
X159329283Y-109898528D01*
X159168429Y-109866532D01*
X159009745Y-109834968D01*
X158370256Y-109834967D01*
X157372732Y-108837440D01*
X157985000Y-108837440D01*
X158220317Y-108793162D01*
X158436441Y-108654090D01*
X158469637Y-108605505D01*
X159951022Y-110086890D01*
G36*
X169402000Y-116078000D02*
X169422000Y-116078000D01*
X169422000Y-116332000D01*
X169402000Y-116332000D01*
X169402000Y-116352000D01*
X169148000Y-116352000D01*
X169148000Y-116332000D01*
X169128000Y-116332000D01*
X169128000Y-116078000D01*
X169148000Y-116078000D01*
X169148000Y-116058000D01*
X169402000Y-116058000D01*
X169402000Y-116078000D01*
X169402000Y-116078000D01*
G37*
X169402000Y-116078000D02*
X169422000Y-116078000D01*
X169422000Y-116332000D01*
X169402000Y-116332000D01*
X169402000Y-116352000D01*
X169148000Y-116352000D01*
X169148000Y-116332000D01*
X169128000Y-116332000D01*
X169128000Y-116078000D01*
X169148000Y-116078000D01*
X169148000Y-116058000D01*
X169402000Y-116058000D01*
X169402000Y-116078000D01*
G36*
X149857441Y-108706280D02*
X149961960Y-108777695D01*
X150027147Y-108875987D01*
X150423126Y-109271966D01*
X150527646Y-109343382D01*
X150592832Y-109441672D01*
X150988811Y-109837651D01*
X151093333Y-109909068D01*
X151158518Y-110007357D01*
X151554497Y-110403336D01*
X151683225Y-110491292D01*
X151554497Y-110576664D01*
X151158518Y-110972643D01*
X151087103Y-111077162D01*
X150988811Y-111142349D01*
X150592832Y-111538328D01*
X150521416Y-111642848D01*
X150423126Y-111708034D01*
X150027147Y-112104013D01*
X149955730Y-112208535D01*
X149857441Y-112273720D01*
X149461462Y-112669699D01*
X149390047Y-112774218D01*
X149291755Y-112839405D01*
X149163469Y-112967691D01*
X149106609Y-112681840D01*
X148925604Y-112410947D01*
X148256693Y-111742035D01*
X148278245Y-111633685D01*
X148278245Y-109938994D01*
X149684200Y-108533039D01*
X149857441Y-108706280D01*
X149857441Y-108706280D01*
G37*
X149857441Y-108706280D02*
X149961960Y-108777695D01*
X150027147Y-108875987D01*
X150423126Y-109271966D01*
X150527646Y-109343382D01*
X150592832Y-109441672D01*
X150988811Y-109837651D01*
X151093333Y-109909068D01*
X151158518Y-110007357D01*
X151554497Y-110403336D01*
X151683225Y-110491292D01*
X151554497Y-110576664D01*
X151158518Y-110972643D01*
X151087103Y-111077162D01*
X150988811Y-111142349D01*
X150592832Y-111538328D01*
X150521416Y-111642848D01*
X150423126Y-111708034D01*
X150027147Y-112104013D01*
X149955730Y-112208535D01*
X149857441Y-112273720D01*
X149461462Y-112669699D01*
X149390047Y-112774218D01*
X149291755Y-112839405D01*
X149163469Y-112967691D01*
X149106609Y-112681840D01*
X148925604Y-112410947D01*
X148256693Y-111742035D01*
X148278245Y-111633685D01*
X148278245Y-109938994D01*
X149684200Y-108533039D01*
X149857441Y-108706280D01*
G36*
X132115560Y-111474250D02*
X132274310Y-111633000D01*
X133223000Y-111633000D01*
X133223000Y-111613000D01*
X133477000Y-111613000D01*
X133477000Y-111633000D01*
X133497000Y-111633000D01*
X133497000Y-111887000D01*
X133477000Y-111887000D01*
X133477000Y-111904441D01*
X133223000Y-111904441D01*
X133223000Y-111887000D01*
X132274310Y-111887000D01*
X132115560Y-112045750D01*
X132115560Y-112068641D01*
X131995284Y-112149007D01*
X131572000Y-112572291D01*
X131572000Y-111331400D01*
X132115560Y-111331400D01*
X132115560Y-111474250D01*
X132115560Y-111474250D01*
G37*
X132115560Y-111474250D02*
X132274310Y-111633000D01*
X133223000Y-111633000D01*
X133223000Y-111613000D01*
X133477000Y-111613000D01*
X133477000Y-111633000D01*
X133497000Y-111633000D01*
X133497000Y-111887000D01*
X133477000Y-111887000D01*
X133477000Y-111904441D01*
X133223000Y-111904441D01*
X133223000Y-111887000D01*
X132274310Y-111887000D01*
X132115560Y-112045750D01*
X132115560Y-112068641D01*
X131995284Y-112149007D01*
X131572000Y-112572291D01*
X131572000Y-111331400D01*
X132115560Y-111331400D01*
X132115560Y-111474250D01*
G36*
X146176750Y-109717508D02*
X146386759Y-109717508D01*
X146608245Y-109938994D01*
X146608245Y-110422494D01*
X146424934Y-110238863D01*
X146085128Y-110097763D01*
X146119472Y-110015053D01*
X146119742Y-109706168D01*
X146176750Y-109717508D01*
X146176750Y-109717508D01*
G37*
X146176750Y-109717508D02*
X146386759Y-109717508D01*
X146608245Y-109938994D01*
X146608245Y-110422494D01*
X146424934Y-110238863D01*
X146085128Y-110097763D01*
X146119472Y-110015053D01*
X146119742Y-109706168D01*
X146176750Y-109717508D01*
G36*
X169307000Y-104013000D02*
X169327000Y-104013000D01*
X169327000Y-104267000D01*
X169307000Y-104267000D01*
X169307000Y-105241250D01*
X169465750Y-105400000D01*
X169806309Y-105400000D01*
X170039698Y-105303327D01*
X170180936Y-105162090D01*
X170215910Y-105216441D01*
X170345000Y-105304644D01*
X170345000Y-106150982D01*
X170228559Y-106225910D01*
X170182031Y-106294006D01*
X170039698Y-106151673D01*
X169806309Y-106055000D01*
X169465750Y-106055000D01*
X169307000Y-106213750D01*
X169307000Y-107188000D01*
X169327000Y-107188000D01*
X169327000Y-107442000D01*
X169307000Y-107442000D01*
X169307000Y-108416250D01*
X169465750Y-108575000D01*
X169806309Y-108575000D01*
X170039698Y-108478327D01*
X170180936Y-108337090D01*
X170215910Y-108391441D01*
X170275000Y-108431815D01*
X170275000Y-108976678D01*
X170128559Y-109070910D01*
X170008767Y-109246232D01*
X169904090Y-109083559D01*
X169691890Y-108938569D01*
X169440000Y-108887560D01*
X168380000Y-108887560D01*
X168144683Y-108931838D01*
X167999905Y-109025000D01*
X166072232Y-109025000D01*
X164957870Y-107910638D01*
X164958026Y-107731690D01*
X164903923Y-107600750D01*
X168045000Y-107600750D01*
X168045000Y-108066310D01*
X168141673Y-108299699D01*
X168320302Y-108478327D01*
X168553691Y-108575000D01*
X168894250Y-108575000D01*
X169053000Y-108416250D01*
X169053000Y-107442000D01*
X168203750Y-107442000D01*
X168045000Y-107600750D01*
X164903923Y-107600750D01*
X164797191Y-107342440D01*
X165135000Y-107342440D01*
X165370317Y-107298162D01*
X165586441Y-107159090D01*
X165731431Y-106946890D01*
X165734081Y-106933803D01*
X165870910Y-107146441D01*
X166083110Y-107291431D01*
X166335000Y-107342440D01*
X167035000Y-107342440D01*
X167270317Y-107298162D01*
X167486441Y-107159090D01*
X167631431Y-106946890D01*
X167682440Y-106695000D01*
X167682440Y-106563690D01*
X168045000Y-106563690D01*
X168045000Y-107029250D01*
X168203750Y-107188000D01*
X169053000Y-107188000D01*
X169053000Y-106213750D01*
X168894250Y-106055000D01*
X168553691Y-106055000D01*
X168320302Y-106151673D01*
X168141673Y-106330301D01*
X168045000Y-106563690D01*
X167682440Y-106563690D01*
X167682440Y-105395000D01*
X167638162Y-105159683D01*
X167596667Y-105095199D01*
X168045000Y-104646866D01*
X168045000Y-104891310D01*
X168141673Y-105124699D01*
X168320302Y-105303327D01*
X168553691Y-105400000D01*
X168894250Y-105400000D01*
X169053000Y-105241250D01*
X169053000Y-104267000D01*
X169033000Y-104267000D01*
X169033000Y-104013000D01*
X169053000Y-104013000D01*
X169053000Y-103993000D01*
X169307000Y-103993000D01*
X169307000Y-104013000D01*
X169307000Y-104013000D01*
G37*
X169307000Y-104013000D02*
X169327000Y-104013000D01*
X169327000Y-104267000D01*
X169307000Y-104267000D01*
X169307000Y-105241250D01*
X169465750Y-105400000D01*
X169806309Y-105400000D01*
X170039698Y-105303327D01*
X170180936Y-105162090D01*
X170215910Y-105216441D01*
X170345000Y-105304644D01*
X170345000Y-106150982D01*
X170228559Y-106225910D01*
X170182031Y-106294006D01*
X170039698Y-106151673D01*
X169806309Y-106055000D01*
X169465750Y-106055000D01*
X169307000Y-106213750D01*
X169307000Y-107188000D01*
X169327000Y-107188000D01*
X169327000Y-107442000D01*
X169307000Y-107442000D01*
X169307000Y-108416250D01*
X169465750Y-108575000D01*
X169806309Y-108575000D01*
X170039698Y-108478327D01*
X170180936Y-108337090D01*
X170215910Y-108391441D01*
X170275000Y-108431815D01*
X170275000Y-108976678D01*
X170128559Y-109070910D01*
X170008767Y-109246232D01*
X169904090Y-109083559D01*
X169691890Y-108938569D01*
X169440000Y-108887560D01*
X168380000Y-108887560D01*
X168144683Y-108931838D01*
X167999905Y-109025000D01*
X166072232Y-109025000D01*
X164957870Y-107910638D01*
X164958026Y-107731690D01*
X164903923Y-107600750D01*
X168045000Y-107600750D01*
X168045000Y-108066310D01*
X168141673Y-108299699D01*
X168320302Y-108478327D01*
X168553691Y-108575000D01*
X168894250Y-108575000D01*
X169053000Y-108416250D01*
X169053000Y-107442000D01*
X168203750Y-107442000D01*
X168045000Y-107600750D01*
X164903923Y-107600750D01*
X164797191Y-107342440D01*
X165135000Y-107342440D01*
X165370317Y-107298162D01*
X165586441Y-107159090D01*
X165731431Y-106946890D01*
X165734081Y-106933803D01*
X165870910Y-107146441D01*
X166083110Y-107291431D01*
X166335000Y-107342440D01*
X167035000Y-107342440D01*
X167270317Y-107298162D01*
X167486441Y-107159090D01*
X167631431Y-106946890D01*
X167682440Y-106695000D01*
X167682440Y-106563690D01*
X168045000Y-106563690D01*
X168045000Y-107029250D01*
X168203750Y-107188000D01*
X169053000Y-107188000D01*
X169053000Y-106213750D01*
X168894250Y-106055000D01*
X168553691Y-106055000D01*
X168320302Y-106151673D01*
X168141673Y-106330301D01*
X168045000Y-106563690D01*
X167682440Y-106563690D01*
X167682440Y-105395000D01*
X167638162Y-105159683D01*
X167596667Y-105095199D01*
X168045000Y-104646866D01*
X168045000Y-104891310D01*
X168141673Y-105124699D01*
X168320302Y-105303327D01*
X168553691Y-105400000D01*
X168894250Y-105400000D01*
X169053000Y-105241250D01*
X169053000Y-104267000D01*
X169033000Y-104267000D01*
X169033000Y-104013000D01*
X169053000Y-104013000D01*
X169053000Y-103993000D01*
X169307000Y-103993000D01*
X169307000Y-104013000D01*
G36*
X137504422Y-103775919D02*
X137369337Y-103973622D01*
X137343288Y-104093703D01*
X137340946Y-104093703D01*
X137107557Y-104190375D01*
X137042108Y-104255825D01*
X137042108Y-104480331D01*
X137819395Y-105257618D01*
X137834952Y-105242062D01*
X138014557Y-105421667D01*
X137999000Y-105437223D01*
X138013143Y-105451366D01*
X137836366Y-105628143D01*
X137822223Y-105614000D01*
X137806667Y-105629557D01*
X137627062Y-105449952D01*
X137642618Y-105434395D01*
X136865331Y-104657108D01*
X136640825Y-104657108D01*
X136575375Y-104722557D01*
X136478703Y-104955946D01*
X136478703Y-104957883D01*
X136375101Y-104977377D01*
X136160919Y-105119422D01*
X135807365Y-105472976D01*
X135672280Y-105670679D01*
X135617796Y-105921841D01*
X135665320Y-106174412D01*
X135807365Y-106388594D01*
X135997858Y-106579087D01*
X135922755Y-106579087D01*
X135603214Y-106642648D01*
X135370157Y-106798372D01*
X135332321Y-106823653D01*
X134640779Y-107515195D01*
X134595521Y-107582928D01*
X134622440Y-107450000D01*
X134622440Y-106151261D01*
X134897030Y-105877150D01*
X135070188Y-105460141D01*
X135070582Y-105008610D01*
X134898152Y-104591299D01*
X134579150Y-104271740D01*
X134162141Y-104098582D01*
X133710610Y-104098188D01*
X133293299Y-104270618D01*
X132973740Y-104589620D01*
X132863127Y-104856005D01*
X132759566Y-104959566D01*
X132578561Y-105230459D01*
X132557967Y-105333989D01*
X132489683Y-105346838D01*
X132273559Y-105485910D01*
X132128569Y-105698110D01*
X132077560Y-105950000D01*
X132077560Y-107450000D01*
X132121838Y-107685317D01*
X132260910Y-107901441D01*
X132330711Y-107949134D01*
X132273559Y-107985910D01*
X132128569Y-108198110D01*
X132094773Y-108365000D01*
X131572000Y-108365000D01*
X131572000Y-104040548D01*
X135165859Y-104040548D01*
X135485400Y-103976987D01*
X135756293Y-103795982D01*
X135797120Y-103755155D01*
X137525186Y-103755155D01*
X137504422Y-103775919D01*
X137504422Y-103775919D01*
G37*
X137504422Y-103775919D02*
X137369337Y-103973622D01*
X137343288Y-104093703D01*
X137340946Y-104093703D01*
X137107557Y-104190375D01*
X137042108Y-104255825D01*
X137042108Y-104480331D01*
X137819395Y-105257618D01*
X137834952Y-105242062D01*
X138014557Y-105421667D01*
X137999000Y-105437223D01*
X138013143Y-105451366D01*
X137836366Y-105628143D01*
X137822223Y-105614000D01*
X137806667Y-105629557D01*
X137627062Y-105449952D01*
X137642618Y-105434395D01*
X136865331Y-104657108D01*
X136640825Y-104657108D01*
X136575375Y-104722557D01*
X136478703Y-104955946D01*
X136478703Y-104957883D01*
X136375101Y-104977377D01*
X136160919Y-105119422D01*
X135807365Y-105472976D01*
X135672280Y-105670679D01*
X135617796Y-105921841D01*
X135665320Y-106174412D01*
X135807365Y-106388594D01*
X135997858Y-106579087D01*
X135922755Y-106579087D01*
X135603214Y-106642648D01*
X135370157Y-106798372D01*
X135332321Y-106823653D01*
X134640779Y-107515195D01*
X134595521Y-107582928D01*
X134622440Y-107450000D01*
X134622440Y-106151261D01*
X134897030Y-105877150D01*
X135070188Y-105460141D01*
X135070582Y-105008610D01*
X134898152Y-104591299D01*
X134579150Y-104271740D01*
X134162141Y-104098582D01*
X133710610Y-104098188D01*
X133293299Y-104270618D01*
X132973740Y-104589620D01*
X132863127Y-104856005D01*
X132759566Y-104959566D01*
X132578561Y-105230459D01*
X132557967Y-105333989D01*
X132489683Y-105346838D01*
X132273559Y-105485910D01*
X132128569Y-105698110D01*
X132077560Y-105950000D01*
X132077560Y-107450000D01*
X132121838Y-107685317D01*
X132260910Y-107901441D01*
X132330711Y-107949134D01*
X132273559Y-107985910D01*
X132128569Y-108198110D01*
X132094773Y-108365000D01*
X131572000Y-108365000D01*
X131572000Y-104040548D01*
X135165859Y-104040548D01*
X135485400Y-103976987D01*
X135756293Y-103795982D01*
X135797120Y-103755155D01*
X137525186Y-103755155D01*
X137504422Y-103775919D01*
G36*
X160150000Y-107054250D02*
X160308750Y-107213000D01*
X161158000Y-107213000D01*
X161158000Y-107193000D01*
X161412000Y-107193000D01*
X161412000Y-107213000D01*
X161432000Y-107213000D01*
X161432000Y-107467000D01*
X161412000Y-107467000D01*
X161412000Y-107487000D01*
X161158000Y-107487000D01*
X161158000Y-107467000D01*
X160308750Y-107467000D01*
X160150000Y-107625750D01*
X160150000Y-107924132D01*
X158989345Y-106763477D01*
X160150000Y-106763477D01*
X160150000Y-107054250D01*
X160150000Y-107054250D01*
G37*
X160150000Y-107054250D02*
X160308750Y-107213000D01*
X161158000Y-107213000D01*
X161158000Y-107193000D01*
X161412000Y-107193000D01*
X161412000Y-107213000D01*
X161432000Y-107213000D01*
X161432000Y-107467000D01*
X161412000Y-107467000D01*
X161412000Y-107487000D01*
X161158000Y-107487000D01*
X161158000Y-107467000D01*
X160308750Y-107467000D01*
X160150000Y-107625750D01*
X160150000Y-107924132D01*
X158989345Y-106763477D01*
X160150000Y-106763477D01*
X160150000Y-107054250D01*
G36*
X173661000Y-105545000D02*
X173513750Y-105545000D01*
X173355000Y-105703750D01*
X173355000Y-106553000D01*
X173375000Y-106553000D01*
X173375000Y-106807000D01*
X173355000Y-106807000D01*
X173355000Y-106827000D01*
X173101000Y-106827000D01*
X173101000Y-106807000D01*
X173081000Y-106807000D01*
X173081000Y-106553000D01*
X173101000Y-106553000D01*
X173101000Y-105703750D01*
X172942250Y-105545000D01*
X172476690Y-105545000D01*
X172243301Y-105641673D01*
X172064673Y-105820302D01*
X172015000Y-105940223D01*
X172015000Y-105304018D01*
X172131441Y-105229090D01*
X172276431Y-105016890D01*
X172327440Y-104765000D01*
X172327440Y-103515000D01*
X172283162Y-103279683D01*
X172144090Y-103063559D01*
X171931890Y-102918569D01*
X171680000Y-102867560D01*
X171515708Y-102867560D01*
X172021268Y-102362000D01*
X173661000Y-102362000D01*
X173661000Y-105545000D01*
X173661000Y-105545000D01*
G37*
X173661000Y-105545000D02*
X173513750Y-105545000D01*
X173355000Y-105703750D01*
X173355000Y-106553000D01*
X173375000Y-106553000D01*
X173375000Y-106807000D01*
X173355000Y-106807000D01*
X173355000Y-106827000D01*
X173101000Y-106827000D01*
X173101000Y-106807000D01*
X173081000Y-106807000D01*
X173081000Y-106553000D01*
X173101000Y-106553000D01*
X173101000Y-105703750D01*
X172942250Y-105545000D01*
X172476690Y-105545000D01*
X172243301Y-105641673D01*
X172064673Y-105820302D01*
X172015000Y-105940223D01*
X172015000Y-105304018D01*
X172131441Y-105229090D01*
X172276431Y-105016890D01*
X172327440Y-104765000D01*
X172327440Y-103515000D01*
X172283162Y-103279683D01*
X172144090Y-103063559D01*
X171931890Y-102918569D01*
X171680000Y-102867560D01*
X171515708Y-102867560D01*
X172021268Y-102362000D01*
X173661000Y-102362000D01*
X173661000Y-105545000D01*
G36*
X148458388Y-107166067D02*
X148541332Y-107184060D01*
X148447073Y-107278319D01*
X148512129Y-107343375D01*
X147661668Y-108193835D01*
X147662044Y-107763306D01*
X147489614Y-107345995D01*
X147170612Y-107026436D01*
X146753603Y-106853278D01*
X146352909Y-106852928D01*
X144589411Y-105089430D01*
X144762651Y-104916189D01*
X144834068Y-104811667D01*
X144932357Y-104746482D01*
X145328336Y-104350503D01*
X145416292Y-104221775D01*
X145501664Y-104350503D01*
X145897643Y-104746482D01*
X146002162Y-104817897D01*
X146067349Y-104916189D01*
X146463328Y-105312168D01*
X146567848Y-105383584D01*
X146633034Y-105481874D01*
X147029013Y-105877853D01*
X147133535Y-105949270D01*
X147198720Y-106047559D01*
X147594699Y-106443538D01*
X147699218Y-106514953D01*
X147764405Y-106613245D01*
X148160384Y-107009224D01*
X148243416Y-107065958D01*
X148249572Y-107080819D01*
X148334821Y-107166067D01*
X148458388Y-107166067D01*
X148458388Y-107166067D01*
G37*
X148458388Y-107166067D02*
X148541332Y-107184060D01*
X148447073Y-107278319D01*
X148512129Y-107343375D01*
X147661668Y-108193835D01*
X147662044Y-107763306D01*
X147489614Y-107345995D01*
X147170612Y-107026436D01*
X146753603Y-106853278D01*
X146352909Y-106852928D01*
X144589411Y-105089430D01*
X144762651Y-104916189D01*
X144834068Y-104811667D01*
X144932357Y-104746482D01*
X145328336Y-104350503D01*
X145416292Y-104221775D01*
X145501664Y-104350503D01*
X145897643Y-104746482D01*
X146002162Y-104817897D01*
X146067349Y-104916189D01*
X146463328Y-105312168D01*
X146567848Y-105383584D01*
X146633034Y-105481874D01*
X147029013Y-105877853D01*
X147133535Y-105949270D01*
X147198720Y-106047559D01*
X147594699Y-106443538D01*
X147699218Y-106514953D01*
X147764405Y-106613245D01*
X148160384Y-107009224D01*
X148243416Y-107065958D01*
X148249572Y-107080819D01*
X148334821Y-107166067D01*
X148458388Y-107166067D01*
M02*
