M48
;DRILL file {KiCad 4.0.4-stable} date Wednesday, 07 '07e' December '07e' 2016, 16:46:48
;FORMAT={-:-/ absolute / inch / decimal}
FMAT,2
INCH,TZ
T1C0.020
T2C0.040
%
G90
G05
M72
T1
X5.2Y-4.1
X5.208Y-4.4
X5.2383Y-4.0224
X5.273Y-4.143
X5.3523Y-4.6261
X5.38Y-4.2655
X5.457Y-4.528
X5.5374Y-4.3114
X5.5825Y-4.2825
X5.6108Y-4.4548
X5.6751Y-4.4492
X5.6912Y-4.4057
X5.7081Y-4.3224
X5.7394Y-4.378
X5.7545Y-4.3224
X5.7688Y-4.2515
X5.7819Y-4.5103
X5.8152Y-4.2498
X5.9231Y-4.3685
X6.075Y-4.65
X6.1007Y-4.1687
X6.13Y-4.66
X6.145Y-4.235
X6.15Y-4.45
X6.3Y-4.21
X6.338Y-4.4215
X6.4497Y-4.2503
X6.53Y-4.58
X6.63Y-4.18
X6.82Y-4.15
T2
X5.1Y-3.95
X5.1Y-4.1
X5.1Y-4.2
X5.1Y-4.3
X5.1Y-4.4
X5.1Y-4.5
X5.1Y-4.6
X5.1Y-4.75
X5.2Y-3.95
X5.2Y-4.75
X5.3Y-3.95
X5.3Y-4.75
X5.4Y-3.95
X5.4Y-4.75
X5.5Y-3.95
X5.5Y-4.75
X5.6Y-3.95
X5.6Y-4.75
X5.7Y-3.95
X5.7Y-4.75
X5.8Y-3.95
X5.8Y-4.75
X5.9Y-3.95
X5.9Y-4.75
X6.Y-3.95
X6.Y-4.75
X6.1Y-3.95
X6.1Y-4.75
X6.2Y-3.95
X6.2Y-4.75
X6.3Y-3.95
X6.3Y-4.75
X6.4Y-3.95
X6.4Y-4.75
X6.5Y-3.95
X6.5Y-4.75
X6.6Y-3.95
X6.6Y-4.75
X6.7Y-3.95
X6.7Y-4.75
X6.8Y-3.95
X6.8Y-4.75
T0
M30
