%TF.GenerationSoftware,KiCad,Pcbnew,4.0.4-stable*%
%TF.CreationDate,2016-12-05T23:01:44+00:00*%
%TF.ProjectId,mightyduino,6D69676874796475696E6F2E6B696361,rev?*%
%TF.FileFunction,Legend,Top*%
%FSLAX46Y46*%
G04 Gerber Fmt 4.6, Leading zero omitted, Abs format (unit mm)*
G04 Created by KiCad (PCBNEW 4.0.4-stable) date Monday, 05 '05e' December '05e' 2016, 23:01:44*
%MOMM*%
%LPD*%
G01*
G04 APERTURE LIST*
%ADD10C,0.100000*%
%ADD11C,0.200000*%
%ADD12C,0.250000*%
%ADD13C,0.150000*%
%ADD14C,0.010000*%
G04 APERTURE END LIST*
D10*
D11*
X140214285Y-103143095D02*
X140595238Y-103143095D01*
X140595238Y-103943095D01*
X139947619Y-103562143D02*
X139680952Y-103562143D01*
X139566666Y-103143095D02*
X139947619Y-103143095D01*
X139947619Y-103943095D01*
X139566666Y-103943095D01*
X139223809Y-103143095D02*
X139223809Y-103943095D01*
X139033333Y-103943095D01*
X138919047Y-103905000D01*
X138842856Y-103828810D01*
X138804761Y-103752619D01*
X138766666Y-103600238D01*
X138766666Y-103485952D01*
X138804761Y-103333571D01*
X138842856Y-103257381D01*
X138919047Y-103181190D01*
X139033333Y-103143095D01*
X139223809Y-103143095D01*
X156368705Y-111651905D02*
X155987752Y-111918572D01*
X156368705Y-112109048D02*
X155568705Y-112109048D01*
X155568705Y-111804286D01*
X155606800Y-111728095D01*
X155644895Y-111690000D01*
X155721086Y-111651905D01*
X155835371Y-111651905D01*
X155911562Y-111690000D01*
X155949657Y-111728095D01*
X155987752Y-111804286D01*
X155987752Y-112109048D01*
X155949657Y-111309048D02*
X155949657Y-111042381D01*
X156368705Y-110928095D02*
X156368705Y-111309048D01*
X155568705Y-111309048D01*
X155568705Y-110928095D01*
X156330610Y-110623333D02*
X156368705Y-110509047D01*
X156368705Y-110318571D01*
X156330610Y-110242381D01*
X156292514Y-110204285D01*
X156216324Y-110166190D01*
X156140133Y-110166190D01*
X156063943Y-110204285D01*
X156025848Y-110242381D01*
X155987752Y-110318571D01*
X155949657Y-110470952D01*
X155911562Y-110547143D01*
X155873467Y-110585238D01*
X155797276Y-110623333D01*
X155721086Y-110623333D01*
X155644895Y-110585238D01*
X155606800Y-110547143D01*
X155568705Y-110470952D01*
X155568705Y-110280476D01*
X155606800Y-110166190D01*
X155949657Y-109823333D02*
X155949657Y-109556666D01*
X156368705Y-109442380D02*
X156368705Y-109823333D01*
X155568705Y-109823333D01*
X155568705Y-109442380D01*
X155568705Y-109213809D02*
X155568705Y-108756666D01*
X156368705Y-108985237D02*
X155568705Y-108985237D01*
X131923028Y-109775562D02*
X131542075Y-110042229D01*
X131923028Y-110232705D02*
X131123028Y-110232705D01*
X131123028Y-109927943D01*
X131161123Y-109851752D01*
X131199218Y-109813657D01*
X131275409Y-109775562D01*
X131389694Y-109775562D01*
X131465885Y-109813657D01*
X131503980Y-109851752D01*
X131542075Y-109927943D01*
X131542075Y-110232705D01*
X131694456Y-109470800D02*
X131694456Y-109089848D01*
X131923028Y-109546991D02*
X131123028Y-109280324D01*
X131923028Y-109013657D01*
X131123028Y-108823181D02*
X131923028Y-108632705D01*
X131351599Y-108480324D01*
X131923028Y-108327943D01*
X131123028Y-108137467D01*
X131161123Y-107292704D02*
X131123028Y-107368895D01*
X131123028Y-107483180D01*
X131161123Y-107597466D01*
X131237313Y-107673657D01*
X131313504Y-107711752D01*
X131465885Y-107749847D01*
X131580171Y-107749847D01*
X131732552Y-107711752D01*
X131808742Y-107673657D01*
X131884933Y-107597466D01*
X131923028Y-107483180D01*
X131923028Y-107406990D01*
X131884933Y-107292704D01*
X131846837Y-107254609D01*
X131580171Y-107254609D01*
X131580171Y-107406990D01*
X131923028Y-106911752D02*
X131123028Y-106911752D01*
X131923028Y-106454609D01*
X131123028Y-106454609D01*
X131923028Y-106073657D02*
X131123028Y-106073657D01*
X131123028Y-105883181D01*
X131161123Y-105768895D01*
X131237313Y-105692704D01*
X131313504Y-105654609D01*
X131465885Y-105616514D01*
X131580171Y-105616514D01*
X131732552Y-105654609D01*
X131808742Y-105692704D01*
X131884933Y-105768895D01*
X131923028Y-105883181D01*
X131923028Y-106073657D01*
X131123028Y-114912705D02*
X131123028Y-114455562D01*
X131923028Y-114684133D02*
X131123028Y-114684133D01*
X131123028Y-114265085D02*
X131923028Y-113731752D01*
X131123028Y-113731752D02*
X131923028Y-114265085D01*
X131923028Y-111896514D02*
X131542075Y-112163181D01*
X131923028Y-112353657D02*
X131123028Y-112353657D01*
X131123028Y-112048895D01*
X131161123Y-111972704D01*
X131199218Y-111934609D01*
X131275409Y-111896514D01*
X131389694Y-111896514D01*
X131465885Y-111934609D01*
X131503980Y-111972704D01*
X131542075Y-112048895D01*
X131542075Y-112353657D01*
X131123028Y-111629847D02*
X131923028Y-111096514D01*
X131123028Y-111096514D02*
X131923028Y-111629847D01*
X131679905Y-117754286D02*
X130879905Y-117754286D01*
X130879905Y-117563810D01*
X130918000Y-117449524D01*
X130994190Y-117373333D01*
X131070381Y-117335238D01*
X131222762Y-117297143D01*
X131337048Y-117297143D01*
X131489429Y-117335238D01*
X131565619Y-117373333D01*
X131641810Y-117449524D01*
X131679905Y-117563810D01*
X131679905Y-117754286D01*
X130879905Y-117068572D02*
X130879905Y-116611429D01*
X131679905Y-116840000D02*
X130879905Y-116840000D01*
X131679905Y-115887619D02*
X131298952Y-116154286D01*
X131679905Y-116344762D02*
X130879905Y-116344762D01*
X130879905Y-116040000D01*
X130918000Y-115963809D01*
X130956095Y-115925714D01*
X131032286Y-115887619D01*
X131146571Y-115887619D01*
X131222762Y-115925714D01*
X131260857Y-115963809D01*
X131298952Y-116040000D01*
X131298952Y-116344762D01*
X131123028Y-105209848D02*
X131923028Y-104943181D01*
X131123028Y-104676514D01*
X131846837Y-103952705D02*
X131884933Y-103990800D01*
X131923028Y-104105086D01*
X131923028Y-104181276D01*
X131884933Y-104295562D01*
X131808742Y-104371753D01*
X131732552Y-104409848D01*
X131580171Y-104447943D01*
X131465885Y-104447943D01*
X131313504Y-104409848D01*
X131237313Y-104371753D01*
X131161123Y-104295562D01*
X131123028Y-104181276D01*
X131123028Y-104105086D01*
X131161123Y-103990800D01*
X131199218Y-103952705D01*
X131846837Y-103152705D02*
X131884933Y-103190800D01*
X131923028Y-103305086D01*
X131923028Y-103381276D01*
X131884933Y-103495562D01*
X131808742Y-103571753D01*
X131732552Y-103609848D01*
X131580171Y-103647943D01*
X131465885Y-103647943D01*
X131313504Y-103609848D01*
X131237313Y-103571753D01*
X131161123Y-103495562D01*
X131123028Y-103381276D01*
X131123028Y-103305086D01*
X131161123Y-103190800D01*
X131199218Y-103152705D01*
X130581267Y-102596895D02*
X130314600Y-101796895D01*
X130047933Y-102596895D01*
X129324124Y-101873086D02*
X129362219Y-101834990D01*
X129476505Y-101796895D01*
X129552695Y-101796895D01*
X129666981Y-101834990D01*
X129743172Y-101911181D01*
X129781267Y-101987371D01*
X129819362Y-102139752D01*
X129819362Y-102254038D01*
X129781267Y-102406419D01*
X129743172Y-102482610D01*
X129666981Y-102558800D01*
X129552695Y-102596895D01*
X129476505Y-102596895D01*
X129362219Y-102558800D01*
X129324124Y-102520705D01*
X128524124Y-101873086D02*
X128562219Y-101834990D01*
X128676505Y-101796895D01*
X128752695Y-101796895D01*
X128866981Y-101834990D01*
X128943172Y-101911181D01*
X128981267Y-101987371D01*
X129019362Y-102139752D01*
X129019362Y-102254038D01*
X128981267Y-102406419D01*
X128943172Y-102482610D01*
X128866981Y-102558800D01*
X128752695Y-102596895D01*
X128676505Y-102596895D01*
X128562219Y-102558800D01*
X128524124Y-102520705D01*
X132689523Y-102762000D02*
X132765714Y-102800095D01*
X132879999Y-102800095D01*
X132994285Y-102762000D01*
X133070476Y-102685810D01*
X133108571Y-102609619D01*
X133146666Y-102457238D01*
X133146666Y-102342952D01*
X133108571Y-102190571D01*
X133070476Y-102114381D01*
X132994285Y-102038190D01*
X132879999Y-102000095D01*
X132803809Y-102000095D01*
X132689523Y-102038190D01*
X132651428Y-102076286D01*
X132651428Y-102342952D01*
X132803809Y-102342952D01*
X132308571Y-102000095D02*
X132308571Y-102800095D01*
X131851428Y-102000095D01*
X131851428Y-102800095D01*
X131470476Y-102000095D02*
X131470476Y-102800095D01*
X131280000Y-102800095D01*
X131165714Y-102762000D01*
X131089523Y-102685810D01*
X131051428Y-102609619D01*
X131013333Y-102457238D01*
X131013333Y-102342952D01*
X131051428Y-102190571D01*
X131089523Y-102114381D01*
X131165714Y-102038190D01*
X131280000Y-102000095D01*
X131470476Y-102000095D01*
D12*
X172767619Y-102909619D02*
X172672380Y-102909619D01*
X172577142Y-102862000D01*
X172529523Y-102814381D01*
X172481904Y-102719143D01*
X172434285Y-102528667D01*
X172434285Y-102290571D01*
X172481904Y-102100095D01*
X172529523Y-102004857D01*
X172577142Y-101957238D01*
X172672380Y-101909619D01*
X172767619Y-101909619D01*
X172862857Y-101957238D01*
X172910476Y-102004857D01*
X172958095Y-102100095D01*
X173005714Y-102290571D01*
X173005714Y-102528667D01*
X172958095Y-102719143D01*
X172910476Y-102814381D01*
X172862857Y-102862000D01*
X172767619Y-102909619D01*
X169894285Y-101909619D02*
X170465714Y-101909619D01*
X170180000Y-101909619D02*
X170180000Y-102909619D01*
X170275238Y-102766762D01*
X170370476Y-102671524D01*
X170465714Y-102623905D01*
X159781904Y-102909619D02*
X160258095Y-102909619D01*
X160305714Y-102433429D01*
X160258095Y-102481048D01*
X160162857Y-102528667D01*
X159924761Y-102528667D01*
X159829523Y-102481048D01*
X159781904Y-102433429D01*
X159734285Y-102338190D01*
X159734285Y-102100095D01*
X159781904Y-102004857D01*
X159829523Y-101957238D01*
X159924761Y-101909619D01*
X160162857Y-101909619D01*
X160258095Y-101957238D01*
X160305714Y-102004857D01*
X162369523Y-102576286D02*
X162369523Y-101909619D01*
X162607619Y-102957238D02*
X162845714Y-102242952D01*
X162226666Y-102242952D01*
X165433333Y-102909619D02*
X164814285Y-102909619D01*
X165147619Y-102528667D01*
X165004761Y-102528667D01*
X164909523Y-102481048D01*
X164861904Y-102433429D01*
X164814285Y-102338190D01*
X164814285Y-102100095D01*
X164861904Y-102004857D01*
X164909523Y-101957238D01*
X165004761Y-101909619D01*
X165290476Y-101909619D01*
X165385714Y-101957238D01*
X165433333Y-102004857D01*
X167925714Y-102814381D02*
X167878095Y-102862000D01*
X167782857Y-102909619D01*
X167544761Y-102909619D01*
X167449523Y-102862000D01*
X167401904Y-102814381D01*
X167354285Y-102719143D01*
X167354285Y-102623905D01*
X167401904Y-102481048D01*
X167973333Y-101909619D01*
X167354285Y-101909619D01*
X157289523Y-102909619D02*
X157480000Y-102909619D01*
X157575238Y-102862000D01*
X157622857Y-102814381D01*
X157718095Y-102671524D01*
X157765714Y-102481048D01*
X157765714Y-102100095D01*
X157718095Y-102004857D01*
X157670476Y-101957238D01*
X157575238Y-101909619D01*
X157384761Y-101909619D01*
X157289523Y-101957238D01*
X157241904Y-102004857D01*
X157194285Y-102100095D01*
X157194285Y-102338190D01*
X157241904Y-102433429D01*
X157289523Y-102481048D01*
X157384761Y-102528667D01*
X157575238Y-102528667D01*
X157670476Y-102481048D01*
X157718095Y-102433429D01*
X157765714Y-102338190D01*
X155273333Y-102909619D02*
X154606666Y-102909619D01*
X155035238Y-101909619D01*
D11*
X145211781Y-101936595D02*
X145668924Y-101936595D01*
X145440353Y-101936595D02*
X145440353Y-102736595D01*
X145516543Y-102622310D01*
X145592734Y-102546119D01*
X145668924Y-102508024D01*
X144449876Y-101936595D02*
X144907019Y-101936595D01*
X144678448Y-101936595D02*
X144678448Y-102736595D01*
X144754638Y-102622310D01*
X144830829Y-102546119D01*
X144907019Y-102508024D01*
D12*
X150050476Y-101909619D02*
X149860000Y-101909619D01*
X149764761Y-101957238D01*
X149717142Y-102004857D01*
X149621904Y-102147714D01*
X149574285Y-102338190D01*
X149574285Y-102719143D01*
X149621904Y-102814381D01*
X149669523Y-102862000D01*
X149764761Y-102909619D01*
X149955238Y-102909619D01*
X150050476Y-102862000D01*
X150098095Y-102814381D01*
X150145714Y-102719143D01*
X150145714Y-102481048D01*
X150098095Y-102385810D01*
X150050476Y-102338190D01*
X149955238Y-102290571D01*
X149764761Y-102290571D01*
X149669523Y-102338190D01*
X149621904Y-102385810D01*
X149574285Y-102481048D01*
D11*
X147726381Y-101746095D02*
X148183524Y-101746095D01*
X147954953Y-101746095D02*
X147954953Y-102546095D01*
X148031143Y-102431810D01*
X148107334Y-102355619D01*
X148183524Y-102317524D01*
X147231143Y-102546095D02*
X147154952Y-102546095D01*
X147078762Y-102508000D01*
X147040667Y-102469905D01*
X147002571Y-102393714D01*
X146964476Y-102241333D01*
X146964476Y-102050857D01*
X147002571Y-101898476D01*
X147040667Y-101822286D01*
X147078762Y-101784190D01*
X147154952Y-101746095D01*
X147231143Y-101746095D01*
X147307333Y-101784190D01*
X147345429Y-101822286D01*
X147383524Y-101898476D01*
X147421619Y-102050857D01*
X147421619Y-102241333D01*
X147383524Y-102393714D01*
X147345429Y-102469905D01*
X147307333Y-102508000D01*
X147231143Y-102546095D01*
D12*
X152495238Y-102481048D02*
X152590476Y-102528667D01*
X152638095Y-102576286D01*
X152685714Y-102671524D01*
X152685714Y-102719143D01*
X152638095Y-102814381D01*
X152590476Y-102862000D01*
X152495238Y-102909619D01*
X152304761Y-102909619D01*
X152209523Y-102862000D01*
X152161904Y-102814381D01*
X152114285Y-102719143D01*
X152114285Y-102671524D01*
X152161904Y-102576286D01*
X152209523Y-102528667D01*
X152304761Y-102481048D01*
X152495238Y-102481048D01*
X152590476Y-102433429D01*
X152638095Y-102385810D01*
X152685714Y-102290571D01*
X152685714Y-102100095D01*
X152638095Y-102004857D01*
X152590476Y-101957238D01*
X152495238Y-101909619D01*
X152304761Y-101909619D01*
X152209523Y-101957238D01*
X152161904Y-102004857D01*
X152114285Y-102100095D01*
X152114285Y-102290571D01*
X152161904Y-102385810D01*
X152209523Y-102433429D01*
X152304761Y-102481048D01*
X139890476Y-101909619D02*
X140461905Y-101909619D01*
X140176191Y-101909619D02*
X140176191Y-102909619D01*
X140271429Y-102766762D01*
X140366667Y-102671524D01*
X140461905Y-102623905D01*
X139557143Y-102909619D02*
X138938095Y-102909619D01*
X139271429Y-102528667D01*
X139128571Y-102528667D01*
X139033333Y-102481048D01*
X138985714Y-102433429D01*
X138938095Y-102338190D01*
X138938095Y-102100095D01*
X138985714Y-102004857D01*
X139033333Y-101957238D01*
X139128571Y-101909619D01*
X139414286Y-101909619D01*
X139509524Y-101957238D01*
X139557143Y-102004857D01*
X142430476Y-101909619D02*
X143001905Y-101909619D01*
X142716191Y-101909619D02*
X142716191Y-102909619D01*
X142811429Y-102766762D01*
X142906667Y-102671524D01*
X143001905Y-102623905D01*
X142049524Y-102814381D02*
X142001905Y-102862000D01*
X141906667Y-102909619D01*
X141668571Y-102909619D01*
X141573333Y-102862000D01*
X141525714Y-102814381D01*
X141478095Y-102719143D01*
X141478095Y-102623905D01*
X141525714Y-102481048D01*
X142097143Y-101909619D01*
X141478095Y-101909619D01*
X137350476Y-101909619D02*
X137921905Y-101909619D01*
X137636191Y-101909619D02*
X137636191Y-102909619D01*
X137731429Y-102766762D01*
X137826667Y-102671524D01*
X137921905Y-102623905D01*
X136493333Y-102576286D02*
X136493333Y-101909619D01*
X136731429Y-102957238D02*
X136969524Y-102242952D01*
X136350476Y-102242952D01*
X134810476Y-101909619D02*
X135381905Y-101909619D01*
X135096191Y-101909619D02*
X135096191Y-102909619D01*
X135191429Y-102766762D01*
X135286667Y-102671524D01*
X135381905Y-102623905D01*
X133905714Y-102909619D02*
X134381905Y-102909619D01*
X134429524Y-102433429D01*
X134381905Y-102481048D01*
X134286667Y-102528667D01*
X134048571Y-102528667D01*
X133953333Y-102481048D01*
X133905714Y-102433429D01*
X133858095Y-102338190D01*
X133858095Y-102100095D01*
X133905714Y-102004857D01*
X133953333Y-101957238D01*
X134048571Y-101909619D01*
X134286667Y-101909619D01*
X134381905Y-101957238D01*
X134429524Y-102004857D01*
D11*
X129114619Y-119233905D02*
X128847952Y-118852952D01*
X128657476Y-119233905D02*
X128657476Y-118433905D01*
X128962238Y-118433905D01*
X129038429Y-118472000D01*
X129076524Y-118510095D01*
X129114619Y-118586286D01*
X129114619Y-118700571D01*
X129076524Y-118776762D01*
X129038429Y-118814857D01*
X128962238Y-118852952D01*
X128657476Y-118852952D01*
X129419381Y-119005333D02*
X129800333Y-119005333D01*
X129343190Y-119233905D02*
X129609857Y-118433905D01*
X129876524Y-119233905D01*
X130067000Y-118433905D02*
X130257476Y-119233905D01*
X130409857Y-118662476D01*
X130562238Y-119233905D01*
X130752714Y-118433905D01*
X131597477Y-118345000D02*
X131521286Y-118306905D01*
X131407001Y-118306905D01*
X131292715Y-118345000D01*
X131216524Y-118421190D01*
X131178429Y-118497381D01*
X131140334Y-118649762D01*
X131140334Y-118764048D01*
X131178429Y-118916429D01*
X131216524Y-118992619D01*
X131292715Y-119068810D01*
X131407001Y-119106905D01*
X131483191Y-119106905D01*
X131597477Y-119068810D01*
X131635572Y-119030714D01*
X131635572Y-118764048D01*
X131483191Y-118764048D01*
X131978429Y-119106905D02*
X131978429Y-118306905D01*
X132435572Y-119106905D01*
X132435572Y-118306905D01*
X132816524Y-119106905D02*
X132816524Y-118306905D01*
X133007000Y-118306905D01*
X133121286Y-118345000D01*
X133197477Y-118421190D01*
X133235572Y-118497381D01*
X133273667Y-118649762D01*
X133273667Y-118764048D01*
X133235572Y-118916429D01*
X133197477Y-118992619D01*
X133121286Y-119068810D01*
X133007000Y-119106905D01*
X132816524Y-119106905D01*
D12*
X136842524Y-119197381D02*
X136271095Y-119197381D01*
X136556809Y-119197381D02*
X136556809Y-118197381D01*
X136461571Y-118340238D01*
X136366333Y-118435476D01*
X136271095Y-118483095D01*
X137175857Y-118197381D02*
X137842524Y-118197381D01*
X137413952Y-119197381D01*
X141922524Y-119197381D02*
X141351095Y-119197381D01*
X141636809Y-119197381D02*
X141636809Y-118197381D01*
X141541571Y-118340238D01*
X141446333Y-118435476D01*
X141351095Y-118483095D01*
X142398714Y-119197381D02*
X142589190Y-119197381D01*
X142684429Y-119149762D01*
X142732048Y-119102143D01*
X142827286Y-118959286D01*
X142874905Y-118768810D01*
X142874905Y-118387857D01*
X142827286Y-118292619D01*
X142779667Y-118245000D01*
X142684429Y-118197381D01*
X142493952Y-118197381D01*
X142398714Y-118245000D01*
X142351095Y-118292619D01*
X142303476Y-118387857D01*
X142303476Y-118625952D01*
X142351095Y-118721190D01*
X142398714Y-118768810D01*
X142493952Y-118816429D01*
X142684429Y-118816429D01*
X142779667Y-118768810D01*
X142827286Y-118721190D01*
X142874905Y-118625952D01*
X134302524Y-119197381D02*
X133731095Y-119197381D01*
X134016809Y-119197381D02*
X134016809Y-118197381D01*
X133921571Y-118340238D01*
X133826333Y-118435476D01*
X133731095Y-118483095D01*
X135159667Y-118197381D02*
X134969190Y-118197381D01*
X134873952Y-118245000D01*
X134826333Y-118292619D01*
X134731095Y-118435476D01*
X134683476Y-118625952D01*
X134683476Y-119006905D01*
X134731095Y-119102143D01*
X134778714Y-119149762D01*
X134873952Y-119197381D01*
X135064429Y-119197381D01*
X135159667Y-119149762D01*
X135207286Y-119102143D01*
X135254905Y-119006905D01*
X135254905Y-118768810D01*
X135207286Y-118673571D01*
X135159667Y-118625952D01*
X135064429Y-118578333D01*
X134873952Y-118578333D01*
X134778714Y-118625952D01*
X134731095Y-118673571D01*
X134683476Y-118768810D01*
X139382524Y-119197381D02*
X138811095Y-119197381D01*
X139096809Y-119197381D02*
X139096809Y-118197381D01*
X139001571Y-118340238D01*
X138906333Y-118435476D01*
X138811095Y-118483095D01*
X139953952Y-118625952D02*
X139858714Y-118578333D01*
X139811095Y-118530714D01*
X139763476Y-118435476D01*
X139763476Y-118387857D01*
X139811095Y-118292619D01*
X139858714Y-118245000D01*
X139953952Y-118197381D01*
X140144429Y-118197381D01*
X140239667Y-118245000D01*
X140287286Y-118292619D01*
X140334905Y-118387857D01*
X140334905Y-118435476D01*
X140287286Y-118530714D01*
X140239667Y-118578333D01*
X140144429Y-118625952D01*
X139953952Y-118625952D01*
X139858714Y-118673571D01*
X139811095Y-118721190D01*
X139763476Y-118816429D01*
X139763476Y-119006905D01*
X139811095Y-119102143D01*
X139858714Y-119149762D01*
X139953952Y-119197381D01*
X140144429Y-119197381D01*
X140239667Y-119149762D01*
X140287286Y-119102143D01*
X140334905Y-119006905D01*
X140334905Y-118816429D01*
X140287286Y-118721190D01*
X140239667Y-118673571D01*
X140144429Y-118625952D01*
D11*
X147218476Y-118510095D02*
X147256571Y-118472000D01*
X147332762Y-118433905D01*
X147523238Y-118433905D01*
X147599428Y-118472000D01*
X147637524Y-118510095D01*
X147675619Y-118586286D01*
X147675619Y-118662476D01*
X147637524Y-118776762D01*
X147180381Y-119233905D01*
X147675619Y-119233905D01*
X148437524Y-119233905D02*
X147980381Y-119233905D01*
X148208952Y-119233905D02*
X148208952Y-118433905D01*
X148132762Y-118548190D01*
X148056571Y-118624381D01*
X147980381Y-118662476D01*
X152298476Y-118383095D02*
X152336571Y-118345000D01*
X152412762Y-118306905D01*
X152603238Y-118306905D01*
X152679428Y-118345000D01*
X152717524Y-118383095D01*
X152755619Y-118459286D01*
X152755619Y-118535476D01*
X152717524Y-118649762D01*
X152260381Y-119106905D01*
X152755619Y-119106905D01*
X153022286Y-118306905D02*
X153517524Y-118306905D01*
X153250857Y-118611667D01*
X153365143Y-118611667D01*
X153441333Y-118649762D01*
X153479429Y-118687857D01*
X153517524Y-118764048D01*
X153517524Y-118954524D01*
X153479429Y-119030714D01*
X153441333Y-119068810D01*
X153365143Y-119106905D01*
X153136571Y-119106905D01*
X153060381Y-119068810D01*
X153022286Y-119030714D01*
D12*
X144272095Y-118292619D02*
X144319714Y-118245000D01*
X144414952Y-118197381D01*
X144653048Y-118197381D01*
X144748286Y-118245000D01*
X144795905Y-118292619D01*
X144843524Y-118387857D01*
X144843524Y-118483095D01*
X144795905Y-118625952D01*
X144224476Y-119197381D01*
X144843524Y-119197381D01*
X145462571Y-118197381D02*
X145557810Y-118197381D01*
X145653048Y-118245000D01*
X145700667Y-118292619D01*
X145748286Y-118387857D01*
X145795905Y-118578333D01*
X145795905Y-118816429D01*
X145748286Y-119006905D01*
X145700667Y-119102143D01*
X145653048Y-119149762D01*
X145557810Y-119197381D01*
X145462571Y-119197381D01*
X145367333Y-119149762D01*
X145319714Y-119102143D01*
X145272095Y-119006905D01*
X145224476Y-118816429D01*
X145224476Y-118578333D01*
X145272095Y-118387857D01*
X145319714Y-118292619D01*
X145367333Y-118245000D01*
X145462571Y-118197381D01*
X149098095Y-118292619D02*
X149145714Y-118245000D01*
X149240952Y-118197381D01*
X149479048Y-118197381D01*
X149574286Y-118245000D01*
X149621905Y-118292619D01*
X149669524Y-118387857D01*
X149669524Y-118483095D01*
X149621905Y-118625952D01*
X149050476Y-119197381D01*
X149669524Y-119197381D01*
X150050476Y-118292619D02*
X150098095Y-118245000D01*
X150193333Y-118197381D01*
X150431429Y-118197381D01*
X150526667Y-118245000D01*
X150574286Y-118292619D01*
X150621905Y-118387857D01*
X150621905Y-118483095D01*
X150574286Y-118625952D01*
X150002857Y-119197381D01*
X150621905Y-119197381D01*
X156765714Y-118911667D02*
X157241905Y-118911667D01*
X156670476Y-119197381D02*
X157003809Y-118197381D01*
X157337143Y-119197381D01*
X158099048Y-118197381D02*
X157908571Y-118197381D01*
X157813333Y-118245000D01*
X157765714Y-118292619D01*
X157670476Y-118435476D01*
X157622857Y-118625952D01*
X157622857Y-119006905D01*
X157670476Y-119102143D01*
X157718095Y-119149762D01*
X157813333Y-119197381D01*
X158003810Y-119197381D01*
X158099048Y-119149762D01*
X158146667Y-119102143D01*
X158194286Y-119006905D01*
X158194286Y-118768810D01*
X158146667Y-118673571D01*
X158099048Y-118625952D01*
X158003810Y-118578333D01*
X157813333Y-118578333D01*
X157718095Y-118625952D01*
X157670476Y-118673571D01*
X157622857Y-118768810D01*
X161845714Y-118911667D02*
X162321905Y-118911667D01*
X161750476Y-119197381D02*
X162083809Y-118197381D01*
X162417143Y-119197381D01*
X163179048Y-118530714D02*
X163179048Y-119197381D01*
X162940952Y-118149762D02*
X162702857Y-118864048D01*
X163321905Y-118864048D01*
X154225714Y-118911667D02*
X154701905Y-118911667D01*
X154130476Y-119197381D02*
X154463809Y-118197381D01*
X154797143Y-119197381D01*
X155035238Y-118197381D02*
X155701905Y-118197381D01*
X155273333Y-119197381D01*
X159305714Y-118911667D02*
X159781905Y-118911667D01*
X159210476Y-119197381D02*
X159543809Y-118197381D01*
X159877143Y-119197381D01*
X160686667Y-118197381D02*
X160210476Y-118197381D01*
X160162857Y-118673571D01*
X160210476Y-118625952D01*
X160305714Y-118578333D01*
X160543810Y-118578333D01*
X160639048Y-118625952D01*
X160686667Y-118673571D01*
X160734286Y-118768810D01*
X160734286Y-119006905D01*
X160686667Y-119102143D01*
X160639048Y-119149762D01*
X160543810Y-119197381D01*
X160305714Y-119197381D01*
X160210476Y-119149762D01*
X160162857Y-119102143D01*
X164385714Y-118911667D02*
X164861905Y-118911667D01*
X164290476Y-119197381D02*
X164623809Y-118197381D01*
X164957143Y-119197381D01*
X165195238Y-118197381D02*
X165814286Y-118197381D01*
X165480952Y-118578333D01*
X165623810Y-118578333D01*
X165719048Y-118625952D01*
X165766667Y-118673571D01*
X165814286Y-118768810D01*
X165814286Y-119006905D01*
X165766667Y-119102143D01*
X165719048Y-119149762D01*
X165623810Y-119197381D01*
X165338095Y-119197381D01*
X165242857Y-119149762D01*
X165195238Y-119102143D01*
X166925714Y-118911667D02*
X167401905Y-118911667D01*
X166830476Y-119197381D02*
X167163809Y-118197381D01*
X167497143Y-119197381D01*
X167782857Y-118292619D02*
X167830476Y-118245000D01*
X167925714Y-118197381D01*
X168163810Y-118197381D01*
X168259048Y-118245000D01*
X168306667Y-118292619D01*
X168354286Y-118387857D01*
X168354286Y-118483095D01*
X168306667Y-118625952D01*
X167735238Y-119197381D01*
X168354286Y-119197381D01*
X169465714Y-118911667D02*
X169941905Y-118911667D01*
X169370476Y-119197381D02*
X169703809Y-118197381D01*
X170037143Y-119197381D01*
X170894286Y-119197381D02*
X170322857Y-119197381D01*
X170608571Y-119197381D02*
X170608571Y-118197381D01*
X170513333Y-118340238D01*
X170418095Y-118435476D01*
X170322857Y-118483095D01*
X172005714Y-118911667D02*
X172481905Y-118911667D01*
X171910476Y-119197381D02*
X172243809Y-118197381D01*
X172577143Y-119197381D01*
X173100952Y-118197381D02*
X173196191Y-118197381D01*
X173291429Y-118245000D01*
X173339048Y-118292619D01*
X173386667Y-118387857D01*
X173434286Y-118578333D01*
X173434286Y-118816429D01*
X173386667Y-119006905D01*
X173339048Y-119102143D01*
X173291429Y-119149762D01*
X173196191Y-119197381D01*
X173100952Y-119197381D01*
X173005714Y-119149762D01*
X172958095Y-119102143D01*
X172910476Y-119006905D01*
X172862857Y-118816429D01*
X172862857Y-118578333D01*
X172910476Y-118387857D01*
X172958095Y-118292619D01*
X173005714Y-118245000D01*
X173100952Y-118197381D01*
D13*
X165950000Y-114530000D02*
X165950000Y-113530000D01*
X164250000Y-113530000D02*
X164250000Y-114530000D01*
X169680000Y-108165000D02*
X170680000Y-108165000D01*
X170680000Y-106465000D02*
X169680000Y-106465000D01*
X169680000Y-104990000D02*
X170680000Y-104990000D01*
X170680000Y-103290000D02*
X169680000Y-103290000D01*
X152152513Y-115885406D02*
X151445406Y-116592513D01*
X152647487Y-117794594D02*
X153354594Y-117087487D01*
X168775000Y-115355000D02*
X167775000Y-115355000D01*
X167775000Y-117055000D02*
X168775000Y-117055000D01*
X132600000Y-111209020D02*
X132600000Y-113909020D01*
X134100000Y-111209020D02*
X134100000Y-113909020D01*
X133200000Y-112709020D02*
X133450000Y-112709020D01*
X133450000Y-112709020D02*
X133300000Y-112559020D01*
X133700000Y-112459020D02*
X133000000Y-112459020D01*
X133350000Y-112809020D02*
X133350000Y-113159020D01*
X133350000Y-112459020D02*
X133700000Y-112809020D01*
X133700000Y-112809020D02*
X133000000Y-112809020D01*
X133000000Y-112809020D02*
X133350000Y-112459020D01*
X132500000Y-107450000D02*
X132500000Y-108450000D01*
X134200000Y-108450000D02*
X134200000Y-107450000D01*
X145415000Y-103171445D02*
X144941238Y-103645206D01*
X152733555Y-110490000D02*
X152259794Y-110963762D01*
X145415000Y-117808555D02*
X145888762Y-117334794D01*
X138096445Y-110490000D02*
X138570206Y-110016238D01*
X145415000Y-103171445D02*
X145888762Y-103645206D01*
X138096445Y-110490000D02*
X138570206Y-110963762D01*
X145415000Y-117808555D02*
X144941238Y-117334794D01*
X152733555Y-110490000D02*
X152259794Y-110016238D01*
X144941238Y-103645206D02*
X143898256Y-102602224D01*
X128270000Y-115570000D02*
X128270000Y-102870000D01*
X128270000Y-102870000D02*
X130810000Y-102870000D01*
X130810000Y-102870000D02*
X130810000Y-115570000D01*
X127990000Y-118390000D02*
X127990000Y-116840000D01*
X128270000Y-115570000D02*
X130810000Y-115570000D01*
X131090000Y-116840000D02*
X131090000Y-118390000D01*
X131090000Y-118390000D02*
X127990000Y-118390000D01*
X135650000Y-115535000D02*
X135650000Y-114335000D01*
X137400000Y-114335000D02*
X137400000Y-115535000D01*
X172685000Y-117715000D02*
X171485000Y-117715000D01*
X171485000Y-115965000D02*
X172685000Y-115965000D01*
X165135000Y-105170000D02*
X166335000Y-105170000D01*
X166335000Y-106920000D02*
X165135000Y-106920000D01*
X157085000Y-108790000D02*
X156635000Y-109240000D01*
X157085000Y-112190000D02*
X156635000Y-111740000D01*
X161685000Y-112190000D02*
X162135000Y-111740000D01*
X161685000Y-108790000D02*
X162135000Y-109240000D01*
X160385000Y-108490000D02*
X161385000Y-109490000D01*
X161385000Y-109490000D02*
X161385000Y-111490000D01*
X161385000Y-111490000D02*
X160385000Y-112490000D01*
X160385000Y-112490000D02*
X158385000Y-112490000D01*
X158385000Y-112490000D02*
X157385000Y-111490000D01*
X157385000Y-111490000D02*
X157385000Y-109490000D01*
X157385000Y-109490000D02*
X158385000Y-108490000D01*
X158385000Y-108490000D02*
X160385000Y-108490000D01*
X160385000Y-113240000D02*
X158385000Y-113240000D01*
X156635000Y-109240000D02*
X156635000Y-111740000D01*
X160385000Y-107740000D02*
X158385000Y-107740000D01*
X162135000Y-109240000D02*
X162135000Y-111740000D01*
X160385000Y-110490000D02*
G75*
G03X160385000Y-110490000I-1000000J0D01*
G01*
X137345987Y-107295854D02*
X139680854Y-104960987D01*
X139680854Y-104960987D02*
X138333815Y-103613949D01*
X138333815Y-103613949D02*
X135998949Y-105948815D01*
X135998949Y-105948815D02*
X137345987Y-107295854D01*
X172378000Y-107180000D02*
X172378000Y-108180000D01*
X174078000Y-108180000D02*
X174078000Y-107180000D01*
X169810000Y-109110000D02*
G75*
G03X169810000Y-109110000I-100000J0D01*
G01*
X170260000Y-109360000D02*
X169760000Y-109360000D01*
X170260000Y-112260000D02*
X170260000Y-109360000D01*
X169760000Y-112260000D02*
X170260000Y-112260000D01*
X169760000Y-109360000D02*
X169760000Y-112260000D01*
X132850000Y-117690000D02*
X133850000Y-117690000D01*
X133850000Y-115990000D02*
X132850000Y-115990000D01*
X168486020Y-114923000D02*
X171186020Y-114923000D01*
X168486020Y-113423000D02*
X171186020Y-113423000D01*
X169986020Y-114323000D02*
X169986020Y-114073000D01*
X169986020Y-114073000D02*
X169836020Y-114223000D01*
X169736020Y-113823000D02*
X169736020Y-114523000D01*
X170086020Y-114173000D02*
X170436020Y-114173000D01*
X169736020Y-114173000D02*
X170086020Y-113823000D01*
X170086020Y-113823000D02*
X170086020Y-114523000D01*
X170086020Y-114523000D02*
X169736020Y-114173000D01*
D14*
G36*
X151188057Y-103127629D02*
X156246285Y-103127629D01*
X156246285Y-103798914D01*
X155494431Y-103798914D01*
X155490444Y-103722499D01*
X155478855Y-103656791D01*
X155458982Y-103599737D01*
X155430143Y-103549286D01*
X155398653Y-103510683D01*
X155352229Y-103469264D01*
X155301845Y-103440854D01*
X155245694Y-103424748D01*
X155181968Y-103420242D01*
X155167811Y-103420686D01*
X155126764Y-103424449D01*
X155092711Y-103432416D01*
X155064095Y-103443574D01*
X155017392Y-103471426D01*
X154983242Y-103503083D01*
X154947257Y-103542456D01*
X154947257Y-103425172D01*
X154780343Y-103425172D01*
X154780343Y-104179914D01*
X154620685Y-104179914D01*
X154620685Y-103905460D01*
X154620592Y-103828806D01*
X154620203Y-103765118D01*
X154619355Y-103712848D01*
X154617884Y-103670448D01*
X154615629Y-103636371D01*
X154612424Y-103609068D01*
X154608108Y-103586993D01*
X154602516Y-103568596D01*
X154595486Y-103552331D01*
X154586854Y-103536650D01*
X154580738Y-103526719D01*
X154548868Y-103488197D01*
X154507409Y-103455859D01*
X154461055Y-103433310D01*
X154457657Y-103432161D01*
X154421378Y-103424127D01*
X154377921Y-103420300D01*
X154332257Y-103420591D01*
X154289358Y-103424911D01*
X154254196Y-103433171D01*
X154246943Y-103435949D01*
X154198426Y-103463620D01*
X154160413Y-103500921D01*
X154148208Y-103518258D01*
X154127200Y-103551385D01*
X154127200Y-103425172D01*
X153960285Y-103425172D01*
X153960285Y-104179914D01*
X153800628Y-104179914D01*
X153800628Y-103425172D01*
X153626457Y-103425172D01*
X153626457Y-104179914D01*
X153474057Y-104179914D01*
X153474057Y-103425172D01*
X153292628Y-103425172D01*
X153292628Y-103662001D01*
X153292530Y-103732529D01*
X153292104Y-103790164D01*
X153291153Y-103836529D01*
X153289482Y-103873244D01*
X153286894Y-103901932D01*
X153283192Y-103924213D01*
X153278182Y-103941710D01*
X153271665Y-103956043D01*
X153263446Y-103968834D01*
X153254015Y-103980872D01*
X153221993Y-104008918D01*
X153182238Y-104027156D01*
X153138375Y-104034818D01*
X153094028Y-104031137D01*
X153064028Y-104021123D01*
X153035891Y-104004999D01*
X153015624Y-103984312D01*
X152998725Y-103954338D01*
X152997227Y-103951049D01*
X152993692Y-103941847D01*
X152990816Y-103930514D01*
X152988511Y-103915459D01*
X152986691Y-103895095D01*
X152985266Y-103867834D01*
X152984151Y-103832085D01*
X152983256Y-103786262D01*
X152982495Y-103728776D01*
X152981927Y-103673729D01*
X152979553Y-103425172D01*
X152805477Y-103425172D01*
X152808027Y-103706386D01*
X152808728Y-103777368D01*
X152688456Y-103777368D01*
X152685924Y-103733391D01*
X152682082Y-103699424D01*
X152676206Y-103670971D01*
X152667571Y-103643539D01*
X152666327Y-103640134D01*
X152635340Y-103574414D01*
X152595144Y-103519903D01*
X152545763Y-103476623D01*
X152487219Y-103444593D01*
X152441872Y-103429166D01*
X152406229Y-103422739D01*
X152361802Y-103419319D01*
X152314009Y-103418917D01*
X152268269Y-103421545D01*
X152229998Y-103427211D01*
X152223603Y-103428740D01*
X152157521Y-103452830D01*
X152100576Y-103488108D01*
X152053135Y-103534196D01*
X152015564Y-103590716D01*
X151988232Y-103657292D01*
X151982771Y-103676494D01*
X151976486Y-103712077D01*
X151972865Y-103757066D01*
X151971899Y-103806599D01*
X151973576Y-103855817D01*
X151977887Y-103899858D01*
X151983325Y-103928496D01*
X152007703Y-103997267D01*
X152042503Y-104056143D01*
X152087133Y-104104681D01*
X152141002Y-104142438D01*
X152203517Y-104168971D01*
X152274085Y-104183836D01*
X152328885Y-104187064D01*
X152403160Y-104181923D01*
X152468570Y-104165904D01*
X152526335Y-104138574D01*
X152577670Y-104099499D01*
X152579766Y-104097536D01*
X152622849Y-104048628D01*
X152654880Y-103993222D01*
X152676237Y-103930206D01*
X152687297Y-103858472D01*
X152688456Y-103777368D01*
X152808728Y-103777368D01*
X152808745Y-103779020D01*
X152809504Y-103838664D01*
X152810382Y-103886842D01*
X152811453Y-103925080D01*
X152812792Y-103954901D01*
X152814476Y-103977831D01*
X152816581Y-103995393D01*
X152819182Y-104009112D01*
X152822354Y-104020512D01*
X152823834Y-104024862D01*
X152849612Y-104077884D01*
X152885802Y-104120857D01*
X152932809Y-104154246D01*
X152939808Y-104157945D01*
X152963461Y-104169533D01*
X152982562Y-104176906D01*
X153001768Y-104181023D01*
X153025735Y-104182845D01*
X153059121Y-104183333D01*
X153062907Y-104183345D01*
X153115644Y-104181624D01*
X153157779Y-104175311D01*
X153192833Y-104163154D01*
X153224327Y-104143903D01*
X153255784Y-104116306D01*
X153258085Y-104114019D01*
X153299885Y-104072219D01*
X153299885Y-104179914D01*
X153474057Y-104179914D01*
X153626457Y-104179914D01*
X153800628Y-104179914D01*
X153960285Y-104179914D01*
X154133731Y-104179914D01*
X154135908Y-103938614D01*
X154136541Y-103872779D01*
X154137199Y-103819785D01*
X154137991Y-103777961D01*
X154139028Y-103745635D01*
X154140418Y-103721133D01*
X154142271Y-103702785D01*
X154144698Y-103688918D01*
X154147807Y-103677859D01*
X154151708Y-103667937D01*
X154153982Y-103662897D01*
X154179555Y-103621484D01*
X154212519Y-103592491D01*
X154253379Y-103575599D01*
X154300443Y-103570474D01*
X154348307Y-103576202D01*
X154386896Y-103593063D01*
X154416404Y-103621188D01*
X154437024Y-103660707D01*
X154438147Y-103663926D01*
X154440848Y-103679191D01*
X154443013Y-103707652D01*
X154444652Y-103749586D01*
X154445773Y-103805272D01*
X154446384Y-103874985D01*
X154446514Y-103934255D01*
X154446514Y-104179914D01*
X154620685Y-104179914D01*
X154780343Y-104179914D01*
X154780343Y-104361343D01*
X153811514Y-104361343D01*
X153810888Y-104335935D01*
X153807583Y-104319539D01*
X153799456Y-104306659D01*
X153784406Y-104291843D01*
X153766605Y-104277148D01*
X153750578Y-104269731D01*
X153729759Y-104267191D01*
X153716424Y-104267000D01*
X153691736Y-104267910D01*
X153675070Y-104272395D01*
X153659964Y-104283093D01*
X153647375Y-104295175D01*
X153630695Y-104313335D01*
X153622312Y-104328663D01*
X153619440Y-104347702D01*
X153619200Y-104361343D01*
X153620298Y-104384933D01*
X153625448Y-104401388D01*
X153637437Y-104417250D01*
X153647375Y-104427511D01*
X153665085Y-104443902D01*
X153679988Y-104452298D01*
X153698546Y-104455336D01*
X153716424Y-104455686D01*
X153741774Y-104454612D01*
X153759239Y-104449790D01*
X153775387Y-104438821D01*
X153784406Y-104430844D01*
X153799481Y-104415998D01*
X153807595Y-104403117D01*
X153810892Y-104386706D01*
X153811514Y-104361343D01*
X154780343Y-104361343D01*
X154780343Y-104462943D01*
X154954514Y-104462943D01*
X154954514Y-104061623D01*
X154976230Y-104091600D01*
X155011478Y-104128385D01*
X155056122Y-104156377D01*
X155107662Y-104175097D01*
X155163597Y-104184067D01*
X155221427Y-104182809D01*
X155278651Y-104170843D01*
X155315574Y-104156520D01*
X155360730Y-104128406D01*
X155402357Y-104089530D01*
X155436800Y-104043641D01*
X155450974Y-104017588D01*
X155469669Y-103974169D01*
X155482440Y-103933766D01*
X155490195Y-103891799D01*
X155493847Y-103843688D01*
X155494431Y-103798914D01*
X156246285Y-103798914D01*
X156246285Y-106226429D01*
X156057600Y-106226429D01*
X156057600Y-104666143D01*
X151376743Y-104666143D01*
X151376743Y-106226429D01*
X156057600Y-106226429D01*
X156246285Y-106226429D01*
X156246285Y-106415114D01*
X151188057Y-106415114D01*
X151188057Y-103127629D01*
X151188057Y-103127629D01*
G37*
X151188057Y-103127629D02*
X156246285Y-103127629D01*
X156246285Y-103798914D01*
X155494431Y-103798914D01*
X155490444Y-103722499D01*
X155478855Y-103656791D01*
X155458982Y-103599737D01*
X155430143Y-103549286D01*
X155398653Y-103510683D01*
X155352229Y-103469264D01*
X155301845Y-103440854D01*
X155245694Y-103424748D01*
X155181968Y-103420242D01*
X155167811Y-103420686D01*
X155126764Y-103424449D01*
X155092711Y-103432416D01*
X155064095Y-103443574D01*
X155017392Y-103471426D01*
X154983242Y-103503083D01*
X154947257Y-103542456D01*
X154947257Y-103425172D01*
X154780343Y-103425172D01*
X154780343Y-104179914D01*
X154620685Y-104179914D01*
X154620685Y-103905460D01*
X154620592Y-103828806D01*
X154620203Y-103765118D01*
X154619355Y-103712848D01*
X154617884Y-103670448D01*
X154615629Y-103636371D01*
X154612424Y-103609068D01*
X154608108Y-103586993D01*
X154602516Y-103568596D01*
X154595486Y-103552331D01*
X154586854Y-103536650D01*
X154580738Y-103526719D01*
X154548868Y-103488197D01*
X154507409Y-103455859D01*
X154461055Y-103433310D01*
X154457657Y-103432161D01*
X154421378Y-103424127D01*
X154377921Y-103420300D01*
X154332257Y-103420591D01*
X154289358Y-103424911D01*
X154254196Y-103433171D01*
X154246943Y-103435949D01*
X154198426Y-103463620D01*
X154160413Y-103500921D01*
X154148208Y-103518258D01*
X154127200Y-103551385D01*
X154127200Y-103425172D01*
X153960285Y-103425172D01*
X153960285Y-104179914D01*
X153800628Y-104179914D01*
X153800628Y-103425172D01*
X153626457Y-103425172D01*
X153626457Y-104179914D01*
X153474057Y-104179914D01*
X153474057Y-103425172D01*
X153292628Y-103425172D01*
X153292628Y-103662001D01*
X153292530Y-103732529D01*
X153292104Y-103790164D01*
X153291153Y-103836529D01*
X153289482Y-103873244D01*
X153286894Y-103901932D01*
X153283192Y-103924213D01*
X153278182Y-103941710D01*
X153271665Y-103956043D01*
X153263446Y-103968834D01*
X153254015Y-103980872D01*
X153221993Y-104008918D01*
X153182238Y-104027156D01*
X153138375Y-104034818D01*
X153094028Y-104031137D01*
X153064028Y-104021123D01*
X153035891Y-104004999D01*
X153015624Y-103984312D01*
X152998725Y-103954338D01*
X152997227Y-103951049D01*
X152993692Y-103941847D01*
X152990816Y-103930514D01*
X152988511Y-103915459D01*
X152986691Y-103895095D01*
X152985266Y-103867834D01*
X152984151Y-103832085D01*
X152983256Y-103786262D01*
X152982495Y-103728776D01*
X152981927Y-103673729D01*
X152979553Y-103425172D01*
X152805477Y-103425172D01*
X152808027Y-103706386D01*
X152808728Y-103777368D01*
X152688456Y-103777368D01*
X152685924Y-103733391D01*
X152682082Y-103699424D01*
X152676206Y-103670971D01*
X152667571Y-103643539D01*
X152666327Y-103640134D01*
X152635340Y-103574414D01*
X152595144Y-103519903D01*
X152545763Y-103476623D01*
X152487219Y-103444593D01*
X152441872Y-103429166D01*
X152406229Y-103422739D01*
X152361802Y-103419319D01*
X152314009Y-103418917D01*
X152268269Y-103421545D01*
X152229998Y-103427211D01*
X152223603Y-103428740D01*
X152157521Y-103452830D01*
X152100576Y-103488108D01*
X152053135Y-103534196D01*
X152015564Y-103590716D01*
X151988232Y-103657292D01*
X151982771Y-103676494D01*
X151976486Y-103712077D01*
X151972865Y-103757066D01*
X151971899Y-103806599D01*
X151973576Y-103855817D01*
X151977887Y-103899858D01*
X151983325Y-103928496D01*
X152007703Y-103997267D01*
X152042503Y-104056143D01*
X152087133Y-104104681D01*
X152141002Y-104142438D01*
X152203517Y-104168971D01*
X152274085Y-104183836D01*
X152328885Y-104187064D01*
X152403160Y-104181923D01*
X152468570Y-104165904D01*
X152526335Y-104138574D01*
X152577670Y-104099499D01*
X152579766Y-104097536D01*
X152622849Y-104048628D01*
X152654880Y-103993222D01*
X152676237Y-103930206D01*
X152687297Y-103858472D01*
X152688456Y-103777368D01*
X152808728Y-103777368D01*
X152808745Y-103779020D01*
X152809504Y-103838664D01*
X152810382Y-103886842D01*
X152811453Y-103925080D01*
X152812792Y-103954901D01*
X152814476Y-103977831D01*
X152816581Y-103995393D01*
X152819182Y-104009112D01*
X152822354Y-104020512D01*
X152823834Y-104024862D01*
X152849612Y-104077884D01*
X152885802Y-104120857D01*
X152932809Y-104154246D01*
X152939808Y-104157945D01*
X152963461Y-104169533D01*
X152982562Y-104176906D01*
X153001768Y-104181023D01*
X153025735Y-104182845D01*
X153059121Y-104183333D01*
X153062907Y-104183345D01*
X153115644Y-104181624D01*
X153157779Y-104175311D01*
X153192833Y-104163154D01*
X153224327Y-104143903D01*
X153255784Y-104116306D01*
X153258085Y-104114019D01*
X153299885Y-104072219D01*
X153299885Y-104179914D01*
X153474057Y-104179914D01*
X153626457Y-104179914D01*
X153800628Y-104179914D01*
X153960285Y-104179914D01*
X154133731Y-104179914D01*
X154135908Y-103938614D01*
X154136541Y-103872779D01*
X154137199Y-103819785D01*
X154137991Y-103777961D01*
X154139028Y-103745635D01*
X154140418Y-103721133D01*
X154142271Y-103702785D01*
X154144698Y-103688918D01*
X154147807Y-103677859D01*
X154151708Y-103667937D01*
X154153982Y-103662897D01*
X154179555Y-103621484D01*
X154212519Y-103592491D01*
X154253379Y-103575599D01*
X154300443Y-103570474D01*
X154348307Y-103576202D01*
X154386896Y-103593063D01*
X154416404Y-103621188D01*
X154437024Y-103660707D01*
X154438147Y-103663926D01*
X154440848Y-103679191D01*
X154443013Y-103707652D01*
X154444652Y-103749586D01*
X154445773Y-103805272D01*
X154446384Y-103874985D01*
X154446514Y-103934255D01*
X154446514Y-104179914D01*
X154620685Y-104179914D01*
X154780343Y-104179914D01*
X154780343Y-104361343D01*
X153811514Y-104361343D01*
X153810888Y-104335935D01*
X153807583Y-104319539D01*
X153799456Y-104306659D01*
X153784406Y-104291843D01*
X153766605Y-104277148D01*
X153750578Y-104269731D01*
X153729759Y-104267191D01*
X153716424Y-104267000D01*
X153691736Y-104267910D01*
X153675070Y-104272395D01*
X153659964Y-104283093D01*
X153647375Y-104295175D01*
X153630695Y-104313335D01*
X153622312Y-104328663D01*
X153619440Y-104347702D01*
X153619200Y-104361343D01*
X153620298Y-104384933D01*
X153625448Y-104401388D01*
X153637437Y-104417250D01*
X153647375Y-104427511D01*
X153665085Y-104443902D01*
X153679988Y-104452298D01*
X153698546Y-104455336D01*
X153716424Y-104455686D01*
X153741774Y-104454612D01*
X153759239Y-104449790D01*
X153775387Y-104438821D01*
X153784406Y-104430844D01*
X153799481Y-104415998D01*
X153807595Y-104403117D01*
X153810892Y-104386706D01*
X153811514Y-104361343D01*
X154780343Y-104361343D01*
X154780343Y-104462943D01*
X154954514Y-104462943D01*
X154954514Y-104061623D01*
X154976230Y-104091600D01*
X155011478Y-104128385D01*
X155056122Y-104156377D01*
X155107662Y-104175097D01*
X155163597Y-104184067D01*
X155221427Y-104182809D01*
X155278651Y-104170843D01*
X155315574Y-104156520D01*
X155360730Y-104128406D01*
X155402357Y-104089530D01*
X155436800Y-104043641D01*
X155450974Y-104017588D01*
X155469669Y-103974169D01*
X155482440Y-103933766D01*
X155490195Y-103891799D01*
X155493847Y-103843688D01*
X155494431Y-103798914D01*
X156246285Y-103798914D01*
X156246285Y-106226429D01*
X156057600Y-106226429D01*
X156057600Y-104666143D01*
X151376743Y-104666143D01*
X151376743Y-106226429D01*
X156057600Y-106226429D01*
X156246285Y-106226429D01*
X156246285Y-106415114D01*
X151188057Y-106415114D01*
X151188057Y-103127629D01*
G36*
X155089507Y-104028347D02*
X155047031Y-104008788D01*
X155010379Y-103976830D01*
X154980851Y-103933137D01*
X154974137Y-103919118D01*
X154963851Y-103885526D01*
X154957438Y-103843127D01*
X154955155Y-103797171D01*
X154957257Y-103752907D01*
X154963998Y-103715585D01*
X154964200Y-103714882D01*
X154985204Y-103662736D01*
X155014299Y-103621566D01*
X155050671Y-103592066D01*
X155093506Y-103574932D01*
X155133296Y-103570599D01*
X155161881Y-103572705D01*
X155188814Y-103577791D01*
X155201257Y-103581885D01*
X155240165Y-103606526D01*
X155271818Y-103643207D01*
X155295676Y-103691098D01*
X155311202Y-103749373D01*
X155311564Y-103751447D01*
X155315899Y-103806728D01*
X155310600Y-103860513D01*
X155296656Y-103910612D01*
X155275058Y-103954837D01*
X155246794Y-103990996D01*
X155212855Y-104016900D01*
X155186743Y-104027623D01*
X155136511Y-104034847D01*
X155089507Y-104028347D01*
X155089507Y-104028347D01*
G37*
X155089507Y-104028347D02*
X155047031Y-104008788D01*
X155010379Y-103976830D01*
X154980851Y-103933137D01*
X154974137Y-103919118D01*
X154963851Y-103885526D01*
X154957438Y-103843127D01*
X154955155Y-103797171D01*
X154957257Y-103752907D01*
X154963998Y-103715585D01*
X154964200Y-103714882D01*
X154985204Y-103662736D01*
X155014299Y-103621566D01*
X155050671Y-103592066D01*
X155093506Y-103574932D01*
X155133296Y-103570599D01*
X155161881Y-103572705D01*
X155188814Y-103577791D01*
X155201257Y-103581885D01*
X155240165Y-103606526D01*
X155271818Y-103643207D01*
X155295676Y-103691098D01*
X155311202Y-103749373D01*
X155311564Y-103751447D01*
X155315899Y-103806728D01*
X155310600Y-103860513D01*
X155296656Y-103910612D01*
X155275058Y-103954837D01*
X155246794Y-103990996D01*
X155212855Y-104016900D01*
X155186743Y-104027623D01*
X155136511Y-104034847D01*
X155089507Y-104028347D01*
G36*
X152281488Y-104035746D02*
X152239608Y-104017684D01*
X152205070Y-103987267D01*
X152177526Y-103944238D01*
X152167465Y-103921066D01*
X152156614Y-103880466D01*
X152150840Y-103831547D01*
X152150231Y-103779619D01*
X152154877Y-103729996D01*
X152163621Y-103691705D01*
X152178874Y-103657317D01*
X152200856Y-103623984D01*
X152226360Y-103595709D01*
X152252181Y-103576497D01*
X152258162Y-103573640D01*
X152288773Y-103564641D01*
X152323551Y-103559936D01*
X152355462Y-103560255D01*
X152367343Y-103562316D01*
X152413893Y-103581096D01*
X152451520Y-103611288D01*
X152480160Y-103652806D01*
X152499750Y-103705565D01*
X152508321Y-103751299D01*
X152511116Y-103799774D01*
X152508373Y-103850054D01*
X152500661Y-103896893D01*
X152488548Y-103935043D01*
X152488377Y-103935430D01*
X152462042Y-103980744D01*
X152428780Y-104013361D01*
X152388206Y-104033542D01*
X152339939Y-104041543D01*
X152331057Y-104041710D01*
X152281488Y-104035746D01*
X152281488Y-104035746D01*
G37*
X152281488Y-104035746D02*
X152239608Y-104017684D01*
X152205070Y-103987267D01*
X152177526Y-103944238D01*
X152167465Y-103921066D01*
X152156614Y-103880466D01*
X152150840Y-103831547D01*
X152150231Y-103779619D01*
X152154877Y-103729996D01*
X152163621Y-103691705D01*
X152178874Y-103657317D01*
X152200856Y-103623984D01*
X152226360Y-103595709D01*
X152252181Y-103576497D01*
X152258162Y-103573640D01*
X152288773Y-103564641D01*
X152323551Y-103559936D01*
X152355462Y-103560255D01*
X152367343Y-103562316D01*
X152413893Y-103581096D01*
X152451520Y-103611288D01*
X152480160Y-103652806D01*
X152499750Y-103705565D01*
X152508321Y-103751299D01*
X152511116Y-103799774D01*
X152508373Y-103850054D01*
X152500661Y-103896893D01*
X152488548Y-103935043D01*
X152488377Y-103935430D01*
X152462042Y-103980744D01*
X152428780Y-104013361D01*
X152388206Y-104033542D01*
X152339939Y-104041543D01*
X152331057Y-104041710D01*
X152281488Y-104035746D01*
G36*
X151805610Y-105685023D02*
X151776953Y-105682482D01*
X151757519Y-105677836D01*
X151745546Y-105670534D01*
X151739274Y-105660027D01*
X151736940Y-105645766D01*
X151736697Y-105635803D01*
X151741014Y-105609668D01*
X151754837Y-105593286D01*
X151779476Y-105585519D01*
X151795621Y-105584516D01*
X151830040Y-105584172D01*
X151860653Y-105500714D01*
X151872023Y-105469586D01*
X151887153Y-105427969D01*
X151904893Y-105379035D01*
X151924096Y-105325954D01*
X151943612Y-105271898D01*
X151953995Y-105243086D01*
X151981235Y-105168626D01*
X152004982Y-105106504D01*
X152025955Y-105055172D01*
X152044875Y-105013076D01*
X152062461Y-104978668D01*
X152079432Y-104950395D01*
X152096507Y-104926708D01*
X152106135Y-104915152D01*
X152146194Y-104879028D01*
X152192970Y-104852908D01*
X152243405Y-104837834D01*
X152294441Y-104834851D01*
X152326534Y-104839903D01*
X152360220Y-104854111D01*
X152393228Y-104877526D01*
X152419815Y-104905754D01*
X152427033Y-104916816D01*
X152440380Y-104951900D01*
X152442157Y-104986477D01*
X152433567Y-105017989D01*
X152415814Y-105043878D01*
X152390101Y-105061589D01*
X152357631Y-105068563D01*
X152355623Y-105068585D01*
X152326585Y-105062263D01*
X152304255Y-105045448D01*
X152290601Y-105021366D01*
X152287591Y-104993240D01*
X152294749Y-104968808D01*
X152302137Y-104953330D01*
X152305617Y-104944722D01*
X152305657Y-104944428D01*
X152299195Y-104942879D01*
X152282982Y-104941994D01*
X152275452Y-104941914D01*
X152237510Y-104948720D01*
X152203075Y-104967397D01*
X152174685Y-104995334D01*
X152154877Y-105029921D01*
X152146189Y-105068546D01*
X152146000Y-105075112D01*
X152147641Y-105090118D01*
X152152775Y-105113001D01*
X152161718Y-105144793D01*
X152174789Y-105186530D01*
X152192303Y-105239246D01*
X152214578Y-105303974D01*
X152226964Y-105339360D01*
X152246451Y-105394481D01*
X152264661Y-105445399D01*
X152280980Y-105490450D01*
X152294799Y-105527967D01*
X152305504Y-105556284D01*
X152312484Y-105573734D01*
X152314836Y-105578605D01*
X152326925Y-105584077D01*
X152350452Y-105586082D01*
X152361449Y-105585862D01*
X152386343Y-105585889D01*
X152401327Y-105589367D01*
X152410811Y-105597388D01*
X152411463Y-105598259D01*
X152419798Y-105618685D01*
X152421014Y-105642857D01*
X152415212Y-105664023D01*
X152410367Y-105670739D01*
X152406287Y-105675125D01*
X152402721Y-105678401D01*
X152397681Y-105680747D01*
X152389178Y-105682342D01*
X152375226Y-105683365D01*
X152353835Y-105683996D01*
X152323017Y-105684414D01*
X152280784Y-105684799D01*
X152251530Y-105685065D01*
X152203026Y-105685407D01*
X152166937Y-105685270D01*
X152141167Y-105684491D01*
X152123619Y-105682908D01*
X152112198Y-105680357D01*
X152104808Y-105676676D01*
X152100944Y-105673373D01*
X152091924Y-105656520D01*
X152088087Y-105633672D01*
X152090259Y-105612389D01*
X152093497Y-105605215D01*
X152111145Y-105590504D01*
X152136519Y-105583232D01*
X152158622Y-105584019D01*
X152175617Y-105586033D01*
X152181325Y-105582916D01*
X152180711Y-105579240D01*
X152177729Y-105569826D01*
X152171245Y-105548545D01*
X152161878Y-105517447D01*
X152150243Y-105478583D01*
X152136956Y-105434003D01*
X152127669Y-105402743D01*
X152111703Y-105348970D01*
X152099334Y-105307566D01*
X152090032Y-105276985D01*
X152083268Y-105255682D01*
X152078513Y-105242110D01*
X152075236Y-105234724D01*
X152072908Y-105231977D01*
X152070999Y-105232325D01*
X152069684Y-105233525D01*
X152065647Y-105242036D01*
X152058029Y-105262020D01*
X152047617Y-105291110D01*
X152035198Y-105326936D01*
X152021557Y-105367131D01*
X152007482Y-105409326D01*
X151993759Y-105451153D01*
X151981175Y-105490244D01*
X151970516Y-105524230D01*
X151962568Y-105550743D01*
X151958119Y-105567415D01*
X151957448Y-105571472D01*
X151958662Y-105581040D01*
X151964931Y-105585619D01*
X151979880Y-105586657D01*
X151994334Y-105586191D01*
X152023410Y-105588105D01*
X152041336Y-105598100D01*
X152050032Y-105617951D01*
X152051657Y-105639099D01*
X152050973Y-105654336D01*
X152047713Y-105665796D01*
X152040066Y-105674031D01*
X152026220Y-105679590D01*
X152004364Y-105683027D01*
X151972685Y-105684892D01*
X151929373Y-105685737D01*
X151897638Y-105685980D01*
X151845251Y-105686006D01*
X151805610Y-105685023D01*
X151805610Y-105685023D01*
G37*
X151805610Y-105685023D02*
X151776953Y-105682482D01*
X151757519Y-105677836D01*
X151745546Y-105670534D01*
X151739274Y-105660027D01*
X151736940Y-105645766D01*
X151736697Y-105635803D01*
X151741014Y-105609668D01*
X151754837Y-105593286D01*
X151779476Y-105585519D01*
X151795621Y-105584516D01*
X151830040Y-105584172D01*
X151860653Y-105500714D01*
X151872023Y-105469586D01*
X151887153Y-105427969D01*
X151904893Y-105379035D01*
X151924096Y-105325954D01*
X151943612Y-105271898D01*
X151953995Y-105243086D01*
X151981235Y-105168626D01*
X152004982Y-105106504D01*
X152025955Y-105055172D01*
X152044875Y-105013076D01*
X152062461Y-104978668D01*
X152079432Y-104950395D01*
X152096507Y-104926708D01*
X152106135Y-104915152D01*
X152146194Y-104879028D01*
X152192970Y-104852908D01*
X152243405Y-104837834D01*
X152294441Y-104834851D01*
X152326534Y-104839903D01*
X152360220Y-104854111D01*
X152393228Y-104877526D01*
X152419815Y-104905754D01*
X152427033Y-104916816D01*
X152440380Y-104951900D01*
X152442157Y-104986477D01*
X152433567Y-105017989D01*
X152415814Y-105043878D01*
X152390101Y-105061589D01*
X152357631Y-105068563D01*
X152355623Y-105068585D01*
X152326585Y-105062263D01*
X152304255Y-105045448D01*
X152290601Y-105021366D01*
X152287591Y-104993240D01*
X152294749Y-104968808D01*
X152302137Y-104953330D01*
X152305617Y-104944722D01*
X152305657Y-104944428D01*
X152299195Y-104942879D01*
X152282982Y-104941994D01*
X152275452Y-104941914D01*
X152237510Y-104948720D01*
X152203075Y-104967397D01*
X152174685Y-104995334D01*
X152154877Y-105029921D01*
X152146189Y-105068546D01*
X152146000Y-105075112D01*
X152147641Y-105090118D01*
X152152775Y-105113001D01*
X152161718Y-105144793D01*
X152174789Y-105186530D01*
X152192303Y-105239246D01*
X152214578Y-105303974D01*
X152226964Y-105339360D01*
X152246451Y-105394481D01*
X152264661Y-105445399D01*
X152280980Y-105490450D01*
X152294799Y-105527967D01*
X152305504Y-105556284D01*
X152312484Y-105573734D01*
X152314836Y-105578605D01*
X152326925Y-105584077D01*
X152350452Y-105586082D01*
X152361449Y-105585862D01*
X152386343Y-105585889D01*
X152401327Y-105589367D01*
X152410811Y-105597388D01*
X152411463Y-105598259D01*
X152419798Y-105618685D01*
X152421014Y-105642857D01*
X152415212Y-105664023D01*
X152410367Y-105670739D01*
X152406287Y-105675125D01*
X152402721Y-105678401D01*
X152397681Y-105680747D01*
X152389178Y-105682342D01*
X152375226Y-105683365D01*
X152353835Y-105683996D01*
X152323017Y-105684414D01*
X152280784Y-105684799D01*
X152251530Y-105685065D01*
X152203026Y-105685407D01*
X152166937Y-105685270D01*
X152141167Y-105684491D01*
X152123619Y-105682908D01*
X152112198Y-105680357D01*
X152104808Y-105676676D01*
X152100944Y-105673373D01*
X152091924Y-105656520D01*
X152088087Y-105633672D01*
X152090259Y-105612389D01*
X152093497Y-105605215D01*
X152111145Y-105590504D01*
X152136519Y-105583232D01*
X152158622Y-105584019D01*
X152175617Y-105586033D01*
X152181325Y-105582916D01*
X152180711Y-105579240D01*
X152177729Y-105569826D01*
X152171245Y-105548545D01*
X152161878Y-105517447D01*
X152150243Y-105478583D01*
X152136956Y-105434003D01*
X152127669Y-105402743D01*
X152111703Y-105348970D01*
X152099334Y-105307566D01*
X152090032Y-105276985D01*
X152083268Y-105255682D01*
X152078513Y-105242110D01*
X152075236Y-105234724D01*
X152072908Y-105231977D01*
X152070999Y-105232325D01*
X152069684Y-105233525D01*
X152065647Y-105242036D01*
X152058029Y-105262020D01*
X152047617Y-105291110D01*
X152035198Y-105326936D01*
X152021557Y-105367131D01*
X152007482Y-105409326D01*
X151993759Y-105451153D01*
X151981175Y-105490244D01*
X151970516Y-105524230D01*
X151962568Y-105550743D01*
X151958119Y-105567415D01*
X151957448Y-105571472D01*
X151958662Y-105581040D01*
X151964931Y-105585619D01*
X151979880Y-105586657D01*
X151994334Y-105586191D01*
X152023410Y-105588105D01*
X152041336Y-105598100D01*
X152050032Y-105617951D01*
X152051657Y-105639099D01*
X152050973Y-105654336D01*
X152047713Y-105665796D01*
X152040066Y-105674031D01*
X152026220Y-105679590D01*
X152004364Y-105683027D01*
X151972685Y-105684892D01*
X151929373Y-105685737D01*
X151897638Y-105685980D01*
X151845251Y-105686006D01*
X151805610Y-105685023D01*
G36*
X153689467Y-105807922D02*
X153655825Y-105796600D01*
X153645509Y-105790604D01*
X153617081Y-105764730D01*
X153601550Y-105733780D01*
X153597428Y-105700255D01*
X153599179Y-105676620D01*
X153606530Y-105659359D01*
X153622103Y-105641503D01*
X153647536Y-105622357D01*
X153671457Y-105617559D01*
X153694293Y-105627071D01*
X153702987Y-105634642D01*
X153715348Y-105653975D01*
X153720915Y-105677148D01*
X153718931Y-105698441D01*
X153712812Y-105708999D01*
X153710261Y-105716429D01*
X153720418Y-105721936D01*
X153739810Y-105721321D01*
X153756338Y-105707605D01*
X153765148Y-105690910D01*
X153767433Y-105678478D01*
X153762773Y-105665527D01*
X153749438Y-105647702D01*
X153746714Y-105644491D01*
X153720907Y-105610129D01*
X153704675Y-105576531D01*
X153695898Y-105538219D01*
X153693070Y-105506002D01*
X153692190Y-105474907D01*
X153693991Y-105452408D01*
X153699473Y-105432684D01*
X153709581Y-105410031D01*
X153738271Y-105366581D01*
X153776425Y-105332010D01*
X153821239Y-105308818D01*
X153824316Y-105307764D01*
X153864314Y-105299857D01*
X153911142Y-105298942D01*
X153959111Y-105304661D01*
X154002535Y-105316658D01*
X154009208Y-105319362D01*
X154037927Y-105328819D01*
X154056935Y-105328004D01*
X154067000Y-105316686D01*
X154069143Y-105301379D01*
X154067160Y-105286395D01*
X154060017Y-105275061D01*
X154045918Y-105266740D01*
X154023070Y-105260796D01*
X153989678Y-105256592D01*
X153943948Y-105253492D01*
X153932561Y-105252919D01*
X153869294Y-105248591D01*
X153818083Y-105241931D01*
X153776567Y-105232289D01*
X153742385Y-105219014D01*
X153713176Y-105201456D01*
X153696160Y-105187810D01*
X153664739Y-105155940D01*
X153645277Y-105124438D01*
X153635952Y-105089106D01*
X153634911Y-105046449D01*
X153637434Y-105015646D01*
X153642368Y-104993618D01*
X153651383Y-104974647D01*
X153659462Y-104962329D01*
X153694858Y-104923525D01*
X153740219Y-104894365D01*
X153795903Y-104874709D01*
X153862266Y-104864417D01*
X153914606Y-104862703D01*
X153950279Y-104863936D01*
X153985056Y-104866705D01*
X154013319Y-104870508D01*
X154021971Y-104872311D01*
X154077359Y-104891645D01*
X154122077Y-104919152D01*
X154155403Y-104954054D01*
X154176614Y-104995570D01*
X154184991Y-105042922D01*
X154185098Y-105048485D01*
X154183767Y-105067485D01*
X154067613Y-105067485D01*
X154067190Y-105038967D01*
X154057816Y-105016059D01*
X154034381Y-104994342D01*
X153999962Y-104978355D01*
X153957148Y-104968684D01*
X153908528Y-104965915D01*
X153856999Y-104970584D01*
X153810283Y-104981830D01*
X153776087Y-104998076D01*
X153755033Y-105019011D01*
X153753137Y-105022361D01*
X153743475Y-105052299D01*
X153747725Y-105079576D01*
X153761342Y-105100995D01*
X153786503Y-105120863D01*
X153821341Y-105134767D01*
X153862644Y-105142795D01*
X153907204Y-105145037D01*
X153951808Y-105141581D01*
X153993246Y-105132516D01*
X154028308Y-105117930D01*
X154053783Y-105097913D01*
X154057777Y-105092797D01*
X154067613Y-105067485D01*
X154183767Y-105067485D01*
X154182492Y-105085666D01*
X154172742Y-105115259D01*
X154153489Y-105143032D01*
X154140889Y-105156686D01*
X154111879Y-105186400D01*
X154137032Y-105211553D01*
X154161501Y-105245236D01*
X154173388Y-105282698D01*
X154172964Y-105321111D01*
X154160498Y-105357646D01*
X154136263Y-105389475D01*
X154118663Y-105403520D01*
X154104134Y-105417194D01*
X154102723Y-105428143D01*
X154115316Y-105475128D01*
X154115589Y-105507588D01*
X154002717Y-105507588D01*
X153999977Y-105475180D01*
X153988006Y-105445239D01*
X153967101Y-105420818D01*
X153937561Y-105404973D01*
X153934583Y-105404099D01*
X153911411Y-105402106D01*
X153882960Y-105405261D01*
X153856884Y-105412385D01*
X153846087Y-105417725D01*
X153821291Y-105442019D01*
X153806585Y-105473555D01*
X153803057Y-105508193D01*
X153811790Y-105541791D01*
X153812948Y-105544113D01*
X153835923Y-105574455D01*
X153866121Y-105593862D01*
X153900602Y-105601386D01*
X153936426Y-105596081D01*
X153952581Y-105589054D01*
X153979316Y-105567580D01*
X153995929Y-105539406D01*
X154002717Y-105507588D01*
X154115589Y-105507588D01*
X154115733Y-105524545D01*
X154104882Y-105573173D01*
X154083670Y-105617792D01*
X154053004Y-105655180D01*
X154034616Y-105670013D01*
X154005100Y-105685721D01*
X153968762Y-105698348D01*
X153931220Y-105706456D01*
X153898090Y-105708606D01*
X153887892Y-105707573D01*
X153869701Y-105705362D01*
X153860779Y-105708838D01*
X153856179Y-105720759D01*
X153855009Y-105725904D01*
X153843861Y-105750356D01*
X153823440Y-105775144D01*
X153798226Y-105795959D01*
X153772695Y-105808493D01*
X153767968Y-105809622D01*
X153728728Y-105812555D01*
X153689467Y-105807922D01*
X153689467Y-105807922D01*
G37*
X153689467Y-105807922D02*
X153655825Y-105796600D01*
X153645509Y-105790604D01*
X153617081Y-105764730D01*
X153601550Y-105733780D01*
X153597428Y-105700255D01*
X153599179Y-105676620D01*
X153606530Y-105659359D01*
X153622103Y-105641503D01*
X153647536Y-105622357D01*
X153671457Y-105617559D01*
X153694293Y-105627071D01*
X153702987Y-105634642D01*
X153715348Y-105653975D01*
X153720915Y-105677148D01*
X153718931Y-105698441D01*
X153712812Y-105708999D01*
X153710261Y-105716429D01*
X153720418Y-105721936D01*
X153739810Y-105721321D01*
X153756338Y-105707605D01*
X153765148Y-105690910D01*
X153767433Y-105678478D01*
X153762773Y-105665527D01*
X153749438Y-105647702D01*
X153746714Y-105644491D01*
X153720907Y-105610129D01*
X153704675Y-105576531D01*
X153695898Y-105538219D01*
X153693070Y-105506002D01*
X153692190Y-105474907D01*
X153693991Y-105452408D01*
X153699473Y-105432684D01*
X153709581Y-105410031D01*
X153738271Y-105366581D01*
X153776425Y-105332010D01*
X153821239Y-105308818D01*
X153824316Y-105307764D01*
X153864314Y-105299857D01*
X153911142Y-105298942D01*
X153959111Y-105304661D01*
X154002535Y-105316658D01*
X154009208Y-105319362D01*
X154037927Y-105328819D01*
X154056935Y-105328004D01*
X154067000Y-105316686D01*
X154069143Y-105301379D01*
X154067160Y-105286395D01*
X154060017Y-105275061D01*
X154045918Y-105266740D01*
X154023070Y-105260796D01*
X153989678Y-105256592D01*
X153943948Y-105253492D01*
X153932561Y-105252919D01*
X153869294Y-105248591D01*
X153818083Y-105241931D01*
X153776567Y-105232289D01*
X153742385Y-105219014D01*
X153713176Y-105201456D01*
X153696160Y-105187810D01*
X153664739Y-105155940D01*
X153645277Y-105124438D01*
X153635952Y-105089106D01*
X153634911Y-105046449D01*
X153637434Y-105015646D01*
X153642368Y-104993618D01*
X153651383Y-104974647D01*
X153659462Y-104962329D01*
X153694858Y-104923525D01*
X153740219Y-104894365D01*
X153795903Y-104874709D01*
X153862266Y-104864417D01*
X153914606Y-104862703D01*
X153950279Y-104863936D01*
X153985056Y-104866705D01*
X154013319Y-104870508D01*
X154021971Y-104872311D01*
X154077359Y-104891645D01*
X154122077Y-104919152D01*
X154155403Y-104954054D01*
X154176614Y-104995570D01*
X154184991Y-105042922D01*
X154185098Y-105048485D01*
X154183767Y-105067485D01*
X154067613Y-105067485D01*
X154067190Y-105038967D01*
X154057816Y-105016059D01*
X154034381Y-104994342D01*
X153999962Y-104978355D01*
X153957148Y-104968684D01*
X153908528Y-104965915D01*
X153856999Y-104970584D01*
X153810283Y-104981830D01*
X153776087Y-104998076D01*
X153755033Y-105019011D01*
X153753137Y-105022361D01*
X153743475Y-105052299D01*
X153747725Y-105079576D01*
X153761342Y-105100995D01*
X153786503Y-105120863D01*
X153821341Y-105134767D01*
X153862644Y-105142795D01*
X153907204Y-105145037D01*
X153951808Y-105141581D01*
X153993246Y-105132516D01*
X154028308Y-105117930D01*
X154053783Y-105097913D01*
X154057777Y-105092797D01*
X154067613Y-105067485D01*
X154183767Y-105067485D01*
X154182492Y-105085666D01*
X154172742Y-105115259D01*
X154153489Y-105143032D01*
X154140889Y-105156686D01*
X154111879Y-105186400D01*
X154137032Y-105211553D01*
X154161501Y-105245236D01*
X154173388Y-105282698D01*
X154172964Y-105321111D01*
X154160498Y-105357646D01*
X154136263Y-105389475D01*
X154118663Y-105403520D01*
X154104134Y-105417194D01*
X154102723Y-105428143D01*
X154115316Y-105475128D01*
X154115589Y-105507588D01*
X154002717Y-105507588D01*
X153999977Y-105475180D01*
X153988006Y-105445239D01*
X153967101Y-105420818D01*
X153937561Y-105404973D01*
X153934583Y-105404099D01*
X153911411Y-105402106D01*
X153882960Y-105405261D01*
X153856884Y-105412385D01*
X153846087Y-105417725D01*
X153821291Y-105442019D01*
X153806585Y-105473555D01*
X153803057Y-105508193D01*
X153811790Y-105541791D01*
X153812948Y-105544113D01*
X153835923Y-105574455D01*
X153866121Y-105593862D01*
X153900602Y-105601386D01*
X153936426Y-105596081D01*
X153952581Y-105589054D01*
X153979316Y-105567580D01*
X153995929Y-105539406D01*
X154002717Y-105507588D01*
X154115589Y-105507588D01*
X154115733Y-105524545D01*
X154104882Y-105573173D01*
X154083670Y-105617792D01*
X154053004Y-105655180D01*
X154034616Y-105670013D01*
X154005100Y-105685721D01*
X153968762Y-105698348D01*
X153931220Y-105706456D01*
X153898090Y-105708606D01*
X153887892Y-105707573D01*
X153869701Y-105705362D01*
X153860779Y-105708838D01*
X153856179Y-105720759D01*
X153855009Y-105725904D01*
X153843861Y-105750356D01*
X153823440Y-105775144D01*
X153798226Y-105795959D01*
X153772695Y-105808493D01*
X153767968Y-105809622D01*
X153728728Y-105812555D01*
X153689467Y-105807922D01*
G36*
X154862441Y-105897580D02*
X154839883Y-105894913D01*
X154800016Y-105891520D01*
X154762401Y-105891009D01*
X154736800Y-105892959D01*
X154691068Y-105898049D01*
X154657470Y-105897597D01*
X154634482Y-105890972D01*
X154620581Y-105877545D01*
X154614243Y-105856686D01*
X154613428Y-105841968D01*
X154617415Y-105817348D01*
X154630318Y-105801464D01*
X154653557Y-105793403D01*
X154688549Y-105792253D01*
X154690484Y-105792353D01*
X154714573Y-105793076D01*
X154728537Y-105791032D01*
X154736693Y-105784884D01*
X154741746Y-105776486D01*
X154744164Y-105764565D01*
X154746259Y-105740135D01*
X154748025Y-105705199D01*
X154749457Y-105661760D01*
X154750549Y-105611819D01*
X154751295Y-105557380D01*
X154751691Y-105500445D01*
X154751731Y-105443015D01*
X154751408Y-105387095D01*
X154750718Y-105334685D01*
X154749655Y-105287788D01*
X154748213Y-105248408D01*
X154746388Y-105218546D01*
X154744173Y-105200204D01*
X154743347Y-105196997D01*
X154738499Y-105184884D01*
X154732083Y-105178049D01*
X154720338Y-105174982D01*
X154699504Y-105174173D01*
X154686415Y-105174143D01*
X154657336Y-105173162D01*
X154638912Y-105169672D01*
X154627383Y-105162854D01*
X154625439Y-105160872D01*
X154615393Y-105140239D01*
X154613967Y-105114531D01*
X154620888Y-105090146D01*
X154628943Y-105078799D01*
X154637056Y-105071685D01*
X154646168Y-105067539D01*
X154659610Y-105065993D01*
X154680710Y-105066679D01*
X154712798Y-105069226D01*
X154714215Y-105069349D01*
X154766673Y-105073369D01*
X154809650Y-105075205D01*
X154848013Y-105074869D01*
X154886629Y-105072372D01*
X154912308Y-105069801D01*
X154940707Y-105066957D01*
X154958749Y-105066556D01*
X154970481Y-105069280D01*
X154979953Y-105075808D01*
X154986693Y-105082291D01*
X155002106Y-105105756D01*
X155003311Y-105130014D01*
X154990292Y-105153391D01*
X154987501Y-105156330D01*
X154973580Y-105167292D01*
X154956767Y-105172655D01*
X154931479Y-105174140D01*
X154929699Y-105174143D01*
X154905452Y-105175073D01*
X154891225Y-105178842D01*
X154882589Y-105186916D01*
X154880384Y-105190472D01*
X154877673Y-105199033D01*
X154875432Y-105215114D01*
X154873613Y-105239859D01*
X154872170Y-105274413D01*
X154871057Y-105319920D01*
X154870228Y-105377523D01*
X154869636Y-105448367D01*
X154869582Y-105457172D01*
X154869321Y-105515433D01*
X154869240Y-105568481D01*
X154869331Y-105614725D01*
X154869584Y-105652574D01*
X154869988Y-105680438D01*
X154870533Y-105696726D01*
X154871098Y-105700286D01*
X154873689Y-105691968D01*
X154879861Y-105671187D01*
X154889181Y-105639431D01*
X154901216Y-105598184D01*
X154915533Y-105548933D01*
X154931698Y-105493163D01*
X154949279Y-105432362D01*
X154958876Y-105399114D01*
X154977247Y-105335878D01*
X154994719Y-105276590D01*
X155010819Y-105222793D01*
X155025075Y-105176027D01*
X155037015Y-105137835D01*
X155046165Y-105109757D01*
X155052054Y-105093335D01*
X155053619Y-105089990D01*
X155074101Y-105070933D01*
X155102410Y-105060386D01*
X155133849Y-105059517D01*
X155154337Y-105064934D01*
X155170697Y-105074759D01*
X155177882Y-105081497D01*
X155181687Y-105090547D01*
X155188958Y-105112067D01*
X155199238Y-105144553D01*
X155212069Y-105186500D01*
X155226996Y-105236406D01*
X155243560Y-105292765D01*
X155261305Y-105354074D01*
X155271278Y-105388923D01*
X155289374Y-105452092D01*
X155306413Y-105510973D01*
X155321955Y-105564089D01*
X155335560Y-105609964D01*
X155346789Y-105647121D01*
X155355201Y-105674084D01*
X155360357Y-105689376D01*
X155361653Y-105692286D01*
X155363002Y-105687144D01*
X155363915Y-105669458D01*
X155364428Y-105641189D01*
X155364575Y-105604301D01*
X155364390Y-105560755D01*
X155363907Y-105512514D01*
X155363161Y-105461540D01*
X155362186Y-105409795D01*
X155361016Y-105359242D01*
X155359686Y-105311842D01*
X155358230Y-105269559D01*
X155356682Y-105234354D01*
X155355077Y-105208189D01*
X155353448Y-105193028D01*
X155352884Y-105190697D01*
X155347486Y-105181209D01*
X155337673Y-105176591D01*
X155319269Y-105175421D01*
X155308565Y-105175599D01*
X155274315Y-105173782D01*
X155251507Y-105165452D01*
X155238110Y-105149487D01*
X155233413Y-105134109D01*
X155234114Y-105106259D01*
X155245797Y-105083481D01*
X155266410Y-105069415D01*
X155270539Y-105068181D01*
X155286270Y-105067098D01*
X155311390Y-105068383D01*
X155341018Y-105071748D01*
X155347315Y-105072686D01*
X155428692Y-105078177D01*
X155464997Y-105076118D01*
X155512300Y-105071970D01*
X155547314Y-105069956D01*
X155572124Y-105070179D01*
X155588812Y-105072744D01*
X155599462Y-105077753D01*
X155604665Y-105083072D01*
X155613755Y-105106066D01*
X155613351Y-105132394D01*
X155603872Y-105155425D01*
X155599770Y-105160258D01*
X155586455Y-105169811D01*
X155568564Y-105173789D01*
X155547156Y-105173872D01*
X155524081Y-105173157D01*
X155506627Y-105173025D01*
X155501324Y-105173243D01*
X155495304Y-105175732D01*
X155490337Y-105182592D01*
X155486326Y-105195036D01*
X155483177Y-105214277D01*
X155480796Y-105241529D01*
X155479087Y-105278005D01*
X155477956Y-105324918D01*
X155477307Y-105383481D01*
X155477046Y-105454908D01*
X155477028Y-105483888D01*
X155477119Y-105555471D01*
X155477428Y-105613983D01*
X155478009Y-105660865D01*
X155478915Y-105697558D01*
X155480202Y-105725506D01*
X155481922Y-105746149D01*
X155484130Y-105760929D01*
X155486881Y-105771288D01*
X155487894Y-105773929D01*
X155498760Y-105799935D01*
X155539095Y-105794895D01*
X155574062Y-105793708D01*
X155597692Y-105800779D01*
X155610976Y-105816706D01*
X155614914Y-105840580D01*
X155614467Y-105858708D01*
X155611926Y-105872379D01*
X155605492Y-105882235D01*
X155593365Y-105888922D01*
X155573746Y-105893082D01*
X155544834Y-105895360D01*
X155504830Y-105896400D01*
X155457752Y-105896810D01*
X155413943Y-105896752D01*
X155374587Y-105896081D01*
X155342204Y-105894890D01*
X155319314Y-105893271D01*
X155308466Y-105891332D01*
X155294909Y-105879899D01*
X155287900Y-105870001D01*
X155284315Y-105859967D01*
X155277373Y-105837460D01*
X155267513Y-105804016D01*
X155255174Y-105761170D01*
X155240798Y-105710458D01*
X155224825Y-105653415D01*
X155207693Y-105591578D01*
X155198172Y-105556938D01*
X155180830Y-105494138D01*
X155164563Y-105436143D01*
X155149783Y-105384347D01*
X155136898Y-105340148D01*
X155126320Y-105304941D01*
X155118458Y-105280122D01*
X155113722Y-105267087D01*
X155112555Y-105265499D01*
X155109812Y-105273703D01*
X155103605Y-105294391D01*
X155094364Y-105326065D01*
X155082519Y-105367228D01*
X155068500Y-105416381D01*
X155052737Y-105472026D01*
X155035660Y-105532665D01*
X155027422Y-105562039D01*
X155009799Y-105624710D01*
X154993203Y-105683268D01*
X154978077Y-105736181D01*
X154964864Y-105781919D01*
X154954008Y-105818951D01*
X154945951Y-105845747D01*
X154941138Y-105860777D01*
X154940150Y-105863291D01*
X154930299Y-105876593D01*
X154918569Y-105888663D01*
X154909947Y-105895317D01*
X154900091Y-105898833D01*
X154885442Y-105899493D01*
X154862441Y-105897580D01*
X154862441Y-105897580D01*
G37*
X154862441Y-105897580D02*
X154839883Y-105894913D01*
X154800016Y-105891520D01*
X154762401Y-105891009D01*
X154736800Y-105892959D01*
X154691068Y-105898049D01*
X154657470Y-105897597D01*
X154634482Y-105890972D01*
X154620581Y-105877545D01*
X154614243Y-105856686D01*
X154613428Y-105841968D01*
X154617415Y-105817348D01*
X154630318Y-105801464D01*
X154653557Y-105793403D01*
X154688549Y-105792253D01*
X154690484Y-105792353D01*
X154714573Y-105793076D01*
X154728537Y-105791032D01*
X154736693Y-105784884D01*
X154741746Y-105776486D01*
X154744164Y-105764565D01*
X154746259Y-105740135D01*
X154748025Y-105705199D01*
X154749457Y-105661760D01*
X154750549Y-105611819D01*
X154751295Y-105557380D01*
X154751691Y-105500445D01*
X154751731Y-105443015D01*
X154751408Y-105387095D01*
X154750718Y-105334685D01*
X154749655Y-105287788D01*
X154748213Y-105248408D01*
X154746388Y-105218546D01*
X154744173Y-105200204D01*
X154743347Y-105196997D01*
X154738499Y-105184884D01*
X154732083Y-105178049D01*
X154720338Y-105174982D01*
X154699504Y-105174173D01*
X154686415Y-105174143D01*
X154657336Y-105173162D01*
X154638912Y-105169672D01*
X154627383Y-105162854D01*
X154625439Y-105160872D01*
X154615393Y-105140239D01*
X154613967Y-105114531D01*
X154620888Y-105090146D01*
X154628943Y-105078799D01*
X154637056Y-105071685D01*
X154646168Y-105067539D01*
X154659610Y-105065993D01*
X154680710Y-105066679D01*
X154712798Y-105069226D01*
X154714215Y-105069349D01*
X154766673Y-105073369D01*
X154809650Y-105075205D01*
X154848013Y-105074869D01*
X154886629Y-105072372D01*
X154912308Y-105069801D01*
X154940707Y-105066957D01*
X154958749Y-105066556D01*
X154970481Y-105069280D01*
X154979953Y-105075808D01*
X154986693Y-105082291D01*
X155002106Y-105105756D01*
X155003311Y-105130014D01*
X154990292Y-105153391D01*
X154987501Y-105156330D01*
X154973580Y-105167292D01*
X154956767Y-105172655D01*
X154931479Y-105174140D01*
X154929699Y-105174143D01*
X154905452Y-105175073D01*
X154891225Y-105178842D01*
X154882589Y-105186916D01*
X154880384Y-105190472D01*
X154877673Y-105199033D01*
X154875432Y-105215114D01*
X154873613Y-105239859D01*
X154872170Y-105274413D01*
X154871057Y-105319920D01*
X154870228Y-105377523D01*
X154869636Y-105448367D01*
X154869582Y-105457172D01*
X154869321Y-105515433D01*
X154869240Y-105568481D01*
X154869331Y-105614725D01*
X154869584Y-105652574D01*
X154869988Y-105680438D01*
X154870533Y-105696726D01*
X154871098Y-105700286D01*
X154873689Y-105691968D01*
X154879861Y-105671187D01*
X154889181Y-105639431D01*
X154901216Y-105598184D01*
X154915533Y-105548933D01*
X154931698Y-105493163D01*
X154949279Y-105432362D01*
X154958876Y-105399114D01*
X154977247Y-105335878D01*
X154994719Y-105276590D01*
X155010819Y-105222793D01*
X155025075Y-105176027D01*
X155037015Y-105137835D01*
X155046165Y-105109757D01*
X155052054Y-105093335D01*
X155053619Y-105089990D01*
X155074101Y-105070933D01*
X155102410Y-105060386D01*
X155133849Y-105059517D01*
X155154337Y-105064934D01*
X155170697Y-105074759D01*
X155177882Y-105081497D01*
X155181687Y-105090547D01*
X155188958Y-105112067D01*
X155199238Y-105144553D01*
X155212069Y-105186500D01*
X155226996Y-105236406D01*
X155243560Y-105292765D01*
X155261305Y-105354074D01*
X155271278Y-105388923D01*
X155289374Y-105452092D01*
X155306413Y-105510973D01*
X155321955Y-105564089D01*
X155335560Y-105609964D01*
X155346789Y-105647121D01*
X155355201Y-105674084D01*
X155360357Y-105689376D01*
X155361653Y-105692286D01*
X155363002Y-105687144D01*
X155363915Y-105669458D01*
X155364428Y-105641189D01*
X155364575Y-105604301D01*
X155364390Y-105560755D01*
X155363907Y-105512514D01*
X155363161Y-105461540D01*
X155362186Y-105409795D01*
X155361016Y-105359242D01*
X155359686Y-105311842D01*
X155358230Y-105269559D01*
X155356682Y-105234354D01*
X155355077Y-105208189D01*
X155353448Y-105193028D01*
X155352884Y-105190697D01*
X155347486Y-105181209D01*
X155337673Y-105176591D01*
X155319269Y-105175421D01*
X155308565Y-105175599D01*
X155274315Y-105173782D01*
X155251507Y-105165452D01*
X155238110Y-105149487D01*
X155233413Y-105134109D01*
X155234114Y-105106259D01*
X155245797Y-105083481D01*
X155266410Y-105069415D01*
X155270539Y-105068181D01*
X155286270Y-105067098D01*
X155311390Y-105068383D01*
X155341018Y-105071748D01*
X155347315Y-105072686D01*
X155428692Y-105078177D01*
X155464997Y-105076118D01*
X155512300Y-105071970D01*
X155547314Y-105069956D01*
X155572124Y-105070179D01*
X155588812Y-105072744D01*
X155599462Y-105077753D01*
X155604665Y-105083072D01*
X155613755Y-105106066D01*
X155613351Y-105132394D01*
X155603872Y-105155425D01*
X155599770Y-105160258D01*
X155586455Y-105169811D01*
X155568564Y-105173789D01*
X155547156Y-105173872D01*
X155524081Y-105173157D01*
X155506627Y-105173025D01*
X155501324Y-105173243D01*
X155495304Y-105175732D01*
X155490337Y-105182592D01*
X155486326Y-105195036D01*
X155483177Y-105214277D01*
X155480796Y-105241529D01*
X155479087Y-105278005D01*
X155477956Y-105324918D01*
X155477307Y-105383481D01*
X155477046Y-105454908D01*
X155477028Y-105483888D01*
X155477119Y-105555471D01*
X155477428Y-105613983D01*
X155478009Y-105660865D01*
X155478915Y-105697558D01*
X155480202Y-105725506D01*
X155481922Y-105746149D01*
X155484130Y-105760929D01*
X155486881Y-105771288D01*
X155487894Y-105773929D01*
X155498760Y-105799935D01*
X155539095Y-105794895D01*
X155574062Y-105793708D01*
X155597692Y-105800779D01*
X155610976Y-105816706D01*
X155614914Y-105840580D01*
X155614467Y-105858708D01*
X155611926Y-105872379D01*
X155605492Y-105882235D01*
X155593365Y-105888922D01*
X155573746Y-105893082D01*
X155544834Y-105895360D01*
X155504830Y-105896400D01*
X155457752Y-105896810D01*
X155413943Y-105896752D01*
X155374587Y-105896081D01*
X155342204Y-105894890D01*
X155319314Y-105893271D01*
X155308466Y-105891332D01*
X155294909Y-105879899D01*
X155287900Y-105870001D01*
X155284315Y-105859967D01*
X155277373Y-105837460D01*
X155267513Y-105804016D01*
X155255174Y-105761170D01*
X155240798Y-105710458D01*
X155224825Y-105653415D01*
X155207693Y-105591578D01*
X155198172Y-105556938D01*
X155180830Y-105494138D01*
X155164563Y-105436143D01*
X155149783Y-105384347D01*
X155136898Y-105340148D01*
X155126320Y-105304941D01*
X155118458Y-105280122D01*
X155113722Y-105267087D01*
X155112555Y-105265499D01*
X155109812Y-105273703D01*
X155103605Y-105294391D01*
X155094364Y-105326065D01*
X155082519Y-105367228D01*
X155068500Y-105416381D01*
X155052737Y-105472026D01*
X155035660Y-105532665D01*
X155027422Y-105562039D01*
X155009799Y-105624710D01*
X154993203Y-105683268D01*
X154978077Y-105736181D01*
X154964864Y-105781919D01*
X154954008Y-105818951D01*
X154945951Y-105845747D01*
X154941138Y-105860777D01*
X154940150Y-105863291D01*
X154930299Y-105876593D01*
X154918569Y-105888663D01*
X154909947Y-105895317D01*
X154900091Y-105898833D01*
X154885442Y-105899493D01*
X154862441Y-105897580D01*
G36*
X152698305Y-105869639D02*
X152683304Y-105864625D01*
X152673390Y-105853623D01*
X152667383Y-105834468D01*
X152664099Y-105804993D01*
X152662447Y-105766199D01*
X152660008Y-105682143D01*
X152589448Y-105682143D01*
X152550623Y-105681336D01*
X152523806Y-105678200D01*
X152506546Y-105671661D01*
X152496391Y-105660647D01*
X152490890Y-105644085D01*
X152489893Y-105638574D01*
X152489873Y-105615005D01*
X152500405Y-105594617D01*
X152501471Y-105593241D01*
X152509311Y-105584129D01*
X152517686Y-105578322D01*
X152529864Y-105575075D01*
X152549111Y-105573647D01*
X152578695Y-105573293D01*
X152589212Y-105573286D01*
X152661257Y-105573286D01*
X152661257Y-105398881D01*
X152661002Y-105336163D01*
X152660055Y-105286343D01*
X152658141Y-105247811D01*
X152654986Y-105218957D01*
X152650313Y-105198172D01*
X152643850Y-105183845D01*
X152635321Y-105174367D01*
X152624451Y-105168127D01*
X152621694Y-105167019D01*
X152595959Y-105164403D01*
X152571334Y-105174274D01*
X152559703Y-105184974D01*
X152553827Y-105199700D01*
X152548962Y-105228030D01*
X152545252Y-105269078D01*
X152544794Y-105276448D01*
X152542000Y-105314616D01*
X152538580Y-105340983D01*
X152534016Y-105358265D01*
X152527793Y-105369174D01*
X152526996Y-105370090D01*
X152507362Y-105382040D01*
X152482883Y-105384122D01*
X152459290Y-105376409D01*
X152449819Y-105369105D01*
X152442944Y-105361157D01*
X152438695Y-105351865D01*
X152436676Y-105338105D01*
X152436495Y-105316749D01*
X152437756Y-105284671D01*
X152438153Y-105276576D01*
X152444840Y-105211142D01*
X152458094Y-105158251D01*
X152478434Y-105117253D01*
X152506379Y-105087497D01*
X152542445Y-105068335D01*
X152587152Y-105059114D01*
X152612315Y-105058029D01*
X152650750Y-105060931D01*
X152682541Y-105070592D01*
X152690503Y-105074357D01*
X152725540Y-105100050D01*
X152751930Y-105137000D01*
X152763913Y-105166032D01*
X152766755Y-105182128D01*
X152769376Y-105211300D01*
X152771698Y-105252113D01*
X152773646Y-105303130D01*
X152775141Y-105362915D01*
X152775498Y-105382786D01*
X152778617Y-105573286D01*
X152803871Y-105573286D01*
X152833440Y-105577182D01*
X152852796Y-105589779D01*
X152862861Y-105608113D01*
X152865908Y-105632769D01*
X152860803Y-105650723D01*
X152849491Y-105669311D01*
X152832831Y-105679041D01*
X152806777Y-105682116D01*
X152803110Y-105682143D01*
X152779236Y-105682143D01*
X152775954Y-105761802D01*
X152773305Y-105804341D01*
X152768736Y-105834418D01*
X152761200Y-105854060D01*
X152749647Y-105865292D01*
X152733030Y-105870140D01*
X152719576Y-105870829D01*
X152698305Y-105869639D01*
X152698305Y-105869639D01*
G37*
X152698305Y-105869639D02*
X152683304Y-105864625D01*
X152673390Y-105853623D01*
X152667383Y-105834468D01*
X152664099Y-105804993D01*
X152662447Y-105766199D01*
X152660008Y-105682143D01*
X152589448Y-105682143D01*
X152550623Y-105681336D01*
X152523806Y-105678200D01*
X152506546Y-105671661D01*
X152496391Y-105660647D01*
X152490890Y-105644085D01*
X152489893Y-105638574D01*
X152489873Y-105615005D01*
X152500405Y-105594617D01*
X152501471Y-105593241D01*
X152509311Y-105584129D01*
X152517686Y-105578322D01*
X152529864Y-105575075D01*
X152549111Y-105573647D01*
X152578695Y-105573293D01*
X152589212Y-105573286D01*
X152661257Y-105573286D01*
X152661257Y-105398881D01*
X152661002Y-105336163D01*
X152660055Y-105286343D01*
X152658141Y-105247811D01*
X152654986Y-105218957D01*
X152650313Y-105198172D01*
X152643850Y-105183845D01*
X152635321Y-105174367D01*
X152624451Y-105168127D01*
X152621694Y-105167019D01*
X152595959Y-105164403D01*
X152571334Y-105174274D01*
X152559703Y-105184974D01*
X152553827Y-105199700D01*
X152548962Y-105228030D01*
X152545252Y-105269078D01*
X152544794Y-105276448D01*
X152542000Y-105314616D01*
X152538580Y-105340983D01*
X152534016Y-105358265D01*
X152527793Y-105369174D01*
X152526996Y-105370090D01*
X152507362Y-105382040D01*
X152482883Y-105384122D01*
X152459290Y-105376409D01*
X152449819Y-105369105D01*
X152442944Y-105361157D01*
X152438695Y-105351865D01*
X152436676Y-105338105D01*
X152436495Y-105316749D01*
X152437756Y-105284671D01*
X152438153Y-105276576D01*
X152444840Y-105211142D01*
X152458094Y-105158251D01*
X152478434Y-105117253D01*
X152506379Y-105087497D01*
X152542445Y-105068335D01*
X152587152Y-105059114D01*
X152612315Y-105058029D01*
X152650750Y-105060931D01*
X152682541Y-105070592D01*
X152690503Y-105074357D01*
X152725540Y-105100050D01*
X152751930Y-105137000D01*
X152763913Y-105166032D01*
X152766755Y-105182128D01*
X152769376Y-105211300D01*
X152771698Y-105252113D01*
X152773646Y-105303130D01*
X152775141Y-105362915D01*
X152775498Y-105382786D01*
X152778617Y-105573286D01*
X152803871Y-105573286D01*
X152833440Y-105577182D01*
X152852796Y-105589779D01*
X152862861Y-105608113D01*
X152865908Y-105632769D01*
X152860803Y-105650723D01*
X152849491Y-105669311D01*
X152832831Y-105679041D01*
X152806777Y-105682116D01*
X152803110Y-105682143D01*
X152779236Y-105682143D01*
X152775954Y-105761802D01*
X152773305Y-105804341D01*
X152768736Y-105834418D01*
X152761200Y-105854060D01*
X152749647Y-105865292D01*
X152733030Y-105870140D01*
X152719576Y-105870829D01*
X152698305Y-105869639D01*
G36*
X154424019Y-105685502D02*
X154391561Y-105683294D01*
X154364103Y-105679983D01*
X154345291Y-105675712D01*
X154339640Y-105672722D01*
X154336660Y-105667790D01*
X154334300Y-105658644D01*
X154332503Y-105643834D01*
X154331210Y-105621908D01*
X154330367Y-105591418D01*
X154329915Y-105550913D01*
X154329797Y-105498943D01*
X154329958Y-105434057D01*
X154329988Y-105426701D01*
X154330088Y-105369245D01*
X154329919Y-105316136D01*
X154329507Y-105269197D01*
X154328877Y-105230249D01*
X154328057Y-105201114D01*
X154327071Y-105183614D01*
X154326434Y-105179511D01*
X154320639Y-105172467D01*
X154308140Y-105170241D01*
X154287144Y-105171833D01*
X154263990Y-105173301D01*
X154249133Y-105169912D01*
X154236961Y-105160533D01*
X154224129Y-105138355D01*
X154223144Y-105112496D01*
X154234104Y-105087792D01*
X154235470Y-105086047D01*
X154243658Y-105077441D01*
X154253297Y-105072583D01*
X154268179Y-105070701D01*
X154292095Y-105071024D01*
X154306227Y-105071655D01*
X154347849Y-105073569D01*
X154378803Y-105074637D01*
X154402915Y-105074820D01*
X154424008Y-105074083D01*
X154445908Y-105072388D01*
X154468694Y-105070096D01*
X154497681Y-105067509D01*
X154516429Y-105067547D01*
X154529052Y-105070683D01*
X154539664Y-105077388D01*
X154540902Y-105078378D01*
X154554182Y-105094978D01*
X154558267Y-105118391D01*
X154558274Y-105119714D01*
X154553075Y-105146869D01*
X154537287Y-105164411D01*
X154510625Y-105172550D01*
X154486776Y-105172865D01*
X154450143Y-105170514D01*
X154450143Y-105584172D01*
X154484445Y-105582012D01*
X154518448Y-105583587D01*
X154541626Y-105593714D01*
X154555281Y-105612967D01*
X154555436Y-105613370D01*
X154557973Y-105636749D01*
X154550793Y-105660111D01*
X154536092Y-105677437D01*
X154530960Y-105680372D01*
X154514947Y-105684040D01*
X154489357Y-105686020D01*
X154457833Y-105686459D01*
X154424019Y-105685502D01*
X154424019Y-105685502D01*
G37*
X154424019Y-105685502D02*
X154391561Y-105683294D01*
X154364103Y-105679983D01*
X154345291Y-105675712D01*
X154339640Y-105672722D01*
X154336660Y-105667790D01*
X154334300Y-105658644D01*
X154332503Y-105643834D01*
X154331210Y-105621908D01*
X154330367Y-105591418D01*
X154329915Y-105550913D01*
X154329797Y-105498943D01*
X154329958Y-105434057D01*
X154329988Y-105426701D01*
X154330088Y-105369245D01*
X154329919Y-105316136D01*
X154329507Y-105269197D01*
X154328877Y-105230249D01*
X154328057Y-105201114D01*
X154327071Y-105183614D01*
X154326434Y-105179511D01*
X154320639Y-105172467D01*
X154308140Y-105170241D01*
X154287144Y-105171833D01*
X154263990Y-105173301D01*
X154249133Y-105169912D01*
X154236961Y-105160533D01*
X154224129Y-105138355D01*
X154223144Y-105112496D01*
X154234104Y-105087792D01*
X154235470Y-105086047D01*
X154243658Y-105077441D01*
X154253297Y-105072583D01*
X154268179Y-105070701D01*
X154292095Y-105071024D01*
X154306227Y-105071655D01*
X154347849Y-105073569D01*
X154378803Y-105074637D01*
X154402915Y-105074820D01*
X154424008Y-105074083D01*
X154445908Y-105072388D01*
X154468694Y-105070096D01*
X154497681Y-105067509D01*
X154516429Y-105067547D01*
X154529052Y-105070683D01*
X154539664Y-105077388D01*
X154540902Y-105078378D01*
X154554182Y-105094978D01*
X154558267Y-105118391D01*
X154558274Y-105119714D01*
X154553075Y-105146869D01*
X154537287Y-105164411D01*
X154510625Y-105172550D01*
X154486776Y-105172865D01*
X154450143Y-105170514D01*
X154450143Y-105584172D01*
X154484445Y-105582012D01*
X154518448Y-105583587D01*
X154541626Y-105593714D01*
X154555281Y-105612967D01*
X154555436Y-105613370D01*
X154557973Y-105636749D01*
X154550793Y-105660111D01*
X154536092Y-105677437D01*
X154530960Y-105680372D01*
X154514947Y-105684040D01*
X154489357Y-105686020D01*
X154457833Y-105686459D01*
X154424019Y-105685502D01*
G36*
X153467674Y-105897435D02*
X153458950Y-105897305D01*
X153419701Y-105896282D01*
X153392749Y-105894484D01*
X153375886Y-105891626D01*
X153366905Y-105887424D01*
X153364952Y-105885191D01*
X153362539Y-105874401D01*
X153360489Y-105851976D01*
X153358969Y-105820796D01*
X153358149Y-105783740D01*
X153358054Y-105767414D01*
X153357804Y-105729869D01*
X153357189Y-105698078D01*
X153356292Y-105674573D01*
X153355191Y-105661881D01*
X153354636Y-105660372D01*
X153347157Y-105664077D01*
X153332252Y-105673398D01*
X153325241Y-105678076D01*
X153284634Y-105697496D01*
X153237418Y-105706895D01*
X153187459Y-105706297D01*
X153138623Y-105695729D01*
X153096958Y-105676580D01*
X153066371Y-105651513D01*
X153038400Y-105617553D01*
X153017188Y-105580242D01*
X153009836Y-105560058D01*
X153007603Y-105544994D01*
X153005555Y-105517974D01*
X153003806Y-105481557D01*
X153002470Y-105438304D01*
X153001661Y-105390771D01*
X153001524Y-105373714D01*
X153001046Y-105325680D01*
X153000215Y-105281395D01*
X152999109Y-105243326D01*
X152997804Y-105213938D01*
X152996379Y-105195695D01*
X152995842Y-105192286D01*
X152991716Y-105178722D01*
X152984261Y-105172891D01*
X152968814Y-105172270D01*
X152959965Y-105172869D01*
X152927387Y-105170949D01*
X152905647Y-105159494D01*
X152894855Y-105138586D01*
X152893597Y-105124990D01*
X152894521Y-105106762D01*
X152898270Y-105092884D01*
X152906565Y-105082791D01*
X152921123Y-105075919D01*
X152943664Y-105071704D01*
X152975907Y-105069581D01*
X153019571Y-105068986D01*
X153063500Y-105069228D01*
X153193600Y-105070443D01*
X153210457Y-105090041D01*
X153224415Y-105111896D01*
X153225127Y-105132110D01*
X153212660Y-105154514D01*
X153211598Y-105155879D01*
X153201182Y-105167445D01*
X153190411Y-105172666D01*
X153174043Y-105173042D01*
X153157503Y-105171348D01*
X153119124Y-105166838D01*
X153114526Y-105191344D01*
X153113265Y-105205833D01*
X153112375Y-105232267D01*
X153111887Y-105268077D01*
X153111831Y-105310699D01*
X153112236Y-105357566D01*
X153112434Y-105370983D01*
X153113566Y-105427663D01*
X153115198Y-105471850D01*
X153117768Y-105505564D01*
X153121713Y-105530827D01*
X153127470Y-105549658D01*
X153135475Y-105564078D01*
X153146168Y-105576109D01*
X153159205Y-105587159D01*
X153175382Y-105596517D01*
X153196462Y-105601175D01*
X153223591Y-105602314D01*
X153265640Y-105597663D01*
X153298520Y-105583125D01*
X153323103Y-105557827D01*
X153340258Y-105520892D01*
X153350367Y-105474943D01*
X153352884Y-105450257D01*
X153354900Y-105416400D01*
X153356385Y-105376444D01*
X153357310Y-105333459D01*
X153357643Y-105290517D01*
X153357356Y-105250688D01*
X153356417Y-105217044D01*
X153354798Y-105192654D01*
X153353226Y-105182670D01*
X153349159Y-105172588D01*
X153341337Y-105168518D01*
X153325452Y-105169090D01*
X153314817Y-105170457D01*
X153282686Y-105170359D01*
X153260607Y-105160007D01*
X153248861Y-105139613D01*
X153246927Y-105119778D01*
X153247910Y-105103703D01*
X153251018Y-105091523D01*
X153258039Y-105082685D01*
X153270760Y-105076638D01*
X153290970Y-105072828D01*
X153320454Y-105070704D01*
X153361002Y-105069714D01*
X153410250Y-105069326D01*
X153458701Y-105069144D01*
X153494777Y-105069305D01*
X153520619Y-105070021D01*
X153538365Y-105071504D01*
X153550154Y-105073964D01*
X153558128Y-105077614D01*
X153564423Y-105082663D01*
X153566585Y-105084759D01*
X153579938Y-105107169D01*
X153581928Y-105133220D01*
X153572613Y-105156427D01*
X153563033Y-105164910D01*
X153547527Y-105169252D01*
X153521987Y-105170556D01*
X153519999Y-105170561D01*
X153477685Y-105170608D01*
X153473191Y-105224990D01*
X153471815Y-105249647D01*
X153470685Y-105285732D01*
X153469804Y-105330868D01*
X153469172Y-105382679D01*
X153468789Y-105438788D01*
X153468657Y-105496817D01*
X153468776Y-105554391D01*
X153469146Y-105609132D01*
X153469769Y-105658664D01*
X153470645Y-105700609D01*
X153471775Y-105732591D01*
X153473030Y-105751086D01*
X153477685Y-105794629D01*
X153506714Y-105795306D01*
X153528607Y-105796025D01*
X153545674Y-105796935D01*
X153547924Y-105797120D01*
X153566825Y-105805057D01*
X153578787Y-105821924D01*
X153583004Y-105843498D01*
X153578672Y-105865556D01*
X153564985Y-105883874D01*
X153564537Y-105884231D01*
X153555125Y-105890428D01*
X153543707Y-105894479D01*
X153527308Y-105896752D01*
X153502954Y-105897615D01*
X153467674Y-105897435D01*
X153467674Y-105897435D01*
G37*
X153467674Y-105897435D02*
X153458950Y-105897305D01*
X153419701Y-105896282D01*
X153392749Y-105894484D01*
X153375886Y-105891626D01*
X153366905Y-105887424D01*
X153364952Y-105885191D01*
X153362539Y-105874401D01*
X153360489Y-105851976D01*
X153358969Y-105820796D01*
X153358149Y-105783740D01*
X153358054Y-105767414D01*
X153357804Y-105729869D01*
X153357189Y-105698078D01*
X153356292Y-105674573D01*
X153355191Y-105661881D01*
X153354636Y-105660372D01*
X153347157Y-105664077D01*
X153332252Y-105673398D01*
X153325241Y-105678076D01*
X153284634Y-105697496D01*
X153237418Y-105706895D01*
X153187459Y-105706297D01*
X153138623Y-105695729D01*
X153096958Y-105676580D01*
X153066371Y-105651513D01*
X153038400Y-105617553D01*
X153017188Y-105580242D01*
X153009836Y-105560058D01*
X153007603Y-105544994D01*
X153005555Y-105517974D01*
X153003806Y-105481557D01*
X153002470Y-105438304D01*
X153001661Y-105390771D01*
X153001524Y-105373714D01*
X153001046Y-105325680D01*
X153000215Y-105281395D01*
X152999109Y-105243326D01*
X152997804Y-105213938D01*
X152996379Y-105195695D01*
X152995842Y-105192286D01*
X152991716Y-105178722D01*
X152984261Y-105172891D01*
X152968814Y-105172270D01*
X152959965Y-105172869D01*
X152927387Y-105170949D01*
X152905647Y-105159494D01*
X152894855Y-105138586D01*
X152893597Y-105124990D01*
X152894521Y-105106762D01*
X152898270Y-105092884D01*
X152906565Y-105082791D01*
X152921123Y-105075919D01*
X152943664Y-105071704D01*
X152975907Y-105069581D01*
X153019571Y-105068986D01*
X153063500Y-105069228D01*
X153193600Y-105070443D01*
X153210457Y-105090041D01*
X153224415Y-105111896D01*
X153225127Y-105132110D01*
X153212660Y-105154514D01*
X153211598Y-105155879D01*
X153201182Y-105167445D01*
X153190411Y-105172666D01*
X153174043Y-105173042D01*
X153157503Y-105171348D01*
X153119124Y-105166838D01*
X153114526Y-105191344D01*
X153113265Y-105205833D01*
X153112375Y-105232267D01*
X153111887Y-105268077D01*
X153111831Y-105310699D01*
X153112236Y-105357566D01*
X153112434Y-105370983D01*
X153113566Y-105427663D01*
X153115198Y-105471850D01*
X153117768Y-105505564D01*
X153121713Y-105530827D01*
X153127470Y-105549658D01*
X153135475Y-105564078D01*
X153146168Y-105576109D01*
X153159205Y-105587159D01*
X153175382Y-105596517D01*
X153196462Y-105601175D01*
X153223591Y-105602314D01*
X153265640Y-105597663D01*
X153298520Y-105583125D01*
X153323103Y-105557827D01*
X153340258Y-105520892D01*
X153350367Y-105474943D01*
X153352884Y-105450257D01*
X153354900Y-105416400D01*
X153356385Y-105376444D01*
X153357310Y-105333459D01*
X153357643Y-105290517D01*
X153357356Y-105250688D01*
X153356417Y-105217044D01*
X153354798Y-105192654D01*
X153353226Y-105182670D01*
X153349159Y-105172588D01*
X153341337Y-105168518D01*
X153325452Y-105169090D01*
X153314817Y-105170457D01*
X153282686Y-105170359D01*
X153260607Y-105160007D01*
X153248861Y-105139613D01*
X153246927Y-105119778D01*
X153247910Y-105103703D01*
X153251018Y-105091523D01*
X153258039Y-105082685D01*
X153270760Y-105076638D01*
X153290970Y-105072828D01*
X153320454Y-105070704D01*
X153361002Y-105069714D01*
X153410250Y-105069326D01*
X153458701Y-105069144D01*
X153494777Y-105069305D01*
X153520619Y-105070021D01*
X153538365Y-105071504D01*
X153550154Y-105073964D01*
X153558128Y-105077614D01*
X153564423Y-105082663D01*
X153566585Y-105084759D01*
X153579938Y-105107169D01*
X153581928Y-105133220D01*
X153572613Y-105156427D01*
X153563033Y-105164910D01*
X153547527Y-105169252D01*
X153521987Y-105170556D01*
X153519999Y-105170561D01*
X153477685Y-105170608D01*
X153473191Y-105224990D01*
X153471815Y-105249647D01*
X153470685Y-105285732D01*
X153469804Y-105330868D01*
X153469172Y-105382679D01*
X153468789Y-105438788D01*
X153468657Y-105496817D01*
X153468776Y-105554391D01*
X153469146Y-105609132D01*
X153469769Y-105658664D01*
X153470645Y-105700609D01*
X153471775Y-105732591D01*
X153473030Y-105751086D01*
X153477685Y-105794629D01*
X153506714Y-105795306D01*
X153528607Y-105796025D01*
X153545674Y-105796935D01*
X153547924Y-105797120D01*
X153566825Y-105805057D01*
X153578787Y-105821924D01*
X153583004Y-105843498D01*
X153578672Y-105865556D01*
X153564985Y-105883874D01*
X153564537Y-105884231D01*
X153555125Y-105890428D01*
X153543707Y-105894479D01*
X153527308Y-105896752D01*
X153502954Y-105897615D01*
X153467674Y-105897435D01*
G36*
X154375589Y-105873058D02*
X154352960Y-105858321D01*
X154336474Y-105836237D01*
X154328731Y-105808440D01*
X154331432Y-105779715D01*
X154344855Y-105752848D01*
X154366799Y-105732963D01*
X154393478Y-105722170D01*
X154421108Y-105722576D01*
X154429183Y-105725267D01*
X154453768Y-105742773D01*
X154469564Y-105768405D01*
X154475816Y-105798202D01*
X154471765Y-105828198D01*
X154456655Y-105854432D01*
X154454329Y-105856873D01*
X154428874Y-105873967D01*
X154401760Y-105878818D01*
X154375589Y-105873058D01*
X154375589Y-105873058D01*
G37*
X154375589Y-105873058D02*
X154352960Y-105858321D01*
X154336474Y-105836237D01*
X154328731Y-105808440D01*
X154331432Y-105779715D01*
X154344855Y-105752848D01*
X154366799Y-105732963D01*
X154393478Y-105722170D01*
X154421108Y-105722576D01*
X154429183Y-105725267D01*
X154453768Y-105742773D01*
X154469564Y-105768405D01*
X154475816Y-105798202D01*
X154471765Y-105828198D01*
X154456655Y-105854432D01*
X154454329Y-105856873D01*
X154428874Y-105873967D01*
X154401760Y-105878818D01*
X154375589Y-105873058D01*
D13*
X163806143Y-114085666D02*
X163853762Y-114133285D01*
X163901381Y-114276142D01*
X163901381Y-114371380D01*
X163853762Y-114514238D01*
X163758524Y-114609476D01*
X163663286Y-114657095D01*
X163472810Y-114704714D01*
X163329952Y-114704714D01*
X163139476Y-114657095D01*
X163044238Y-114609476D01*
X162949000Y-114514238D01*
X162901381Y-114371380D01*
X162901381Y-114276142D01*
X162949000Y-114133285D01*
X162996619Y-114085666D01*
X163901381Y-113133285D02*
X163901381Y-113704714D01*
X163901381Y-113419000D02*
X162901381Y-113419000D01*
X163044238Y-113514238D01*
X163139476Y-113609476D01*
X163187095Y-113704714D01*
X167346334Y-108307143D02*
X167298715Y-108354762D01*
X167155858Y-108402381D01*
X167060620Y-108402381D01*
X166917762Y-108354762D01*
X166822524Y-108259524D01*
X166774905Y-108164286D01*
X166727286Y-107973810D01*
X166727286Y-107830952D01*
X166774905Y-107640476D01*
X166822524Y-107545238D01*
X166917762Y-107450000D01*
X167060620Y-107402381D01*
X167155858Y-107402381D01*
X167298715Y-107450000D01*
X167346334Y-107497619D01*
X167727286Y-107497619D02*
X167774905Y-107450000D01*
X167870143Y-107402381D01*
X168108239Y-107402381D01*
X168203477Y-107450000D01*
X168251096Y-107497619D01*
X168298715Y-107592857D01*
X168298715Y-107688095D01*
X168251096Y-107830952D01*
X167679667Y-108402381D01*
X168298715Y-108402381D01*
X167219334Y-104624143D02*
X167171715Y-104671762D01*
X167028858Y-104719381D01*
X166933620Y-104719381D01*
X166790762Y-104671762D01*
X166695524Y-104576524D01*
X166647905Y-104481286D01*
X166600286Y-104290810D01*
X166600286Y-104147952D01*
X166647905Y-103957476D01*
X166695524Y-103862238D01*
X166790762Y-103767000D01*
X166933620Y-103719381D01*
X167028858Y-103719381D01*
X167171715Y-103767000D01*
X167219334Y-103814619D01*
X167552667Y-103719381D02*
X168171715Y-103719381D01*
X167838381Y-104100333D01*
X167981239Y-104100333D01*
X168076477Y-104147952D01*
X168124096Y-104195571D01*
X168171715Y-104290810D01*
X168171715Y-104528905D01*
X168124096Y-104624143D01*
X168076477Y-104671762D01*
X167981239Y-104719381D01*
X167695524Y-104719381D01*
X167600286Y-104671762D01*
X167552667Y-104624143D01*
X152153688Y-115686389D02*
X152153688Y-115753732D01*
X152086344Y-115888419D01*
X152019001Y-115955763D01*
X151884313Y-116023107D01*
X151749626Y-116023107D01*
X151648611Y-115989435D01*
X151480253Y-115888420D01*
X151379237Y-115787404D01*
X151278222Y-115619045D01*
X151244550Y-115518030D01*
X151244550Y-115383343D01*
X151311894Y-115248656D01*
X151379237Y-115181312D01*
X151513924Y-115113969D01*
X151581268Y-115113969D01*
X152153688Y-114406862D02*
X151816970Y-114743580D01*
X152120015Y-115113969D01*
X152120015Y-115046626D01*
X152153687Y-114945610D01*
X152322046Y-114777251D01*
X152423061Y-114743579D01*
X152490405Y-114743579D01*
X152591421Y-114777252D01*
X152759779Y-114945610D01*
X152793451Y-115046626D01*
X152793451Y-115113969D01*
X152759779Y-115214984D01*
X152591420Y-115383343D01*
X152490405Y-115417015D01*
X152423061Y-115417015D01*
X167092334Y-114911143D02*
X167044715Y-114958762D01*
X166901858Y-115006381D01*
X166806620Y-115006381D01*
X166663762Y-114958762D01*
X166568524Y-114863524D01*
X166520905Y-114768286D01*
X166473286Y-114577810D01*
X166473286Y-114434952D01*
X166520905Y-114244476D01*
X166568524Y-114149238D01*
X166663762Y-114054000D01*
X166806620Y-114006381D01*
X166901858Y-114006381D01*
X167044715Y-114054000D01*
X167092334Y-114101619D01*
X167949477Y-114006381D02*
X167759000Y-114006381D01*
X167663762Y-114054000D01*
X167616143Y-114101619D01*
X167520905Y-114244476D01*
X167473286Y-114434952D01*
X167473286Y-114815905D01*
X167520905Y-114911143D01*
X167568524Y-114958762D01*
X167663762Y-115006381D01*
X167854239Y-115006381D01*
X167949477Y-114958762D01*
X167997096Y-114911143D01*
X168044715Y-114815905D01*
X168044715Y-114577810D01*
X167997096Y-114482571D01*
X167949477Y-114434952D01*
X167854239Y-114387333D01*
X167663762Y-114387333D01*
X167568524Y-114434952D01*
X167520905Y-114482571D01*
X167473286Y-114577810D01*
X135552381Y-113547115D02*
X134552381Y-113547115D01*
X134552381Y-113309020D01*
X134600000Y-113166162D01*
X134695238Y-113070924D01*
X134790476Y-113023305D01*
X134980952Y-112975686D01*
X135123810Y-112975686D01*
X135314286Y-113023305D01*
X135409524Y-113070924D01*
X135504762Y-113166162D01*
X135552381Y-113309020D01*
X135552381Y-113547115D01*
X134647619Y-112594734D02*
X134600000Y-112547115D01*
X134552381Y-112451877D01*
X134552381Y-112213781D01*
X134600000Y-112118543D01*
X134647619Y-112070924D01*
X134742857Y-112023305D01*
X134838095Y-112023305D01*
X134980952Y-112070924D01*
X135552381Y-112642353D01*
X135552381Y-112023305D01*
X135056571Y-108283333D02*
X135056571Y-108616667D01*
X135580381Y-108616667D02*
X134580381Y-108616667D01*
X134580381Y-108140476D01*
X135580381Y-107235714D02*
X135580381Y-107807143D01*
X135580381Y-107521429D02*
X134580381Y-107521429D01*
X134723238Y-107616667D01*
X134818476Y-107711905D01*
X134866095Y-107807143D01*
X138628381Y-115101666D02*
X138152190Y-115435000D01*
X138628381Y-115673095D02*
X137628381Y-115673095D01*
X137628381Y-115292142D01*
X137676000Y-115196904D01*
X137723619Y-115149285D01*
X137818857Y-115101666D01*
X137961714Y-115101666D01*
X138056952Y-115149285D01*
X138104571Y-115196904D01*
X138152190Y-115292142D01*
X138152190Y-115673095D01*
X138628381Y-114149285D02*
X138628381Y-114720714D01*
X138628381Y-114435000D02*
X137628381Y-114435000D01*
X137771238Y-114530238D01*
X137866476Y-114625476D01*
X137914095Y-114720714D01*
X173315334Y-115514381D02*
X172982000Y-115038190D01*
X172743905Y-115514381D02*
X172743905Y-114514381D01*
X173124858Y-114514381D01*
X173220096Y-114562000D01*
X173267715Y-114609619D01*
X173315334Y-114704857D01*
X173315334Y-114847714D01*
X173267715Y-114942952D01*
X173220096Y-114990571D01*
X173124858Y-115038190D01*
X172743905Y-115038190D01*
X173696286Y-114609619D02*
X173743905Y-114562000D01*
X173839143Y-114514381D01*
X174077239Y-114514381D01*
X174172477Y-114562000D01*
X174220096Y-114609619D01*
X174267715Y-114704857D01*
X174267715Y-114800095D01*
X174220096Y-114942952D01*
X173648667Y-115514381D01*
X174267715Y-115514381D01*
X164298334Y-104846381D02*
X163965000Y-104370190D01*
X163726905Y-104846381D02*
X163726905Y-103846381D01*
X164107858Y-103846381D01*
X164203096Y-103894000D01*
X164250715Y-103941619D01*
X164298334Y-104036857D01*
X164298334Y-104179714D01*
X164250715Y-104274952D01*
X164203096Y-104322571D01*
X164107858Y-104370190D01*
X163726905Y-104370190D01*
X164631667Y-103846381D02*
X165250715Y-103846381D01*
X164917381Y-104227333D01*
X165060239Y-104227333D01*
X165155477Y-104274952D01*
X165203096Y-104322571D01*
X165250715Y-104417810D01*
X165250715Y-104655905D01*
X165203096Y-104751143D01*
X165155477Y-104798762D01*
X165060239Y-104846381D01*
X164774524Y-104846381D01*
X164679286Y-104798762D01*
X164631667Y-104751143D01*
X136141582Y-104443487D02*
X136848689Y-104584908D01*
X136424425Y-104160644D02*
X136565846Y-104867751D01*
X137232547Y-104201049D02*
X136990111Y-104443486D01*
X137111329Y-104322268D02*
X136687065Y-103898004D01*
X136707267Y-103999019D01*
X136707268Y-104079831D01*
X136687065Y-104140440D01*
X173585143Y-104306666D02*
X173632762Y-104354285D01*
X173680381Y-104497142D01*
X173680381Y-104592380D01*
X173632762Y-104735238D01*
X173537524Y-104830476D01*
X173442286Y-104878095D01*
X173251810Y-104925714D01*
X173108952Y-104925714D01*
X172918476Y-104878095D01*
X172823238Y-104830476D01*
X172728000Y-104735238D01*
X172680381Y-104592380D01*
X172680381Y-104497142D01*
X172728000Y-104354285D01*
X172775619Y-104306666D01*
X172680381Y-103973333D02*
X172680381Y-103306666D01*
X173680381Y-103735238D01*
X172110495Y-110450381D02*
X172110495Y-111259905D01*
X172158114Y-111355143D01*
X172205733Y-111402762D01*
X172300971Y-111450381D01*
X172491448Y-111450381D01*
X172586686Y-111402762D01*
X172634305Y-111355143D01*
X172681924Y-111259905D01*
X172681924Y-110450381D01*
X173681924Y-111450381D02*
X173110495Y-111450381D01*
X173396209Y-111450381D02*
X173396209Y-110450381D01*
X173300971Y-110593238D01*
X173205733Y-110688476D01*
X173110495Y-110736095D01*
X134351734Y-115647743D02*
X134304115Y-115695362D01*
X134161258Y-115742981D01*
X134066020Y-115742981D01*
X133923162Y-115695362D01*
X133827924Y-115600124D01*
X133780305Y-115504886D01*
X133732686Y-115314410D01*
X133732686Y-115171552D01*
X133780305Y-114981076D01*
X133827924Y-114885838D01*
X133923162Y-114790600D01*
X134066020Y-114742981D01*
X134161258Y-114742981D01*
X134304115Y-114790600D01*
X134351734Y-114838219D01*
X135208877Y-115076314D02*
X135208877Y-115742981D01*
X134970781Y-114695362D02*
X134732686Y-115409648D01*
X135351734Y-115409648D01*
X169340305Y-113380781D02*
X169340305Y-112380781D01*
X169578400Y-112380781D01*
X169721258Y-112428400D01*
X169816496Y-112523638D01*
X169864115Y-112618876D01*
X169911734Y-112809352D01*
X169911734Y-112952210D01*
X169864115Y-113142686D01*
X169816496Y-113237924D01*
X169721258Y-113333162D01*
X169578400Y-113380781D01*
X169340305Y-113380781D01*
X170864115Y-113380781D02*
X170292686Y-113380781D01*
X170578400Y-113380781D02*
X170578400Y-112380781D01*
X170483162Y-112523638D01*
X170387924Y-112618876D01*
X170292686Y-112666495D01*
M02*
