%TF.GenerationSoftware,KiCad,Pcbnew,4.0.4-stable*%
%TF.CreationDate,2017-01-07T18:49:50+00:00*%
%TF.ProjectId,mightyduino,6D69676874796475696E6F2E6B696361,1.3*%
%TF.FileFunction,Copper,L2,Bot,Signal*%
%FSLAX46Y46*%
G04 Gerber Fmt 4.6, Leading zero omitted, Abs format (unit mm)*
G04 Created by KiCad (PCBNEW 4.0.4-stable) date Saturday, 07 January 2017 'PMt' 18:49:50*
%MOMM*%
%LPD*%
G01*
G04 APERTURE LIST*
%ADD10C,0.100000*%
%ADD11R,1.727200X2.032000*%
%ADD12O,1.727200X2.032000*%
%ADD13R,2.032000X1.727200*%
%ADD14O,2.032000X1.727200*%
%ADD15C,1.000000*%
%ADD16C,0.400000*%
%ADD17C,0.254000*%
G04 APERTURE END LIST*
D10*
D11*
X172720000Y-100330000D03*
D12*
X170180000Y-100330000D03*
X167640000Y-100330000D03*
X165100000Y-100330000D03*
X162560000Y-100330000D03*
X160020000Y-100330000D03*
X157480000Y-100330000D03*
X154940000Y-100330000D03*
X152400000Y-100330000D03*
X149860000Y-100330000D03*
X147320000Y-100330000D03*
X144780000Y-100330000D03*
X142240000Y-100330000D03*
X139700000Y-100330000D03*
X137160000Y-100330000D03*
X134620000Y-100330000D03*
X132080000Y-100330000D03*
X129540000Y-100330000D03*
D13*
X129540000Y-116840000D03*
D14*
X129540000Y-114300000D03*
X129540000Y-111760000D03*
X129540000Y-109220000D03*
X129540000Y-106680000D03*
X129540000Y-104140000D03*
D11*
X129540000Y-120650000D03*
D12*
X132080000Y-120650000D03*
X134620000Y-120650000D03*
X137160000Y-120650000D03*
X139700000Y-120650000D03*
X142240000Y-120650000D03*
X144780000Y-120650000D03*
X147320000Y-120650000D03*
X149860000Y-120650000D03*
X152400000Y-120650000D03*
X154940000Y-120650000D03*
X157480000Y-120650000D03*
X160020000Y-120650000D03*
X162560000Y-120650000D03*
X165100000Y-120650000D03*
X167640000Y-120650000D03*
X170180000Y-120650000D03*
X172720000Y-120650000D03*
D15*
X133935385Y-105233385D03*
X163822829Y-107956465D03*
X131758821Y-110069955D03*
X167904886Y-106228323D03*
X160020000Y-106934000D03*
X146165037Y-109790027D03*
X147706105Y-107945886D03*
X173228000Y-105410000D03*
X146860979Y-114562042D03*
X160985044Y-112306288D03*
X132080000Y-104140000D03*
X150447089Y-110959956D03*
X154305000Y-118110000D03*
X135954185Y-117497467D03*
X133052249Y-102169145D03*
X156083000Y-107569000D03*
X156210000Y-113030000D03*
X155702000Y-118364000D03*
X165862000Y-116332000D03*
X146526847Y-107988081D03*
X131826000Y-115189000D03*
X131127500Y-112331500D03*
X144984669Y-109788297D03*
X137012793Y-108237594D03*
X140216990Y-109508522D03*
X142220236Y-108728143D03*
X145781169Y-111200508D03*
X144556867Y-111903948D03*
X144147632Y-113010725D03*
X142831309Y-113154251D03*
X154958820Y-105886108D03*
X138607800Y-115011200D03*
D16*
X132924990Y-106243780D02*
X133435386Y-105733384D01*
X162660952Y-107956465D02*
X152030046Y-118587371D01*
X133286013Y-114526350D02*
X132924990Y-114165328D01*
X135767734Y-118587371D02*
X133286013Y-116105650D01*
X133286013Y-116105650D02*
X133286013Y-114526350D01*
X132924990Y-114165328D02*
X132924990Y-106243780D01*
X133435386Y-105733384D02*
X133935385Y-105233385D01*
X163822829Y-107956465D02*
X162660952Y-107956465D01*
X152030046Y-118587371D02*
X135767734Y-118587371D01*
X131758821Y-108746421D02*
X131758821Y-109362849D01*
X131758821Y-109362849D02*
X131758821Y-110069955D01*
X129692400Y-106680000D02*
X131758821Y-108746421D01*
X129692400Y-106680000D02*
X129540000Y-106680000D01*
X168611992Y-106228323D02*
X167904886Y-106228323D01*
X172409677Y-106228323D02*
X168611992Y-106228323D01*
X165608000Y-106807000D02*
X166186677Y-106228323D01*
X166186677Y-106228323D02*
X167197780Y-106228323D01*
X167197780Y-106228323D02*
X167904886Y-106228323D01*
X173228000Y-105410000D02*
X172409677Y-106228323D01*
X164846000Y-106045000D02*
X160909000Y-106045000D01*
X160909000Y-106045000D02*
X160020000Y-106934000D01*
X165608000Y-106807000D02*
X164846000Y-106045000D01*
X165608000Y-109093000D02*
X165608000Y-106807000D01*
X165227000Y-109474000D02*
X165608000Y-109093000D01*
X162894711Y-111806289D02*
X165227000Y-109474000D01*
X160985044Y-112306288D02*
X161485043Y-111806289D01*
X161485043Y-111806289D02*
X162894711Y-111806289D01*
X147706105Y-107945886D02*
X147706105Y-108652992D01*
X146860979Y-110485969D02*
X146665036Y-110290026D01*
X147706105Y-108652992D02*
X146569070Y-109790027D01*
X146860979Y-114562042D02*
X146860979Y-110485969D01*
X146569070Y-109790027D02*
X146165037Y-109790027D01*
X146665036Y-110290026D02*
X146165037Y-109790027D01*
X150447089Y-110959956D02*
X146860979Y-114546066D01*
X146860979Y-114546066D02*
X146860979Y-114562042D01*
X160108712Y-112306288D02*
X160277938Y-112306288D01*
X154305000Y-118110000D02*
X160108712Y-112306288D01*
X160277938Y-112306288D02*
X160985044Y-112306288D01*
X132080000Y-104140000D02*
X132080000Y-104163688D01*
X129692400Y-106680000D02*
X132080000Y-104292400D01*
X132080000Y-104292400D02*
X132080000Y-101746000D01*
X132080000Y-101746000D02*
X132080000Y-100330000D01*
X129540000Y-104140000D02*
X129540000Y-100330000D01*
X135954185Y-111762427D02*
X135954185Y-116790361D01*
X133735152Y-109543394D02*
X135954185Y-111762427D01*
X135021947Y-105391347D02*
X133735152Y-106678142D01*
X135954185Y-116790361D02*
X135954185Y-117497467D01*
X135021947Y-104138843D02*
X135021947Y-105391347D01*
X133052249Y-102169145D02*
X135021947Y-104138843D01*
X133735152Y-106678142D02*
X133735152Y-109543394D01*
X156210000Y-113030000D02*
X151742533Y-117497467D01*
X151742533Y-117497467D02*
X136661291Y-117497467D01*
X136661291Y-117497467D02*
X135954185Y-117497467D01*
X156210000Y-113030000D02*
X156210000Y-107696000D01*
X156210000Y-107696000D02*
X156083000Y-107569000D01*
X165862000Y-116332000D02*
X163830000Y-118364000D01*
X163830000Y-118364000D02*
X155702000Y-118364000D01*
X129692400Y-109220000D02*
X129540000Y-109220000D01*
X132248402Y-111928402D02*
X130956000Y-110636000D01*
X132248402Y-114308998D02*
X132248402Y-111928402D01*
X132706002Y-114766598D02*
X132248402Y-114308998D01*
X129540000Y-120650000D02*
X129540000Y-120497600D01*
X129540000Y-120497600D02*
X132706002Y-117331598D01*
X132706002Y-117331598D02*
X132706002Y-114766598D01*
X130956000Y-110483600D02*
X129692400Y-109220000D01*
X130956000Y-110636000D02*
X130956000Y-110483600D01*
X129387600Y-109220000D02*
X129540000Y-109220000D01*
X146526847Y-107374490D02*
X146526847Y-107988081D01*
X146976327Y-106925010D02*
X146526847Y-107374490D01*
X148497390Y-106925010D02*
X146976327Y-106925010D01*
X154940000Y-100482400D02*
X148497390Y-106925010D01*
X154940000Y-100330000D02*
X154940000Y-100482400D01*
X131127500Y-114490500D02*
X131826000Y-115189000D01*
X131127500Y-112331500D02*
X131127500Y-114490500D01*
X152400000Y-100330000D02*
X152320969Y-100330000D01*
X152320969Y-100330000D02*
X144984669Y-107666300D01*
X144984669Y-107666300D02*
X144984669Y-109081191D01*
X144984669Y-109081191D02*
X144984669Y-109788297D01*
X137512792Y-108737593D02*
X137012793Y-108237594D01*
X139163732Y-110388533D02*
X137512792Y-108737593D01*
X142849467Y-110388533D02*
X139163732Y-110388533D01*
X149860000Y-100482400D02*
X144018000Y-106324400D01*
X144018000Y-109220000D02*
X142849467Y-110388533D01*
X144018000Y-106324400D02*
X144018000Y-109220000D01*
X149860000Y-100330000D02*
X149860000Y-100482400D01*
X147320000Y-100330000D02*
X147320000Y-100482400D01*
X147320000Y-100482400D02*
X143100238Y-104702162D01*
X143100238Y-104702162D02*
X143100238Y-109150545D01*
X143100238Y-109150545D02*
X142642638Y-109608145D01*
X142642638Y-109608145D02*
X141023719Y-109608145D01*
X141023719Y-109608145D02*
X140924096Y-109508522D01*
X140924096Y-109508522D02*
X140216990Y-109508522D01*
X144780000Y-100330000D02*
X144780000Y-100482400D01*
X144780000Y-100482400D02*
X141720237Y-103542163D01*
X141720237Y-103542163D02*
X141720237Y-108228144D01*
X141720237Y-108228144D02*
X142220236Y-108728143D01*
X138468143Y-110995348D02*
X145576009Y-110995348D01*
X136132791Y-108659996D02*
X138468143Y-110995348D01*
X136132791Y-107561539D02*
X136132791Y-108659996D01*
X140976400Y-102717930D02*
X136132791Y-107561539D01*
X140976400Y-101746000D02*
X140976400Y-102717930D01*
X142240000Y-100482400D02*
X140976400Y-101746000D01*
X142240000Y-100330000D02*
X142240000Y-100482400D01*
X145576009Y-110995348D02*
X145781169Y-111200508D01*
X138248660Y-111596124D02*
X144249043Y-111596124D01*
X139700000Y-103174071D02*
X135475185Y-107398886D01*
X139700000Y-100330000D02*
X139700000Y-103174071D01*
X144249043Y-111596124D02*
X144556867Y-111903948D01*
X135475185Y-108822649D02*
X138248660Y-111596124D01*
X135475185Y-107398886D02*
X135475185Y-108822649D01*
X143647633Y-112510726D02*
X144147632Y-113010725D01*
X137160000Y-100330000D02*
X137160000Y-104893812D01*
X137160000Y-104893812D02*
X134895174Y-107158638D01*
X134895174Y-107158638D02*
X134895174Y-109062896D01*
X134895174Y-109062896D02*
X138103917Y-112271639D01*
X138103917Y-112271639D02*
X143408546Y-112271639D01*
X143408546Y-112271639D02*
X143647633Y-112510726D01*
X142513334Y-113151649D02*
X142828707Y-113151649D01*
X142828707Y-113151649D02*
X142831309Y-113154251D01*
X134620000Y-100330000D02*
X134620000Y-100482400D01*
X134620000Y-100482400D02*
X135883600Y-101746000D01*
X135883600Y-101746000D02*
X135883600Y-105349953D01*
X135883600Y-105349953D02*
X134315163Y-106918390D01*
X134315163Y-106918390D02*
X134315163Y-109303145D01*
X138163667Y-113151649D02*
X142513334Y-113151649D01*
X134315163Y-109303145D02*
X138163667Y-113151649D01*
X154958820Y-106593214D02*
X154958820Y-105886108D01*
X148496401Y-115511199D02*
X154958820Y-109048780D01*
X138607800Y-115011200D02*
X139107799Y-115511199D01*
X139107799Y-115511199D02*
X148496401Y-115511199D01*
X154958820Y-109048780D02*
X154958820Y-106593214D01*
D17*
G36*
X173661000Y-118618000D02*
X164756868Y-118618000D01*
X165907827Y-117467041D01*
X166086775Y-117467197D01*
X166504086Y-117294767D01*
X166823645Y-116975765D01*
X166996803Y-116558756D01*
X166997197Y-116107225D01*
X166824767Y-115689914D01*
X166505765Y-115370355D01*
X166088756Y-115197197D01*
X165637225Y-115196803D01*
X165219914Y-115369233D01*
X164900355Y-115688235D01*
X164727197Y-116105244D01*
X164727039Y-116286093D01*
X163484132Y-117529000D01*
X156472189Y-117529000D01*
X156345765Y-117402355D01*
X155928756Y-117229197D01*
X155477225Y-117228803D01*
X155059914Y-117401233D01*
X154740355Y-117720235D01*
X154567197Y-118137244D01*
X154566803Y-118588775D01*
X154578879Y-118618000D01*
X153180285Y-118618000D01*
X163006820Y-108791465D01*
X163052640Y-108791465D01*
X163179064Y-108918110D01*
X163596073Y-109091268D01*
X164047604Y-109091662D01*
X164464915Y-108919232D01*
X164784474Y-108600230D01*
X164957632Y-108183221D01*
X164958026Y-107731690D01*
X164785596Y-107314379D01*
X164466594Y-106994820D01*
X164049585Y-106821662D01*
X163598054Y-106821268D01*
X163180743Y-106993698D01*
X163052753Y-107121465D01*
X162660952Y-107121465D01*
X162341411Y-107185026D01*
X162147821Y-107314379D01*
X162070518Y-107366031D01*
X157110755Y-112325794D01*
X157045000Y-112259924D01*
X157045000Y-108211910D01*
X157217803Y-107795756D01*
X157218197Y-107344225D01*
X157045767Y-106926914D01*
X156726765Y-106607355D01*
X156309756Y-106434197D01*
X155960320Y-106433892D01*
X156093623Y-106112864D01*
X156094017Y-105661333D01*
X155921587Y-105244022D01*
X155602585Y-104924463D01*
X155185576Y-104751305D01*
X154734045Y-104750911D01*
X154316734Y-104923341D01*
X153997175Y-105242343D01*
X153824017Y-105659352D01*
X153823623Y-106110883D01*
X153996053Y-106528194D01*
X154123820Y-106656184D01*
X154123820Y-108702912D01*
X148150533Y-114676199D01*
X139697452Y-114676199D01*
X139570567Y-114369114D01*
X139251565Y-114049555D01*
X139100071Y-113986649D01*
X142058522Y-113986649D01*
X142187544Y-114115896D01*
X142604553Y-114289054D01*
X143056084Y-114289448D01*
X143473395Y-114117018D01*
X143584680Y-114005927D01*
X143920876Y-114145528D01*
X144372407Y-114145922D01*
X144789718Y-113973492D01*
X145109277Y-113654490D01*
X145282435Y-113237481D01*
X145282829Y-112785950D01*
X145281962Y-112783851D01*
X145518512Y-112547713D01*
X145606690Y-112335357D01*
X146005944Y-112335705D01*
X146423255Y-112163275D01*
X146742814Y-111844273D01*
X146915972Y-111427264D01*
X146916366Y-110975733D01*
X146743936Y-110558422D01*
X146424934Y-110238863D01*
X146085128Y-110097763D01*
X146119472Y-110015053D01*
X146119866Y-109563522D01*
X145947436Y-109146211D01*
X145819669Y-109018221D01*
X145819669Y-108886202D01*
X145883082Y-108949726D01*
X146300091Y-109122884D01*
X146751622Y-109123278D01*
X147168933Y-108950848D01*
X147488492Y-108631846D01*
X147661650Y-108214837D01*
X147662044Y-107763306D01*
X147660682Y-107760010D01*
X148497390Y-107760010D01*
X148816931Y-107696449D01*
X149087824Y-107515444D01*
X154241268Y-102362000D01*
X173661000Y-102362000D01*
X173661000Y-118618000D01*
X173661000Y-118618000D01*
G37*
X173661000Y-118618000D02*
X164756868Y-118618000D01*
X165907827Y-117467041D01*
X166086775Y-117467197D01*
X166504086Y-117294767D01*
X166823645Y-116975765D01*
X166996803Y-116558756D01*
X166997197Y-116107225D01*
X166824767Y-115689914D01*
X166505765Y-115370355D01*
X166088756Y-115197197D01*
X165637225Y-115196803D01*
X165219914Y-115369233D01*
X164900355Y-115688235D01*
X164727197Y-116105244D01*
X164727039Y-116286093D01*
X163484132Y-117529000D01*
X156472189Y-117529000D01*
X156345765Y-117402355D01*
X155928756Y-117229197D01*
X155477225Y-117228803D01*
X155059914Y-117401233D01*
X154740355Y-117720235D01*
X154567197Y-118137244D01*
X154566803Y-118588775D01*
X154578879Y-118618000D01*
X153180285Y-118618000D01*
X163006820Y-108791465D01*
X163052640Y-108791465D01*
X163179064Y-108918110D01*
X163596073Y-109091268D01*
X164047604Y-109091662D01*
X164464915Y-108919232D01*
X164784474Y-108600230D01*
X164957632Y-108183221D01*
X164958026Y-107731690D01*
X164785596Y-107314379D01*
X164466594Y-106994820D01*
X164049585Y-106821662D01*
X163598054Y-106821268D01*
X163180743Y-106993698D01*
X163052753Y-107121465D01*
X162660952Y-107121465D01*
X162341411Y-107185026D01*
X162147821Y-107314379D01*
X162070518Y-107366031D01*
X157110755Y-112325794D01*
X157045000Y-112259924D01*
X157045000Y-108211910D01*
X157217803Y-107795756D01*
X157218197Y-107344225D01*
X157045767Y-106926914D01*
X156726765Y-106607355D01*
X156309756Y-106434197D01*
X155960320Y-106433892D01*
X156093623Y-106112864D01*
X156094017Y-105661333D01*
X155921587Y-105244022D01*
X155602585Y-104924463D01*
X155185576Y-104751305D01*
X154734045Y-104750911D01*
X154316734Y-104923341D01*
X153997175Y-105242343D01*
X153824017Y-105659352D01*
X153823623Y-106110883D01*
X153996053Y-106528194D01*
X154123820Y-106656184D01*
X154123820Y-108702912D01*
X148150533Y-114676199D01*
X139697452Y-114676199D01*
X139570567Y-114369114D01*
X139251565Y-114049555D01*
X139100071Y-113986649D01*
X142058522Y-113986649D01*
X142187544Y-114115896D01*
X142604553Y-114289054D01*
X143056084Y-114289448D01*
X143473395Y-114117018D01*
X143584680Y-114005927D01*
X143920876Y-114145528D01*
X144372407Y-114145922D01*
X144789718Y-113973492D01*
X145109277Y-113654490D01*
X145282435Y-113237481D01*
X145282829Y-112785950D01*
X145281962Y-112783851D01*
X145518512Y-112547713D01*
X145606690Y-112335357D01*
X146005944Y-112335705D01*
X146423255Y-112163275D01*
X146742814Y-111844273D01*
X146915972Y-111427264D01*
X146916366Y-110975733D01*
X146743936Y-110558422D01*
X146424934Y-110238863D01*
X146085128Y-110097763D01*
X146119472Y-110015053D01*
X146119866Y-109563522D01*
X145947436Y-109146211D01*
X145819669Y-109018221D01*
X145819669Y-108886202D01*
X145883082Y-108949726D01*
X146300091Y-109122884D01*
X146751622Y-109123278D01*
X147168933Y-108950848D01*
X147488492Y-108631846D01*
X147661650Y-108214837D01*
X147662044Y-107763306D01*
X147660682Y-107760010D01*
X148497390Y-107760010D01*
X148816931Y-107696449D01*
X149087824Y-107515444D01*
X154241268Y-102362000D01*
X173661000Y-102362000D01*
X173661000Y-118618000D01*
G36*
X131917052Y-102393920D02*
X132089482Y-102811231D01*
X132408484Y-103130790D01*
X132825493Y-103303948D01*
X133006342Y-103304106D01*
X133800502Y-104098266D01*
X133710610Y-104098188D01*
X133293299Y-104270618D01*
X132973740Y-104589620D01*
X132800582Y-105006629D01*
X132800424Y-105187478D01*
X132334556Y-105653346D01*
X132153551Y-105924239D01*
X132089990Y-106243780D01*
X132089990Y-110589122D01*
X131742961Y-110242093D01*
X131727439Y-110164059D01*
X131572000Y-109931428D01*
X131572000Y-102362000D01*
X131917080Y-102362000D01*
X131917052Y-102393920D01*
X131917052Y-102393920D01*
G37*
X131917052Y-102393920D02*
X132089482Y-102811231D01*
X132408484Y-103130790D01*
X132825493Y-103303948D01*
X133006342Y-103304106D01*
X133800502Y-104098266D01*
X133710610Y-104098188D01*
X133293299Y-104270618D01*
X132973740Y-104589620D01*
X132800582Y-105006629D01*
X132800424Y-105187478D01*
X132334556Y-105653346D01*
X132153551Y-105924239D01*
X132089990Y-106243780D01*
X132089990Y-110589122D01*
X131742961Y-110242093D01*
X131727439Y-110164059D01*
X131572000Y-109931428D01*
X131572000Y-102362000D01*
X131917080Y-102362000D01*
X131917052Y-102393920D01*
M02*
